<svg width="65" height="66" viewBox="0 0 65 66" fill="none" xmlns="http://www.w3.org/2000/svg">
<path d="M12.317 1.1043C12.1286 1.2793 11.9805 1.53508 11.967 1.6697C11.967 1.80432 11.8862 2.4505 11.8055 3.09668C11.7338 3.62838 11.1128 3.88239 10.689 3.55335L10.4997 3.40631C8.8169 2.10049 8.84382 2.10049 6.70336 4.24095C4.5629 6.38142 4.5629 6.36795 5.85525 7.99686C6.20485 8.44634 6.48774 8.85135 6.58846 9.04144C6.62688 9.11394 6.58561 9.17353 6.50532 9.19046C6.32712 9.22805 5.97505 9.27275 5.58601 9.30268C4.25327 9.4373 3.6744 9.61231 3.43208 9.96232C3.13592 10.3931 3.13592 14.8356 3.43208 15.2664C3.6744 15.6164 4.25327 15.7914 5.58601 15.926C5.97505 15.9559 6.32712 16.0006 6.50532 16.0382C6.58561 16.0552 6.62688 16.1147 6.58846 16.1872C6.48774 16.3773 6.20485 16.7823 5.85525 17.2318C4.5629 18.8607 4.5629 18.8473 6.70336 20.9877C8.8169 23.1013 8.83036 23.1147 10.392 21.9031C10.9574 21.4589 11.4824 21.0954 11.5497 21.0954C11.617 21.0954 11.7247 21.5397 11.7651 22.0647C11.8189 22.6032 11.9266 23.2763 11.9939 23.5455C12.2228 24.4071 12.4113 24.4609 15.1171 24.4609C17.4865 24.4609 17.5134 24.4609 17.8365 24.1244C18.0249 23.9494 18.173 23.6936 18.1865 23.559C18.1865 23.4244 18.2673 22.7782 18.348 22.132C18.4197 21.6003 19.0407 21.3463 19.4645 21.6753L19.6538 21.8224C21.3366 23.1282 21.3097 23.1282 23.4501 20.9877C25.5906 18.8473 25.5906 18.8607 24.2982 17.2318C23.9487 16.7823 23.6658 16.3773 23.565 16.1872C23.5266 16.1147 23.568 16.0553 23.6483 16.0386C23.8291 16.0009 24.1871 15.956 24.5675 15.926C25.0925 15.8722 25.7387 15.7645 26.0079 15.6971C26.8695 15.4818 26.9233 15.2798 26.9233 12.574C26.9233 10.2046 26.9233 10.1777 26.5868 9.85462C26.4118 9.66615 26.156 9.51807 26.0214 9.50461C25.8868 9.50461 25.2406 9.42384 24.5944 9.34307C24.061 9.27114 23.8046 8.64945 24.1323 8.22244L24.2848 8.02379C25.5771 6.34103 25.5771 6.36795 23.4501 4.24095C21.3097 2.10049 21.3231 2.10049 19.6942 3.39284C19.2448 3.74244 18.8397 4.02533 18.6497 4.12605C18.5771 4.16447 18.5178 4.12308 18.501 4.04275C18.4634 3.86198 18.4184 3.50396 18.3884 3.1236C18.3346 2.59858 18.2269 1.95241 18.1596 1.68316C17.9442 0.821594 17.7422 0.767746 15.0364 0.767746C12.667 0.767746 12.6401 0.767746 12.317 1.1043ZM16.2076 3.21784C16.2479 3.39284 16.3422 4.03902 16.423 4.65828C16.4903 5.27753 16.6249 5.86986 16.7191 5.99102C16.9749 6.30064 18.348 6.85259 18.6577 6.77182C18.8192 6.73143 19.3711 6.36795 19.8692 5.97756C20.3808 5.58716 20.8789 5.21022 20.9731 5.15637C21.1077 5.0756 21.3904 5.26407 21.8885 5.76216C22.2924 6.15256 22.6155 6.51604 22.6155 6.56989C22.6155 6.61027 22.252 7.12183 21.8078 7.7007C21.3635 8.27956 20.9597 8.88536 20.9193 9.0469C20.8385 9.36999 21.377 10.7027 21.7135 10.972C21.8347 11.0797 22.3732 11.2143 22.9117 11.2816C23.4501 11.3354 24.0963 11.4297 24.3386 11.4701C24.5884 11.5169 24.7694 11.735 24.7694 11.9891V12.6143C24.7694 13.8394 24.931 13.7182 23.0328 13.9605C22.4136 14.0279 21.8212 14.1625 21.7001 14.2567C21.3904 14.5125 20.8385 15.8856 20.9193 16.1952C20.9597 16.3568 21.3231 16.9087 21.7135 17.4068C22.1039 17.9184 22.4809 18.4165 22.5347 18.5107C22.6155 18.6453 22.427 18.928 21.9289 19.4261C21.5385 19.83 21.1751 20.1531 21.1212 20.1531C21.0808 20.1531 20.5693 19.7896 19.9904 19.3454C19.4115 18.9011 18.8057 18.4973 18.6577 18.4569C18.3346 18.3761 16.9749 18.9415 16.7057 19.2511C16.6114 19.3723 16.4768 19.9108 16.4095 20.4492C16.3422 20.9877 16.2479 21.6339 16.2076 21.8628C16.1689 22.1182 15.9493 22.307 15.6909 22.307H15.0767C13.8652 22.307 13.9998 22.482 13.7305 20.5031C13.6498 19.8973 13.5017 19.3319 13.3805 19.1973C13.2728 19.0761 12.8151 18.8338 12.3843 18.6723C11.4824 18.3357 11.442 18.3492 10.1631 19.3454C8.96498 20.2742 9.07268 20.2742 8.26496 19.4665C7.8611 19.0761 7.53801 18.7126 7.53801 18.6588C7.53801 18.6184 7.90148 18.1069 8.34573 17.528C8.78998 16.9491 9.19384 16.3433 9.23422 16.1818C9.315 15.8587 8.77651 14.526 8.43996 14.2567C8.31881 14.149 7.78032 14.0144 7.24184 13.9471C6.70336 13.8798 6.05718 13.7855 5.82833 13.7452C5.57289 13.7065 5.38408 13.4869 5.38408 13.2285V12.6143V12.0002C5.38408 11.7418 5.57289 11.5222 5.82833 11.4835C6.05718 11.4431 6.71682 11.3489 7.2553 11.2681C7.80725 11.1874 8.34573 11.0527 8.46689 10.9585C8.77651 10.7027 9.315 9.36999 9.23422 9.0469C9.19384 8.88536 8.78998 8.27956 8.34573 7.7007C7.90148 7.12183 7.53801 6.62373 7.53801 6.56989C7.53801 6.46219 8.9246 5.0756 9.03229 5.0756C9.07268 5.0756 9.58424 5.43907 10.1631 5.88332C10.742 6.32757 11.3478 6.73143 11.5093 6.77182C11.8324 6.85259 13.1651 6.31411 13.4344 5.97756C13.5421 5.8564 13.6767 5.31791 13.744 4.77943C13.8113 4.24095 13.9056 3.59477 13.9459 3.35246C13.9847 3.10448 14.1983 2.92167 14.4493 2.92167H15.0767C16.0729 2.92167 16.1537 2.93513 16.2076 3.21784Z" fill="#C77E3A"/>
<path d="M13.8128 7.36589C12.9647 7.58128 11.7531 8.30823 11.1608 8.94095C10.8646 9.26404 10.4204 9.93714 10.1915 10.4352C9.80113 11.2564 9.76074 11.4584 9.76074 12.6295C9.76074 13.8411 9.78767 13.9623 10.2588 14.9316C10.8646 16.1566 11.6454 16.9105 12.8974 17.5028C13.7186 17.8932 13.9205 17.9336 15.0782 17.9336C16.236 17.9336 16.4379 17.8932 17.2591 17.5028C18.5111 16.9105 19.2919 16.1566 19.8977 14.9316C20.3688 13.9623 20.3958 13.8411 20.3958 12.6161C20.3958 11.391 20.3688 11.2699 19.8977 10.3006C18.9822 8.46978 17.3668 7.37935 15.3744 7.28512C14.809 7.25819 14.109 7.29858 13.8128 7.36589ZM16.0744 9.54674C17.2322 9.89676 18.3091 11.3776 18.3091 12.6161C18.3091 13.8546 17.2322 15.3354 16.0744 15.6854C14.809 16.0624 13.7994 15.7931 12.857 14.8373C11.4839 13.4777 11.4839 11.7545 12.857 10.3949C13.7994 9.43905 14.809 9.18327 16.0744 9.54674Z" fill="#C77E3A"/>
<path d="M46.7812 1.1043C46.5927 1.2793 46.4447 1.53508 46.4312 1.6697C46.4312 1.80432 46.3504 2.4505 46.2697 3.09668C46.198 3.62838 45.577 3.88239 45.1532 3.55335L44.9638 3.40631C43.2811 2.10049 43.308 2.10049 41.1675 4.24095C39.0271 6.38142 39.0271 6.36795 40.3194 7.99686C40.669 8.44634 40.9519 8.85135 41.0526 9.04144C41.0911 9.11394 41.0498 9.17353 40.9695 9.19046C40.7913 9.22805 40.4392 9.27275 40.0502 9.30268C39.5386 9.35653 38.879 9.46422 38.6098 9.53153C37.7482 9.74693 37.6943 9.94886 37.6943 12.6143C37.6943 15.2798 37.7482 15.4818 38.6098 15.6971C38.879 15.7645 39.5386 15.8722 40.0502 15.926C40.4392 15.9559 40.7913 16.0006 40.9695 16.0382C41.0498 16.0552 41.0911 16.1147 41.0526 16.1872C40.9519 16.3773 40.669 16.7823 40.3194 17.2318C39.0271 18.8607 39.0271 18.8473 41.1675 20.9877C43.2811 23.1013 43.2945 23.1147 44.8561 21.9031C45.4215 21.4589 45.9466 21.0954 46.0139 21.0954C46.0812 21.0954 46.1889 21.5397 46.2293 22.0647C46.2831 22.6032 46.3908 23.2763 46.4581 23.5455C46.687 24.4071 46.8754 24.4609 49.5813 24.4609C51.9506 24.4609 51.9776 24.4609 52.3006 24.1244C52.4891 23.9494 52.6372 23.6936 52.6507 23.559C52.6507 23.4244 52.7314 22.7782 52.8122 22.132C52.8839 21.6003 53.5049 21.3463 53.9287 21.6753L54.118 21.8224C55.8008 23.1282 55.7739 23.1282 57.9143 20.9877C60.0548 18.8473 60.0548 18.8607 58.7624 17.2318C58.4128 16.7823 58.1299 16.3773 58.0292 16.1872C57.9908 16.1147 58.0322 16.0553 58.1125 16.0386C58.2933 16.0009 58.6513 15.956 59.0317 15.926C59.5567 15.8722 60.2029 15.7645 60.4721 15.6971C61.3337 15.4818 61.3875 15.2798 61.3875 12.574C61.3875 10.2046 61.3875 10.1777 61.051 9.85462C60.876 9.66615 60.6202 9.51807 60.4856 9.50461C60.351 9.50461 59.7048 9.42384 59.0586 9.34307C58.5252 9.27114 58.2688 8.64945 58.5965 8.22244L58.749 8.02379C60.0413 6.34103 60.0413 6.36795 57.9143 4.24095C55.7739 2.10049 55.7873 2.10049 54.1584 3.39284C53.7089 3.74244 53.3039 4.02533 53.1138 4.12605C53.0413 4.16447 52.9819 4.12308 52.9652 4.04275C52.9275 3.86198 52.8826 3.50396 52.8526 3.1236C52.7987 2.59858 52.691 1.95241 52.6237 1.68316C52.4083 0.821594 52.2064 0.767746 49.5005 0.767746C47.1312 0.767746 47.1043 0.767746 46.7812 1.1043ZM50.6717 3.21784C50.7121 3.39284 50.8064 4.03902 50.8871 4.65828C50.9544 5.27753 51.0891 5.86986 51.1833 5.99102C51.4391 6.30064 52.8122 6.85259 53.1218 6.77182C53.2834 6.73143 53.8353 6.36795 54.3334 5.97756C54.845 5.58716 55.3431 5.21022 55.4373 5.15637C55.5719 5.0756 55.8546 5.26407 56.3527 5.76216C56.7566 6.15256 57.0797 6.51604 57.0797 6.56989C57.0797 6.61027 56.7162 7.12183 56.272 7.7007C55.8277 8.27956 55.4238 8.88536 55.3835 9.0469C55.3027 9.36999 55.8412 10.7027 56.1777 10.972C56.2989 11.0797 56.8374 11.2143 57.3758 11.2816C57.9143 11.3354 58.5605 11.4297 58.8028 11.4701C59.0526 11.5169 59.2336 11.735 59.2336 11.9891V12.6143C59.2336 13.8394 59.3951 13.7182 57.497 13.9605C56.8777 14.0279 56.2854 14.1625 56.1643 14.2567C55.8546 14.5125 55.3027 15.8856 55.3835 16.1952C55.4238 16.3568 55.7873 16.9087 56.1777 17.4068C56.5681 17.9184 56.9451 18.4165 56.9989 18.5107C57.0797 18.6453 56.8912 18.928 56.3931 19.4261C56.0027 19.83 55.6392 20.1531 55.5854 20.1531C55.545 20.1531 55.0334 19.7896 54.4546 19.3454C53.8757 18.9011 53.2699 18.4973 53.1218 18.4569C52.7987 18.3761 51.4391 18.9415 51.1698 19.2511C51.0756 19.3723 50.941 19.9108 50.8737 20.4492C50.8064 20.9877 50.7121 21.6339 50.6717 21.8628C50.633 22.1182 50.4135 22.307 50.1551 22.307H49.5409C48.3293 22.307 48.464 22.482 48.1947 20.5031C48.114 19.8973 47.9659 19.3319 47.8447 19.1973C47.737 19.0761 47.2793 18.8338 46.8485 18.6723C45.9466 18.3357 45.9062 18.3492 44.6273 19.3454C43.4292 20.2742 43.5369 20.2742 42.7291 19.4665C42.3253 19.0761 42.0022 18.7126 42.0022 18.6588C42.0022 18.6184 42.3657 18.1069 42.8099 17.528C43.2542 16.9491 43.658 16.3433 43.6984 16.1952C43.7792 15.8722 43.2138 14.5125 42.9041 14.2567C42.7964 14.1625 42.2041 14.0279 41.5849 13.9471C39.6733 13.7048 39.8483 13.8394 39.8483 12.6143V12.0002C39.8483 11.7418 40.0371 11.5222 40.2925 11.4835C40.5214 11.4431 41.181 11.3489 41.7195 11.2681C42.2714 11.1874 42.8099 11.0527 42.9311 10.9585C43.2407 10.7027 43.7792 9.36999 43.6984 9.0469C43.658 8.88536 43.2542 8.27956 42.8099 7.7007C42.3657 7.12183 42.0022 6.62373 42.0022 6.56989C42.0022 6.46219 43.3888 5.0756 43.4965 5.0756C43.5369 5.0756 44.0484 5.43907 44.6273 5.88332C45.2062 6.32757 45.8119 6.73143 45.9735 6.77182C46.2966 6.85259 47.6293 6.31411 47.8986 5.97756C48.0063 5.8564 48.1409 5.31791 48.2082 4.77943C48.2755 4.24095 48.3697 3.59477 48.4101 3.35246C48.4489 3.10448 48.6625 2.92167 48.9134 2.92167H49.5409C50.5371 2.92167 50.6179 2.93513 50.6717 3.21784Z" fill="#C77E3A"/>
<path d="M48.2747 7.36589C47.4266 7.58128 46.215 8.30823 45.6227 8.94095C45.3265 9.26404 44.8823 9.93714 44.6534 10.4352C44.263 11.2564 44.2227 11.4584 44.2227 12.6295C44.2227 13.8411 44.2496 13.9623 44.7208 14.9316C45.3265 16.1566 46.1073 16.9105 47.3593 17.5028C48.1805 17.8932 48.3824 17.9336 49.5402 17.9336C50.6979 17.9336 50.8998 17.8932 51.721 17.5028C52.973 16.9105 53.7538 16.1566 54.3596 14.9316C54.8307 13.9623 54.8577 13.8411 54.8577 12.6161C54.8577 11.391 54.8307 11.2699 54.3596 10.3006C53.4442 8.46978 51.8287 7.37935 49.8363 7.28512C49.2709 7.25819 48.5709 7.29858 48.2747 7.36589ZM50.5364 9.54674C51.6941 9.89676 52.7711 11.3776 52.7711 12.6161C52.7711 14.2854 51.2095 15.847 49.5402 15.847C48.6921 15.847 48.0055 15.5374 47.3189 14.8373C45.9458 13.4777 45.9458 11.7545 47.3189 10.3949C48.2613 9.43905 49.2709 9.18327 50.5364 9.54674Z" fill="#C77E3A"/>
<path d="M10.2985 27.8545C9.93499 27.9219 9.14073 28.218 8.53493 28.5007C6.4887 29.4835 4.84633 31.6239 4.45594 33.8048C4.254 34.8952 4.26747 37.6953 4.4694 38.3819C4.77902 39.4184 6.28677 40.6166 7.30989 40.6166C7.47143 40.6166 7.51182 40.98 7.56567 42.9993C7.61951 45.1398 7.6599 45.4898 7.96953 46.2841C8.58878 47.9534 9.59844 49.2592 10.9312 50.1342C11.335 50.4035 11.4427 50.5515 11.3889 50.7669C11.3485 50.9285 11.2812 51.3727 11.2273 51.7497C11.1466 52.3689 11.1062 52.4632 10.8369 52.4632C10.3927 52.4632 0.511558 56.8787 0.242317 57.2018C0.0269241 57.4441 0 57.848 0 61.1058V64.0189C0 64.7743 0.612388 65.3867 1.36781 65.3867H15.0775H28.7872C29.5426 65.3867 30.155 64.7743 30.155 64.0189V61.1058C30.155 57.848 30.128 57.4441 29.9261 57.2018C29.6434 56.8787 19.7623 52.4632 19.318 52.4632C19.0488 52.4632 19.0084 52.3689 18.9276 51.7497C18.8738 51.3727 18.8065 50.9285 18.7661 50.7804C18.7122 50.5785 18.8872 50.3765 19.52 49.9188C20.7989 48.9765 21.62 47.8457 22.2528 46.136C22.4951 45.4898 22.5355 44.9917 22.5893 42.3262L22.6332 39.8365C22.6396 39.474 22.7896 39.1288 23.0504 38.8769L23.4374 38.503C24.3798 37.6011 24.9586 36.7395 25.4163 35.5279C25.7394 34.6798 25.7663 34.4509 25.8202 31.5028L25.8655 28.8745C25.871 28.5582 25.7477 28.2532 25.524 28.0296C25.3086 27.8141 25.0162 27.6933 24.7115 27.6939L18.0795 27.7065C14.1755 27.7199 10.6754 27.7738 10.2985 27.8545ZM23.6663 32.0951C23.6259 34.3163 23.6124 34.3702 23.1951 35.2317C22.6162 36.4164 22.4278 36.6318 22.1181 36.4703C21.9835 36.4029 19.8296 35.8375 17.3391 35.2183L13.2773 34.2088C12.962 34.1305 12.6292 34.1669 12.3384 34.3115L10.3523 35.2991C9.0061 35.9722 7.83491 36.6318 7.72721 36.7799C7.61952 36.928 7.53874 37.3587 7.53874 37.7491C7.53874 38.5838 7.33681 38.678 6.77141 38.1126C6.43486 37.7761 6.43486 37.7626 6.4887 35.8645C6.52909 34.0605 6.55601 33.899 6.95988 33.0509C7.18873 32.5528 7.63298 31.8797 7.92914 31.5566C8.52147 30.9104 9.74652 30.1969 10.5812 29.995C10.8773 29.9277 13.9467 29.8739 17.4199 29.8604L22.3162 29.8499C23.0855 29.8483 23.7049 30.4813 23.6865 31.2505L23.6663 32.0951ZM16.9083 37.3318L19.4307 37.9696C20.0437 38.1245 20.4705 38.6794 20.4631 39.3117L20.4354 41.6801L20.3986 44.833C20.3962 45.035 20.3491 45.234 20.2607 45.4157L19.8969 46.1629C19.2911 47.388 18.5103 48.1418 17.2583 48.7342C16.4372 49.1246 16.2352 49.165 15.0775 49.165C13.9198 49.165 13.7178 49.1246 12.8966 48.7342C11.6447 48.1418 10.8639 47.388 10.2581 46.1629L9.89437 45.4159C9.80588 45.2341 9.75878 45.035 9.75646 44.8328L9.71959 41.6128L9.6889 38.9219C9.68296 38.4016 9.97281 37.9229 10.4367 37.6871L11.2677 37.2645C12.1428 36.8203 12.9639 36.4568 13.0986 36.4568C13.2197 36.4433 14.9429 36.8472 16.9083 37.3318ZM16.9083 52.7728L17.0292 53.548C17.097 53.9826 16.9517 54.4233 16.6386 54.7322L16.1006 55.2633L16.051 55.3135C15.5154 55.8562 14.6396 55.8562 14.104 55.3135L14.0544 55.2633L13.5164 54.7322C13.2033 54.4233 13.058 53.9826 13.1257 53.548L13.2466 52.7728L13.2985 52.4618C13.4084 51.8023 13.979 51.3189 14.6477 51.3189H15.0775H15.5073C16.1759 51.3189 16.7466 51.8023 16.8565 52.4618L16.9083 52.7728ZM12.587 56.9056C14.4044 58.6961 14.6736 58.9249 15.0775 58.9249C15.4813 58.9249 15.7506 58.6961 17.5814 56.8787L18.9774 55.4918C19.3776 55.0943 19.9807 54.9832 20.4962 55.2119L23.8278 56.6902L27.1895 58.1867C27.6831 58.4064 28.001 58.8961 28.001 59.4363V60.8904V61.865C28.001 62.6204 27.3887 63.2328 26.6332 63.2328H15.0775H3.52173C2.76631 63.2328 2.15393 62.6204 2.15393 61.865V60.8904V59.436C2.15393 58.8959 2.47173 58.4064 2.96507 58.1866L6.23292 56.7306C8.16691 55.8568 9.83874 55.1242 10.306 54.9429C10.39 54.9103 10.4749 54.9158 10.5456 54.9717C10.8411 55.2057 11.6634 55.9821 12.587 56.9056Z" fill="#C77E3A"/>
<path d="M11.8467 41.6926C11.8467 42.2874 12.3289 42.7695 12.9236 42.7695C13.5184 42.7695 14.0006 42.2874 14.0006 41.6926C14.0006 41.0978 13.5184 40.6156 12.9236 40.6156C12.3289 40.6156 11.8467 41.0978 11.8467 41.6926Z" fill="#C77E3A"/>
<path d="M16.1553 41.6926C16.1553 42.2874 16.6374 42.7695 17.2322 42.7695C17.827 42.7695 18.3092 42.2874 18.3092 41.6926C18.3092 41.0978 17.827 40.6156 17.2322 40.6156C16.6374 40.6156 16.1553 41.0978 16.1553 41.6926Z" fill="#C77E3A"/>
<path d="M44.7614 27.8545C44.3979 27.9219 43.6036 28.218 42.9978 28.5007C40.9516 29.4835 39.3092 31.6239 38.9188 33.8048C38.7169 34.8952 38.7304 37.6953 38.9323 38.3819C39.2419 39.4184 40.7497 40.6166 41.7728 40.6166C41.9343 40.6166 41.9747 40.98 42.0286 42.9993C42.0824 45.1398 42.1228 45.4898 42.4324 46.2841C43.0517 47.9534 44.0613 49.2592 45.3941 50.1342C45.7979 50.4035 45.9056 50.5515 45.8518 50.7669C45.8114 50.9285 45.7441 51.3727 45.6902 51.7497C45.6095 52.3689 45.5691 52.4632 45.2998 52.4632C44.8556 52.4632 34.9744 56.8787 34.7052 57.2018C34.4898 57.4441 34.4629 57.848 34.4629 61.1058V64.0189C34.4629 64.7743 35.0753 65.3867 35.8307 65.3867H49.5404H63.2501C64.0055 65.3867 64.6179 64.7743 64.6179 64.0189V61.1058C64.6179 57.848 64.5909 57.4441 64.389 57.2018C64.1063 56.8787 54.2252 52.4632 53.7809 52.4632C53.5117 52.4632 53.4713 52.3689 53.3905 51.7497C53.3367 51.3727 53.2694 50.9285 53.229 50.7804C53.1751 50.5785 53.3501 50.3765 53.9828 49.9188C55.2617 48.9765 56.0829 47.8457 56.7156 46.136C56.958 45.4898 56.9983 44.9917 57.0522 42.3262L57.0961 39.8365C57.1025 39.474 57.2525 39.1288 57.5133 38.8769L57.9003 38.503C58.8426 37.6011 59.4215 36.7395 59.8792 35.5279C60.2023 34.6798 60.2292 34.4509 60.2831 31.5028L60.3284 28.8745C60.3339 28.5582 60.2106 28.2532 59.9869 28.0296C59.7715 27.8141 59.4791 27.6933 59.1744 27.6939L52.5424 27.7065C48.6384 27.7199 45.1383 27.7738 44.7614 27.8545ZM58.1292 32.0951C58.0888 34.3163 58.0753 34.3702 57.658 35.2317C57.0791 36.4164 56.8906 36.6318 56.581 36.4703C56.4464 36.4029 54.2925 35.8375 51.802 35.2183L47.7402 34.2088C47.4249 34.1305 47.0921 34.1669 46.8013 34.3115L44.8152 35.2991C43.469 35.9722 42.2978 36.6318 42.1901 36.7799C42.0824 36.928 42.0016 37.3587 42.0016 37.7491C42.0016 38.5838 41.7997 38.678 41.2343 38.1126C40.8977 37.7761 40.8977 37.7626 40.9516 35.8645C40.992 34.0605 41.0189 33.899 41.4228 33.0509C41.6516 32.5528 42.0959 31.8797 42.392 31.5566C42.9844 30.9104 44.2094 30.1969 45.0441 29.995C45.3402 29.9277 48.4096 29.8739 51.8828 29.8604L56.7791 29.8499C57.5484 29.8483 58.1678 30.4813 58.1494 31.2505L58.1292 32.0951ZM51.3712 37.3318L53.8936 37.9696C54.5066 38.1245 54.9334 38.6794 54.926 39.3117L54.8983 41.6801L54.8615 44.833C54.8591 45.035 54.812 45.234 54.7236 45.4157L54.3598 46.1629C53.754 47.388 52.9732 48.1418 51.7212 48.7342C50.9 49.1246 50.6981 49.165 49.5404 49.165C48.3826 49.165 48.1807 49.1246 47.3595 48.7342C46.1076 48.1418 45.3268 47.388 44.721 46.1629L44.3573 45.4159C44.2688 45.2341 44.2217 45.035 44.2194 44.8328L44.1825 41.6128L44.1518 38.9219C44.1459 38.4016 44.4357 37.9229 44.8996 37.6871L45.7306 37.2645C46.6057 36.8203 47.4268 36.4568 47.5615 36.4568C47.6826 36.4433 49.4058 36.8472 51.3712 37.3318ZM51.3712 52.7728L51.4921 53.548C51.5599 53.9826 51.4145 54.4233 51.1015 54.7322L50.5635 55.2633L50.5139 55.3135C49.9783 55.8562 49.1025 55.8562 48.5669 55.3135L48.5173 55.2633L47.9793 54.7322C47.6662 54.4233 47.5209 53.9826 47.5886 53.548L47.7095 52.7728L47.7614 52.4618C47.8713 51.8023 48.4419 51.3189 49.1106 51.3189H49.5404H49.9702C50.6388 51.3189 51.2095 51.8023 51.3194 52.4618L51.3712 52.7728ZM47.0499 56.9056C48.8673 58.6961 49.1365 58.9249 49.5404 58.9249C49.9442 58.9249 50.2135 58.6961 52.0443 56.8787L53.4403 55.4918C53.8405 55.0943 54.4436 54.9832 54.9591 55.2119L58.2907 56.6902L61.6524 58.1867C62.1459 58.4064 62.4639 58.8961 62.4639 59.4363V60.8904V61.865C62.4639 62.6204 61.8515 63.2328 61.0961 63.2328H49.5404H37.9846C37.2292 63.2328 36.6168 62.6204 36.6168 61.865V60.8904V59.436C36.6168 58.8959 36.9346 58.4064 37.428 58.1866L40.6958 56.7306C42.6298 55.8568 44.3016 55.1242 44.7689 54.9429C44.8529 54.9103 44.9378 54.9158 45.0084 54.9717C45.3039 55.2057 46.1263 55.9821 47.0499 56.9056Z" fill="#C77E3A"/>
<path d="M46.3096 41.6926C46.3096 42.2874 46.7917 42.7695 47.3865 42.7695C47.9813 42.7695 48.4635 42.2874 48.4635 41.6926C48.4635 41.0978 47.9813 40.6156 47.3865 40.6156C46.7917 40.6156 46.3096 41.0978 46.3096 41.6926Z" fill="#C77E3A"/>
<path d="M50.6182 41.6926C50.6182 42.2874 51.1003 42.7695 51.6951 42.7695C52.2899 42.7695 52.7721 42.2874 52.7721 41.6926C52.7721 41.0978 52.2899 40.6156 51.6951 40.6156C51.1003 40.6156 50.6182 41.0978 50.6182 41.6926Z" fill="#C77E3A"/>
<path d="M30.8958 39.6632C28.0957 40.269 26.036 42.1537 25.0937 44.9268C24.9052 45.4653 24.8379 46.0576 24.8379 47.0808C24.8379 49.2616 25.5245 50.9174 27.0322 52.4252C29.94 55.333 34.6786 55.3195 37.5999 52.3983C39.9154 50.0828 40.4673 46.7442 39.0403 43.7691C37.8422 41.2786 35.446 39.717 32.6459 39.6093C31.9862 39.5824 31.192 39.6093 30.8958 39.6632ZM34.5171 42.2075C35.7421 42.7729 36.5229 43.5537 37.1287 44.7653C37.5999 45.7346 37.6268 45.8557 37.6268 47.0808C37.6268 48.3058 37.5999 48.427 37.1287 49.3962C36.5229 50.6213 35.7421 51.3752 34.4902 51.9675C33.669 52.3579 33.4671 52.3983 32.3093 52.3983C31.1516 52.3983 30.9497 52.3579 30.1285 51.9675C28.8765 51.3752 28.0957 50.6213 27.4899 49.3962C27.0187 48.427 26.9918 48.3058 26.9918 47.0942C26.9918 45.923 27.0322 45.7211 27.4226 44.8999C27.9611 43.7556 28.7284 42.921 29.7381 42.396C30.7881 41.8306 31.3804 41.6959 32.6055 41.7498C33.4267 41.7902 33.844 41.8979 34.5171 42.2075Z" fill="#C77E3A"/>
<path d="M31.2321 44.9238C31.2321 45.5186 30.7499 46.0007 30.1551 46.0007C29.5603 46.0007 29.0781 46.4829 29.0781 47.0777C29.0781 47.6725 29.5603 48.1547 30.1551 48.1547C30.7499 48.1547 31.2321 48.6368 31.2321 49.2316C31.2321 49.8264 31.7142 50.3086 32.309 50.3086C32.9038 50.3086 33.386 49.8264 33.386 49.2316C33.386 48.6368 33.8682 48.1547 34.4629 48.1547C35.0577 48.1547 35.5399 47.6725 35.5399 47.0777C35.5399 46.4829 35.0577 46.0007 34.4629 46.0007C33.8682 46.0007 33.386 45.5186 33.386 44.9238C33.386 44.329 32.9038 43.8468 32.309 43.8468C31.7142 43.8468 31.2321 44.329 31.2321 44.9238Z" fill="#C77E3A"/>
</svg>
