<svg width="66" height="66" viewBox="0 0 66 66" fill="none" xmlns="http://www.w3.org/2000/svg">
<path d="M22.9977 4.31485C22.181 4.51242 20.9825 5.2105 20.4029 5.84272C19.5336 6.77788 19.0726 7.92379 18.9936 9.31994L18.9883 9.41384C18.9554 9.99935 19.4213 10.4922 20.0078 10.4922H20.3371C20.7444 10.4922 21.0747 10.162 21.0747 9.7546C21.0747 9.34629 21.1405 8.76675 21.2327 8.46381C21.4435 7.73939 22.5367 6.64617 23.2611 6.43543C23.6694 6.31689 25.9349 6.27738 31.9278 6.27738H38.9876C39.5695 6.27738 40.0413 5.80562 40.0413 5.22367C40.0413 4.642 39.5693 4.17072 38.9876 4.17165L31.7829 4.18314C27.2256 4.19631 23.2874 4.249 22.9977 4.31485Z" fill="#C77E3A"/>
<path d="M15.6738 13.8756C15.4367 14.5868 15.1865 15.2322 15.0943 15.3112C15.0153 15.3903 14.5674 15.5878 14.0933 15.7591C13.6191 15.9171 12.7893 16.2596 12.2493 16.5098L12.1202 16.5684C11.5764 16.8149 10.9509 16.8055 10.4147 16.5429L9.97066 16.3254C9.20581 15.9548 8.29015 16.1093 7.68918 16.7103L5.90074 18.4987L4.1123 20.2871C3.51132 20.8881 3.35687 21.8038 3.72747 22.5686L3.94251 23.0077C4.20654 23.5467 4.2145 24.1759 3.96418 24.7214L3.84602 24.979C3.56942 25.598 3.22697 26.4278 3.09525 26.823C3.00838 27.1125 2.89322 27.4021 2.8016 27.5672C2.75192 27.6568 2.67544 27.7282 2.58404 27.7744C2.34728 27.8941 1.83504 28.087 1.29079 28.2718C0.520885 28.5232 0 29.2412 0 30.0511V32.6183V35.1855C0 35.9954 0.520885 36.7134 1.29079 36.9648C1.83504 37.1497 2.34728 37.3425 2.58404 37.4622C2.67544 37.5084 2.75192 37.5798 2.8016 37.6694C2.89322 37.8345 3.00838 38.1241 3.09525 38.4137C3.22697 38.8088 3.56942 39.6386 3.84602 40.2577L3.96418 40.5152C4.2145 41.0608 4.20654 41.6899 3.94251 42.229L3.72747 42.668C3.35687 43.4329 3.51132 44.3485 4.1123 44.9495L5.90074 46.7379L7.68918 48.5264C8.29016 49.1274 9.20581 49.2818 9.97066 48.9112L10.4147 48.6937C10.9509 48.4311 11.5764 48.4218 12.1202 48.6683L12.2493 48.7268C12.7893 48.9771 13.6191 49.3195 14.0933 49.4776C14.5674 49.6488 15.0153 49.8464 15.0943 49.9254C15.1865 50.0044 15.4367 50.6498 15.6738 51.3479C15.9252 52.1178 16.6433 52.6387 17.4532 52.6387H20.0204H22.5875C23.3974 52.6387 24.1155 52.1178 24.3669 51.3479C24.5517 50.8036 24.7446 50.2914 24.8643 50.0546C24.9105 49.9632 24.9819 49.8868 25.0714 49.8371C25.2366 49.7455 25.5262 49.6303 25.8157 49.5434C26.2109 49.4117 27.0407 49.0693 27.6597 48.7927L27.9172 48.6745C28.4628 48.4242 29.0919 48.4321 29.631 48.6962L30.07 48.9112C30.8349 49.2818 31.7506 49.1274 32.3515 48.5264L34.14 46.7379L35.9284 44.9495C36.5294 44.3485 36.6838 43.4329 36.3132 42.668L36.0958 42.224C35.8331 41.6878 35.8238 41.0623 36.0703 40.5185L36.1288 40.3894C36.3791 39.8494 36.7215 39.0196 36.8796 38.5454C37.0508 38.0712 37.2484 37.6234 37.3274 37.5444C37.4065 37.4522 38.0518 37.2019 38.7631 36.9648C39.5256 36.7133 40.0407 36.0009 40.0407 35.198V32.6183V30.0386C40.0407 29.2357 39.5256 28.5233 38.7631 28.2718C38.0518 28.0347 37.4065 27.7845 37.3274 27.6923C37.2484 27.6132 37.0508 27.1654 36.8796 26.6912C36.7215 26.2171 36.3791 25.3873 36.1288 24.8473L36.0703 24.7182C35.8238 24.1744 35.8331 23.5489 36.0958 23.0127L36.3132 22.5686C36.6838 21.8038 36.5294 20.8881 35.9284 20.2871L34.14 18.4987L32.3515 16.7103C31.7506 16.1093 30.8349 15.9548 30.07 16.3254L29.631 16.5405C29.0919 16.8045 28.4628 16.8125 27.9172 16.5621L27.6597 16.444C27.0407 16.1674 26.2109 15.8249 25.8157 15.6932C25.5262 15.6063 25.2366 15.4912 25.0714 15.3996C24.9819 15.3499 24.9105 15.2734 24.8643 15.182C24.7446 14.9448 24.5517 14.4302 24.3669 13.8756C24.1153 13.1131 23.403 12.598 22.6001 12.598H20.0204H17.4407C16.6377 12.598 15.9254 13.1131 15.6738 13.8756ZM22.839 15.9435C23.1815 16.9181 23.3 17.1421 23.5766 17.2211C25.2889 17.7216 25.9474 17.9718 27.2382 18.6172L27.8453 18.9208C28.4084 19.2023 29.0711 19.2023 29.6342 18.9208L29.8725 18.8016C30.5399 18.464 31.3489 18.5949 31.8758 19.1259L32.6911 19.9475L33.5128 20.7629C34.0437 21.2897 34.1747 22.0987 33.837 22.7662L33.7179 23.0045C33.4364 23.5676 33.4364 24.2303 33.7179 24.7934L34.0214 25.4005C34.6668 26.6912 34.9171 27.3498 35.4176 29.0621C35.4966 29.3387 35.7205 29.4572 36.6952 29.7997C37.3971 30.0441 37.8674 30.706 37.8674 31.4493V32.6183V33.7873C37.8674 34.5306 37.3971 35.1925 36.6952 35.437C35.7205 35.7794 35.4966 35.898 35.4176 36.1746C34.9171 37.8868 34.6668 38.5454 34.0214 39.8362L33.7179 40.4433C33.4364 41.0063 33.4364 41.6691 33.7179 42.2321L33.837 42.4704C34.1747 43.1379 34.0437 43.9469 33.5128 44.4737L32.6911 45.2891L31.8758 46.1108C31.3489 46.6417 30.5399 46.7726 29.8725 46.435L29.6342 46.3158C29.0711 46.0343 28.4084 46.0343 27.8453 46.3158L27.2382 46.6194C25.9474 47.2648 25.2889 47.515 23.5766 48.0156C23.3 48.0946 23.1815 48.3185 22.839 49.2932C22.5945 49.9951 21.9327 50.4654 21.1894 50.4654H20.0204H18.8513C18.1081 50.4654 17.4462 49.9951 17.2017 49.2932C16.8592 48.3185 16.7407 48.0946 16.4641 48.0156C14.7518 47.515 14.0933 47.2648 12.8025 46.6194L12.1954 46.3158C11.6323 46.0343 10.9696 46.0343 10.4065 46.3158L10.1682 46.435C9.50079 46.7726 8.69179 46.6417 8.16492 46.1108L7.34958 45.2891L6.52791 44.4737C5.99696 43.9469 5.86603 43.1379 6.20368 42.4704L6.32283 42.2321C6.60435 41.6691 6.60436 41.0063 6.32283 40.4433L6.01928 39.8362C5.37388 38.5454 5.12363 37.8868 4.62312 36.1746C4.54409 35.898 4.32018 35.7794 3.34551 35.437C2.6436 35.1925 2.17326 34.5306 2.17326 33.7873V32.6183V31.4493C2.17326 30.706 2.6436 30.0441 3.34551 29.7997C4.32018 29.4572 4.54409 29.3387 4.62312 29.0621C5.12363 27.3498 5.37388 26.6912 6.01928 25.4005L6.32283 24.7934C6.60435 24.2303 6.60436 23.5676 6.32283 23.0045L6.20368 22.7662C5.86603 22.0987 5.99696 21.2897 6.52791 20.7629L7.34958 19.9475L8.16492 19.1259C8.69179 18.5949 9.50079 18.464 10.1682 18.8016L10.4065 18.9208C10.9696 19.2023 11.6323 19.2023 12.1954 18.9208L12.8025 18.6172C14.0933 17.9718 14.7387 17.7348 16.4641 17.2211C16.7275 17.1421 16.8592 16.9313 17.149 16.141C17.3334 15.601 17.5178 15.061 17.5573 14.9293C17.6232 14.7185 17.8208 14.7054 20.0335 14.7317L21.1896 14.7508C21.9351 14.7631 22.5937 15.2393 22.839 15.9435Z" fill="#C77E3A"/>
<path d="M17.9785 19.0533C16.2004 19.3299 13.7506 20.3045 12.2622 21.3319C11.3534 21.951 9.52257 23.7554 8.89035 24.6511C5.93998 28.8 5.5185 34.1871 7.79713 38.7312C8.49521 40.1405 8.95621 40.7859 10.1285 42.0108C11.788 43.7494 13.5135 44.8558 15.7394 45.6198C19.7303 46.9764 24.472 46.2651 27.9887 43.7494C28.8844 43.1172 30.6888 41.2732 31.2947 40.3908C32.3616 38.8365 33.2177 36.7028 33.5207 34.793C34.6666 27.799 30.2147 21.0948 23.2471 19.3035C22.0353 19.0006 19.2298 18.8689 17.9785 19.0533ZM20.6391 21.4504C21.1528 21.9905 21.7455 23.1891 22.1012 24.3481L22.3646 25.2438H20.0201H17.6756L17.939 24.3481C18.4527 22.649 19.4669 21.029 20.0201 21.029C20.1386 21.029 20.4152 21.2265 20.6391 21.4504ZM16.6482 21.7797C16.5956 21.9114 16.3058 22.7412 16.016 23.6237L15.476 25.2438H13.3422C12.1568 25.2438 11.1953 25.1911 11.1953 25.1384C11.1953 24.9935 12.17 24.0715 13.0261 23.413C13.8296 22.7939 14.7121 22.2934 15.8053 21.8588C16.7009 21.5031 16.78 21.49 16.6482 21.7797ZM24.1954 21.8456C25.5389 22.3461 26.474 22.9125 27.7648 24.032C29.1873 25.2701 29.2005 25.2438 26.7111 25.2438H24.5642L24.0242 23.6237C23.7344 22.7412 23.4446 21.9114 23.3919 21.7797C23.2602 21.49 23.2734 21.5031 24.1954 21.8456ZM15.094 27.7068C15.015 28.1151 14.7516 30.8021 14.7516 31.2631V31.566H11.6168H8.46887L8.58741 30.8021C8.71912 29.8932 8.86401 29.4059 9.325 28.2468L9.68063 27.3512H12.4203H15.1731L15.094 27.7068ZM22.8387 27.7068C22.9178 28.1151 23.1812 30.8021 23.1812 31.2631V31.566H20.0201C17.0961 31.566 16.859 31.5528 16.859 31.3289C16.859 30.8679 17.1224 28.0624 17.2014 27.7068L17.2805 27.3512H20.0201H22.7597L22.8387 27.7068ZM30.7152 28.2468C31.1762 29.4059 31.3211 29.8932 31.4528 30.8021L31.5713 31.566H28.4234H25.2886V31.2631C25.2886 30.8021 25.0252 28.1151 24.9461 27.7068L24.8671 27.3512H27.6199H30.3595L30.7152 28.2468ZM14.7516 33.9632C14.7516 34.4373 15.015 37.1243 15.094 37.5194L15.1731 37.8882H12.4203H9.68063L9.325 36.9926C8.86401 35.8335 8.71912 35.3461 8.58741 34.4242L8.46887 33.6734H11.6168H14.7516V33.9632ZM23.1812 33.8973C23.1812 34.2793 22.9309 36.9926 22.8519 37.4536L22.7729 37.8882H20.0201H17.2805L17.2014 37.5194C17.1224 37.1243 16.859 34.4373 16.859 33.9632V33.6734H20.0201C22.9441 33.6734 23.1812 33.6866 23.1812 33.8973ZM31.4528 34.4768C31.3342 35.1881 31.0049 36.2945 30.5439 37.4536L30.3727 37.8882H27.6199H24.8671L24.9461 37.5194C25.0252 37.177 25.2886 34.3715 25.2886 33.8973C25.2886 33.6866 25.5257 33.6734 28.4234 33.6734H31.5713L31.4528 34.4768ZM15.7921 41.023C15.9502 41.5762 16.2268 42.3928 16.398 42.8274C16.5824 43.2489 16.7009 43.6177 16.6746 43.6441C16.5956 43.7363 15.1467 43.1304 14.3037 42.6694C13.3949 42.1689 11.6695 40.7727 11.3534 40.2854L11.169 39.9956H13.3291H15.4892L15.7921 41.023ZM22.1012 40.8781C21.5875 42.5904 20.5733 44.2104 20.0201 44.2104C19.4669 44.2104 18.4527 42.5904 17.939 40.8781L17.6756 39.9956H20.0201H22.3646L22.1012 40.8781ZM28.6868 40.2854C28.3707 40.7727 26.6452 42.1689 25.7364 42.6694C24.8935 43.1304 23.4446 43.7363 23.3656 43.6441C23.3393 43.6177 23.4578 43.2489 23.6422 42.8274C23.8134 42.3928 24.09 41.5762 24.2481 41.023L24.551 39.9956H26.7111H28.8712L28.6868 40.2854Z" fill="#C77E3A"/>
<path d="M18.9931 56.4467C19.0458 58.08 19.059 58.1722 19.5331 59.1205C20.1127 60.3191 20.8766 61.0567 22.1015 61.6362L22.5795 61.8645C22.8459 61.9917 23.1371 62.0584 23.4322 62.0598L31.519 62.0972L38.974 62.1318C39.5624 62.1345 40.0408 61.6583 40.0408 61.0698C40.0408 60.4879 39.5691 60.0161 38.9871 60.0161H31.9273C25.9344 60.0161 23.6689 59.9766 23.2606 59.8581C22.5362 59.6473 21.443 58.5541 21.2322 57.8297C21.14 57.5268 21.0742 56.7101 21.0742 56.0121V55.8145C21.0742 55.2253 20.5965 54.7476 20.0073 54.7476C19.4235 54.7476 18.9554 55.2305 18.9735 55.814L18.9931 56.4467Z" fill="#C77E3A"/>
<path d="M51.4464 0.0872803C50.6166 0.298019 49.4312 1.00927 48.8516 1.62832C48.5619 1.94443 48.1272 2.603 47.9033 3.09034C47.5213 3.89378 47.4818 4.09135 47.4818 5.22408C47.4818 6.3173 47.5345 6.58073 47.8506 7.26563C48.0482 7.68711 48.3643 8.22714 48.5355 8.46422C48.7036 8.68827 48.6378 9.00884 48.3951 9.14858L47.9823 9.38621C45.6247 10.7692 44.2549 13.1927 44.2549 15.985C44.2549 16.444 44.6257 16.8167 45.0846 16.8191L46.7969 16.828C48.1799 16.8412 49.2073 16.8675 49.0624 16.8938C47.6399 17.1968 46.4808 17.6973 45.4798 18.4349C42.9246 20.3184 41.7128 23.4531 42.3318 26.5352C42.5294 27.5362 42.5294 27.668 42.3318 28.366C41.9499 29.67 42.3055 31.1847 43.2538 32.3174C43.7148 32.8574 44.9793 33.5028 45.8091 33.6214C46.1779 33.6609 46.494 33.7794 46.494 33.8585C46.494 33.9375 46.6652 34.3721 46.8759 34.8068C47.2447 35.5839 48.1404 36.6508 48.6541 36.9274C48.8648 37.0459 48.878 37.1381 48.7858 37.5596C48.7128 37.8677 48.4761 38.1107 48.17 38.1917L47.3238 38.4157C45.3086 38.9426 44.1495 39.5748 42.7928 40.9183C41.8313 41.8666 41.5679 42.2354 41.0542 43.2891C40.3693 44.6853 40.04 46.0682 40.04 47.5039C40.04 48.0134 40.4525 48.4268 40.962 48.4279L46.0066 48.4391C49.9053 48.4523 51.7888 48.4918 51.4464 48.5708C50.6298 48.7684 49.4312 49.4664 48.8516 50.0987C48.5619 50.4148 48.1272 51.0733 47.9033 51.5607C47.5213 52.3641 47.4818 52.5617 47.4818 53.6944C47.4818 54.7876 47.5345 55.0511 47.8506 55.736C48.0482 56.1575 48.3643 56.6975 48.5355 56.9346C48.7036 57.1586 48.6378 57.4792 48.395 57.6189L47.9823 57.8565C45.6247 59.2395 44.2549 61.6631 44.2549 64.4554C44.2549 64.9136 44.6264 65.2852 45.0846 65.2852H52.6976H59.8604C60.5615 65.2852 61.1174 64.6941 61.0746 63.9944C60.9956 62.6246 60.6663 61.4787 60.0209 60.3723C59.5204 59.5161 58.2032 58.278 57.2944 57.7907L56.9853 57.6258C56.7328 57.4912 56.6606 57.1626 56.8334 56.9346C57.0047 56.7106 57.3208 56.1575 57.5183 55.736C57.8344 55.0511 57.8871 54.7876 57.8871 53.6944C57.8871 52.5617 57.8476 52.3641 57.4657 51.5607C57.2417 51.0733 56.8071 50.4148 56.5173 50.0987C55.9378 49.4664 54.7392 48.7684 53.9226 48.5708C53.5801 48.4918 55.4636 48.4523 59.3755 48.4391L64.4069 48.4279C64.9165 48.4268 65.3289 48.0134 65.3289 47.5039C65.3289 46.0682 64.9996 44.6853 64.3147 43.2891C63.801 42.2354 63.5376 41.8666 62.5761 40.9183C61.2326 39.5748 60.1263 38.9689 58.0847 38.4289C56.7544 38.0733 56.7017 38.0469 56.5963 37.6386C56.5041 37.2435 56.5437 37.1645 57.2813 36.4532C58.0057 35.7551 58.875 34.3326 58.875 33.8585C58.875 33.7794 59.1911 33.6609 59.5599 33.6214C60.3897 33.5028 61.6541 32.8574 62.1151 32.3174C63.0634 31.1847 63.4191 29.67 63.0371 28.366C62.8395 27.668 62.8395 27.5231 63.0239 26.6274C63.2874 25.3235 63.2742 24.3093 62.9581 23.0844C62.1546 19.9364 59.8101 17.6841 56.57 16.9597C56.188 16.8807 56.7544 16.8412 58.5984 16.828L59.8604 16.8215C60.5626 16.8179 61.1175 16.2249 61.0746 15.524C60.9956 14.1542 60.6663 13.0083 60.0209 11.9019C59.5204 11.0458 58.2032 9.80769 57.2944 9.32035L56.9853 9.15548C56.7328 9.02083 56.6606 8.6923 56.8334 8.46422C57.0047 8.24031 57.3208 7.68711 57.5183 7.26563C57.8344 6.58073 57.8871 6.3173 57.8871 5.21091C57.8871 4.02549 57.8608 3.90695 57.3998 2.95862C56.5041 1.16733 54.9236 0.100449 52.9742 0.00824738C52.421 -0.0180893 51.7361 0.0214233 51.4464 0.0872803ZM53.6592 2.22103C54.7919 2.56348 55.8456 4.01232 55.8456 5.22408C55.8456 6.85732 54.3177 8.38519 52.6845 8.38519C51.8547 8.38519 51.1829 8.08226 50.5112 7.39735C49.1677 6.06705 49.1677 4.38112 50.5112 3.05082C51.4332 2.11566 52.421 1.8654 53.6592 2.22103ZM55.8719 10.9799C57.0573 11.5331 57.8476 12.2971 58.414 13.4298C58.6642 13.9303 58.875 14.4308 58.875 14.523C58.875 14.6811 57.8344 14.7074 52.6845 14.7074C47.5345 14.7074 46.494 14.6811 46.494 14.523C46.494 14.1015 47.4555 12.4683 47.9955 11.9678C48.6277 11.3751 49.6419 10.8219 50.4058 10.6243C50.6824 10.5585 51.8283 10.5189 52.9479 10.5321C54.9368 10.5585 55.0158 10.5716 55.8719 10.9799ZM56.2539 19.0539C57.2944 19.2515 58.3086 19.7915 59.1779 20.6213C60.0999 21.4906 60.6399 22.4126 60.9165 23.5453C61.1009 24.3751 61.18 25.5342 61.0482 25.6659C61.0087 25.7054 60.6663 25.6264 60.2843 25.4947C59.8101 25.3235 59.2043 25.2576 58.3481 25.2444C56.2276 25.2444 54.8841 24.7439 53.4879 23.4531L53.4604 23.4274C53.0255 23.0211 52.3487 23.0266 51.9205 23.44C50.5771 24.7044 49.1414 25.2444 47.0208 25.2444C46.1647 25.2576 45.5588 25.3235 45.0846 25.4947C44.7027 25.6264 44.3602 25.7054 44.3207 25.6659C44.189 25.5342 44.268 24.3751 44.4524 23.5453C44.9529 21.4643 46.7574 19.6335 48.7989 19.133C49.7473 18.909 55.1607 18.8432 56.2539 19.0539ZM53.3167 26.0347C54.2519 26.6011 55.0948 26.9567 56.0168 27.1411C56.4942 27.2412 56.8383 27.6589 56.8451 28.1466L56.8729 30.131C56.9125 33.5424 56.8466 33.8716 55.9246 34.7936C55.0816 35.6366 54.5943 35.7815 52.6845 35.7815C50.7746 35.7815 50.2873 35.6366 49.4443 34.7936C48.5223 33.8716 48.4565 33.5424 48.496 30.131L48.5235 28.1724C48.5305 27.6704 48.8864 27.2411 49.3785 27.1411C50.2083 26.9699 51.8283 26.2718 52.3552 25.8503C52.6845 25.6001 52.5791 25.5737 53.3167 26.0347ZM46.3623 29.4593C46.3623 31.7906 46.3754 31.7379 45.5325 31.3823C43.8861 30.6974 43.8729 28.2475 45.5061 27.5362C46.3754 27.1543 46.3623 27.1279 46.3623 29.4593ZM60.1789 27.7206C60.8243 28.1948 61.0482 28.6426 61.0482 29.4593C61.0482 30.0388 60.9824 30.3286 60.7716 30.592C60.4028 31.1057 59.9419 31.4218 59.4413 31.514C59.215 31.5551 59.0067 31.3813 59.0067 31.1512V29.4593V27.7567C59.0067 27.5278 59.2175 27.357 59.4413 27.4045C59.6653 27.444 60.0077 27.5889 60.1789 27.7206ZM54.5943 38.2445C54.6602 38.5474 54.5548 38.7055 53.6855 39.588C53.1326 40.1408 52.2363 40.1408 51.6835 39.588C50.8142 38.7055 50.7088 38.5474 50.7746 38.2445C50.8289 38.0351 51.0179 37.8889 51.2342 37.8889H52.6845H54.1347C54.3511 37.8889 54.54 38.0351 54.5943 38.2445ZM48.0218 42.894C48.1799 44.1584 48.3511 45.4492 48.3906 45.7521C48.4324 46.0514 48.2 46.3185 47.8978 46.3185H45.3744C41.8445 46.3185 42.0816 46.4239 42.5294 45.0936C43.2011 43.1311 44.6105 41.6559 46.5862 40.8392C47.0077 40.668 47.4423 40.5363 47.5477 40.5626C47.6926 40.589 47.8111 41.1158 48.0218 42.894ZM59.1384 40.9973C60.7585 41.7349 62.1151 43.1969 62.7605 44.9223C63.3269 46.437 63.564 46.3185 59.9814 46.3185H57.2501C57.056 46.3185 56.9113 46.1395 56.952 45.9497C56.9915 45.7521 57.1495 44.5272 57.2944 43.2232C57.4525 41.9193 57.6105 40.7734 57.6369 40.668C57.7027 40.4573 58.1374 40.5495 59.1384 40.9973ZM50.7615 42.9071L50.5944 43.1341C50.4683 43.3056 50.1975 43.2366 50.1688 43.0257C50.1161 42.6964 50.037 42.0773 49.9975 41.6427C49.9671 41.3822 50.2825 41.2296 50.4679 41.415L50.5902 41.5373L50.6564 41.6022C51.0114 41.9504 51.0562 42.5066 50.7615 42.9071ZM55.2792 42.3013L55.2255 42.7448C55.188 43.0538 54.7919 43.1578 54.6075 42.9071C54.312 42.5132 54.3483 41.9625 54.693 41.6108L54.7392 41.5637C54.798 41.5049 54.8556 41.4481 54.9108 41.3943C55.2209 41.0925 55.4052 41.1916 55.3595 41.6219C55.3382 41.8228 55.311 42.0557 55.2792 42.3013ZM53.646 45.1331C54.0105 45.6227 53.661 46.3185 53.0506 46.3185H52.6845H52.3183C51.7079 46.3185 51.3585 45.6227 51.723 45.1331C52.2103 44.4745 52.645 43.9477 52.6845 43.9477C52.724 43.9477 53.1586 44.4745 53.646 45.1331ZM53.6592 50.6914C54.7919 51.0338 55.8456 52.4827 55.8456 53.6944C55.8456 55.3277 54.3177 56.8555 52.6845 56.8555C51.0512 56.8555 49.5234 55.3277 49.5234 53.6944C49.5234 52.8646 49.8263 52.1929 50.5112 51.5212C51.4332 50.586 52.421 50.3357 53.6592 50.6914ZM55.8719 59.4503C57.0573 60.0035 57.8476 60.7674 58.414 61.9001C58.6642 62.4006 58.875 62.9012 58.875 62.9934C58.875 63.1514 57.8344 63.1778 52.6845 63.1778C47.5345 63.1778 46.494 63.1514 46.494 62.9934C46.494 62.5719 47.4555 60.9386 47.9955 60.4381C48.6277 59.8454 49.6419 59.2922 50.4058 59.0947C50.6824 59.0288 51.8283 58.9893 52.9479 59.0025C54.9368 59.0288 55.0158 59.042 55.8719 59.4503Z" fill="#C77E3A"/>
</svg>
