<svg width="502" height="267" viewBox="0 0 502 267" fill="none" xmlns="http://www.w3.org/2000/svg">
<path d="M300.264 -161.183C300.336 -161.274 300.392 -161.338 300.433 -161.38C300.496 -161.386 300.596 -161.388 300.728 -161.37C300.861 -161.351 300.956 -161.321 301.015 -161.298C301.042 -161.245 301.079 -161.168 301.122 -161.061L453.69 218.186C453.733 218.293 453.76 218.375 453.776 218.431C453.75 218.489 453.702 218.576 453.62 218.681C453.537 218.787 453.464 218.854 453.414 218.893C453.355 218.891 453.27 218.884 453.156 218.868L48.7222 161.26C48.608 161.243 48.5243 161.226 48.4668 161.212C48.4302 161.16 48.3785 161.075 48.3285 160.951C48.2786 160.827 48.257 160.73 48.2475 160.667C48.2792 160.617 48.3275 160.547 48.3986 160.456L300.264 -161.183Z" stroke="#50579B" stroke-width="95"/>
</svg>
