<svg width="150" height="150" viewBox="0 0 150 150" fill="none" xmlns="http://www.w3.org/2000/svg">
<path d="M109.711 40.0315C116.238 34.3486 115.114 23.9048 107.528 19.739L101.745 16.5617L101.735 16.5695C100.599 15.7827 99.07 15.7671 97.3763 16.745L30.3206 55.1675C26.8237 57.1881 23.9873 62.6068 23.9873 67.271V116.76C23.9873 119.217 24.7852 120.945 26.0414 121.766L26.0369 121.786L47.7293 133.726L58.2815 114.929L68.9248 99.4289L97.3763 83.1256C100.875 81.1061 103.712 75.6864 103.712 71.0222V48.7683L109.711 40.0315Z" fill="#C77E3A"/>
<path d="M51.7691 111.444C48.2699 113.462 45.433 111.32 45.433 106.653V94.7785C45.433 94.6539 45.4329 94.5298 45.4313 94.4058C45.3189 85.8143 40.4988 77.9773 33.0177 73.7506L23.9932 69.0254V116.76C23.9932 119.217 24.7917 120.945 26.0473 121.765L26.0456 121.785L47.7357 133.726L58.288 114.929L66.4648 103.022L51.7691 111.444V111.444Z" fill="#1F1B23"/>
<path d="M26.769 121.059L47.3494 132.388L57.4227 114.446L68.4343 98.5731L96.8863 82.2709C100.05 80.4431 102.727 75.2927 102.727 71.0202V48.4589L109.065 39.2886C111.929 36.793 113.339 33.1955 112.933 29.4181C112.526 25.6434 110.384 22.4281 107.056 20.6009L101.848 17.7382L101.787 17.7873L101.176 17.3778C100.076 16.6167 98.7706 17.076 97.8698 17.5962L30.8125 56.0188C27.6486 57.8483 24.9714 63.0015 24.9714 67.269V116.758C24.9714 118.747 25.557 120.271 26.5801 120.937L26.769 121.059V121.059ZM48.4552 134.447C48.2641 134.784 47.8383 134.906 47.4974 134.719L24.9988 122.337L25.0088 122.217C23.7096 121.087 23 119.176 23 116.758V67.269C23 62.2164 26.0001 56.5234 29.8284 54.3123L96.8863 15.8874C98.7885 14.7872 100.645 14.7106 102.143 15.6544L102.221 15.6941L107.577 18.6372C111.348 20.7092 114.161 24.3286 114.809 28.5827C115.513 33.1916 113.904 37.6306 110.455 40.69L104.698 49.0719V71.0202C104.698 76.0772 101.698 81.7702 97.8698 83.978L69.6111 100.172L59.0946 115.487L48.4552 134.447V134.447Z" fill="#1F1B23"/>
<path d="M115.073 96.8199L51.7643 133.328C48.2651 135.349 45.4287 133.204 45.4287 128.54V79.0526C45.4287 74.3867 48.2651 68.9675 51.7643 66.9469L115.073 30.4382C118.571 28.4176 121.408 30.5622 121.408 35.227V84.7154C121.408 89.3796 118.571 94.8005 115.073 96.8199Z" fill="#C77E3A"/>
<path d="M117.582 30.6575C116.849 30.6575 116.122 30.9648 115.564 31.2861L52.2556 67.7987C49.0324 69.6556 46.4128 74.7037 46.4128 79.0489V128.536C46.4128 130.628 47.0314 132.183 48.1098 132.806C49.1805 133.423 50.4205 132.964 51.2699 132.473L114.578 95.9618V95.9647C117.744 94.1352 120.419 88.9842 120.419 84.7117V35.2233C120.419 33.1335 119.802 31.5778 118.724 30.9531C118.357 30.7424 117.967 30.6575 117.582 30.6575V30.6575ZM49.2431 135.073C48.4865 135.073 47.7707 134.887 47.1242 134.514C45.4193 133.528 44.4414 131.351 44.4414 128.536V79.0489C44.4414 73.9907 47.4416 68.2994 51.2699 66.0916L114.578 29.579C116.419 28.5167 118.241 28.3966 119.709 29.246C121.412 30.2317 122.39 32.4098 122.39 35.2233V84.7117C122.39 89.7687 119.392 95.4618 115.564 97.6695V97.6718L52.2556 134.182C51.2263 134.773 50.2014 135.073 49.2431 135.073Z" fill="#1F1B23"/>
<path d="M112.837 22.9269L104.591 18.123L102.477 16.9618L101.738 16.5695C100.603 15.7827 99.0731 15.7671 97.3794 16.745L30.3238 55.1675C28.8257 56.0325 27.4499 57.5212 26.3659 59.3071C25.5416 60.6632 26.0501 62.4436 27.432 63.2242L33.0127 66.3758C40.496 70.6025 45.3156 78.4401 45.4279 87.0333C45.4302 87.1556 45.4302 87.2791 45.4302 87.4043V99.2814C45.4302 103.945 48.2666 106.09 51.7658 104.069L118.821 65.6466C122.318 63.626 125.155 58.2074 125.155 53.5409V41.8158C124.455 33.9267 119.801 26.8613 112.837 22.9269V22.9269Z" fill="#C77E3A"/>
<path d="M56.2068 80.6951L117.407 45.3046C121.395 42.9979 122.55 37.5933 119.584 34.0668C117.713 31.845 115.437 29.9406 112.836 28.4721L104.59 23.666L102.477 22.5065L101.738 22.1125C100.602 21.3257 99.0728 21.3101 97.3791 22.288L30.3257 60.7105C28.8393 61.5699 27.4731 63.0407 26.3929 64.8065C25.5553 66.1788 26.0342 67.9782 27.434 68.7689L33.0146 71.921C35.6717 73.4214 37.984 75.3805 39.8666 77.6676C43.8703 82.5263 50.7563 83.8456 56.2068 80.6951V80.6951Z" fill="#DC9D62"/>
<path d="M99.8354 16.9865C99.1085 16.9865 98.4144 17.2804 97.8702 17.5955L30.8129 56.0181C29.5198 56.7658 28.2402 58.1153 27.207 59.8174C26.9566 60.227 26.8896 60.7136 27.0142 61.1908C27.1422 61.6837 27.4713 62.1134 27.9166 62.3637L33.4978 65.5159C41.3472 69.9533 46.2953 78.191 46.4099 87.0171L46.4138 87.4016V99.2787C46.4138 101.367 47.0323 102.923 48.1108 103.548C49.1815 104.163 50.4215 103.705 51.2708 103.215L118.328 64.7884C121.493 62.9628 124.169 57.8079 124.169 53.5382V41.8114C123.503 34.3599 119.084 27.5862 112.35 23.7836L112.338 23.7758L101.273 17.4363C100.799 17.1127 100.311 16.9865 99.8354 16.9865V16.9865ZM49.2463 105.813C48.4891 105.813 47.7739 105.628 47.1251 105.256C45.4202 104.27 44.4424 102.091 44.4424 99.2787L44.4384 87.0439C44.3339 78.9146 39.7681 71.3251 32.5256 67.2325L26.9449 64.0809C26.038 63.5663 25.3702 62.6974 25.1059 61.6876C24.8455 60.6902 24.9936 59.6631 25.5216 58.7914C26.7398 56.787 28.2301 55.238 29.8288 54.3116L96.8867 15.8867C98.8542 14.7529 100.78 14.7038 102.296 15.7543L105.062 17.2547L113.325 22.0687C120.619 26.1926 125.409 33.5413 126.137 41.7242L126.141 53.5382C126.141 58.5942 123.14 64.2882 119.312 66.4971L52.2543 104.922C51.2272 105.516 50.2024 105.813 49.2463 105.813V105.813Z" fill="#1F1B23"/>
<path d="M95.6042 71.6862C95.6517 71.5733 95.6081 71.4437 95.5036 71.38L92.3515 69.5175C92.3498 69.5153 92.3476 69.5153 92.3459 69.5136L92.3437 69.5114C92.0106 69.2649 91.5574 69.2571 91.0545 69.5488L82.4005 74.5444C81.3874 75.1295 80.5654 76.6991 80.5654 78.0508V90.8315C80.5654 91.5781 80.8213 92.091 81.2158 92.3112L84.3071 94.1384C84.4451 94.2195 84.6223 94.1351 84.6441 93.9753L85.0995 90.6594L91.0545 87.2217C92.0676 86.6384 92.8879 85.067 92.8879 83.717V75.2445L94.5101 74.308L95.6042 71.6862V71.6862Z" fill="#C77E3A"/>
<path d="M95.6042 73.172C95.6517 73.0596 95.6081 72.9295 95.5036 72.8663L92.3515 71.0038C92.3498 71.0016 92.3476 71.0016 92.3459 70.9999L92.3437 70.9977C92.0106 70.7513 91.5574 70.7434 91.0545 71.0351L82.4005 76.0307C81.3874 76.6158 80.5654 78.1849 80.5654 79.5372L80.652 90.5549C80.652 91.302 80.9085 91.815 81.3047 92.0357L82.2451 92.9599L84.3071 94.1462C84.4451 94.2272 84.6223 94.1429 84.6441 93.983L85.0995 92.1457L91.0545 88.7075C92.0676 88.1247 92.8879 86.5533 92.8879 85.2033V76.7303L94.5101 75.7943L95.6042 73.172V73.172Z" fill="#DC9D62"/>
<path d="M91.7567 70.0857C91.6187 70.0857 91.4924 70.151 91.4253 70.1879L82.773 75.188C81.9907 75.6351 81.3067 76.9734 81.3067 78.0513V90.832C81.3067 91.3338 81.4525 91.5942 81.5766 91.6635L84.0191 93.1102L84.4192 90.2006L90.6861 86.5812C91.4667 86.132 92.1529 84.7931 92.1529 83.7174V74.8164L93.927 73.7938L94.7585 71.7989L91.9791 70.1544C91.9081 70.103 91.8293 70.0857 91.7567 70.0857V70.0857ZM84.4231 94.91C84.2555 94.91 84.0878 94.8642 83.9381 94.7782L80.8434 92.9509C80.2025 92.5922 79.8281 91.8177 79.8281 90.832V78.0513C79.8281 76.4392 80.7982 74.618 82.036 73.9039L90.6861 68.9066C91.4292 68.4792 92.1959 68.4808 92.7838 68.9167L95.8806 70.7439C96.3002 70.9887 96.4779 71.5145 96.2902 71.9683L96.2885 71.9705L95.0977 74.8243L93.6309 75.672V83.7174C93.6309 85.3273 92.6614 87.1473 91.4253 87.8609L85.7854 91.1214L85.3775 94.0758C85.3378 94.3937 85.1389 94.6698 84.8472 94.8117C84.7131 94.8771 84.5689 94.91 84.4231 94.91V94.91Z" fill="#1F1B23"/>
<path d="M94.4259 89.2212L85.7719 94.2163C84.7582 94.8025 83.9385 94.1811 83.9385 92.831V80.0492C83.9385 78.6986 84.7582 77.1279 85.7719 76.5439L94.4259 71.5466C95.439 70.961 96.2609 71.5824 96.2609 72.9346V85.7142C96.2609 87.0665 95.439 88.6356 94.4259 89.2212Z" fill="#C77E3A"/>
<path d="M95.15 72.0591C95.0539 72.0591 94.9293 72.0993 94.7912 72.1803L86.1394 77.177C85.3588 77.6269 84.6749 78.9668 84.6749 80.0431V92.8232C84.6749 93.2999 84.8068 93.5904 84.9386 93.667C85.0275 93.7156 85.2013 93.6866 85.4002 93.5703L94.052 88.5736C94.8348 88.1215 95.521 86.7854 95.521 85.7086V72.9268C95.521 72.4496 95.3869 72.1602 95.2545 72.0831C95.2271 72.0674 95.1913 72.0591 95.15 72.0591ZM85.0375 95.169C84.7397 95.169 84.4541 95.0919 84.1999 94.9461C83.5612 94.5795 83.1963 93.805 83.1963 92.8232V80.0431C83.1963 78.4304 84.1641 76.6093 85.4002 75.8957L94.052 70.899C94.7225 70.5162 95.4339 70.4805 95.9938 70.8018C96.6325 71.1723 96.9991 71.945 96.9991 72.9268V85.7086C96.9991 87.3191 96.0295 89.1407 94.7912 89.8538L86.1394 94.8499C85.7729 95.06 85.3963 95.169 85.0375 95.169V95.169Z" fill="#1F1B23"/>
<path d="M91.9057 83.7855L89.1419 85.3825C88.6647 85.658 88.2764 86.3973 88.2764 87.0365V92.7686L92.7708 90.1747V84.4398C92.7708 83.8028 92.3846 83.5094 91.9057 83.7855V83.7855Z" fill="#C77E3A"/>
<path d="M93.411 85.1938L90.6473 86.7903C90.1684 87.0664 89.7822 87.8073 89.7822 88.4443V94.1787L94.2766 91.5831V85.8482C94.2766 85.2117 93.8905 84.9172 93.411 85.1938V85.1938Z" fill="#DC9D62"/>
<path d="M92.0285 84.5666L89.5095 86.0217C89.2826 86.1497 89.0127 86.6286 89.0127 87.0354V91.4884L92.0285 89.7461V84.5666ZM87.5342 94.0488V87.0354C87.5342 86.1324 88.0645 85.145 88.7719 84.7404L91.534 83.1434C91.9777 82.8869 92.4504 82.8729 92.8388 83.0981C93.2629 83.3445 93.5071 83.8335 93.5071 84.4387V90.5988L87.5342 94.0488Z" fill="#1F1B23"/>
<path d="M91.6491 25.5508L84.3334 21.0307C83.9981 20.7334 83.6237 20.4965 83.208 20.335L83.1996 20.3289L83.1979 20.3311C81.8557 19.8148 80.1307 20.0333 78.2498 21.1173L65.3931 28.5415C61.1234 31.0057 57.65 37.0239 57.65 41.9536V44.509L52.6309 47.4063V52.5556L61.9375 47.1822L65.7971 49.5912L72.4071 36.3104L81.2919 31.6523V36.0091L90.2868 30.8146V26.5209L91.6491 25.5508Z" fill="#C77E3A"/>
<path d="M91.9457 27.9526L84.63 23.4326C84.2947 23.1347 83.9186 22.8983 83.5046 22.7369L83.4945 22.7307H83.4928C82.15 22.216 80.4251 22.4329 78.5464 23.5192L65.688 30.9433C61.4183 33.407 57.9448 39.4235 57.9448 44.3537V46.9102L52.9258 49.8081V52.093L62.2325 49.584L66.0937 51.9907L72.702 38.7105L81.5862 34.0541L86.2287 35.7293L90.5817 33.2159V28.9227L91.9457 27.9526V27.9526Z" fill="#DC9D62"/>
<path d="M53.3672 47.8404V51.2826L61.9486 46.3266L65.4947 48.5383L71.8504 35.7727L82.0277 30.4362V34.7339L89.5446 30.3926V26.1464L90.3113 25.6027L83.9399 21.666C83.5599 21.3402 83.2582 21.1553 82.9408 21.0312C81.7578 20.5775 80.2245 20.8379 78.6174 21.7621L65.7607 29.1885C61.6938 31.5359 58.3863 37.2663 58.3863 41.9596V44.9431L53.3672 47.8404V47.8404ZM51.8887 52.5616V46.9849L56.9078 44.0875V41.9596C56.9078 36.7953 60.5466 30.491 65.0214 27.9049L77.8787 20.483C79.8736 19.3319 81.8545 19.0319 83.4571 19.6454C83.9561 19.8382 84.4115 20.1181 84.8211 20.4847L92.9823 25.5138L91.0231 26.9091V31.2482L80.5497 36.4248V32.8804L72.958 36.8568L66.096 50.6539L61.919 48.0516L51.8887 52.5616V52.5616Z" fill="#1F1B23"/>
<path d="M98.4349 30.7433L89.9346 25.1387L93.5555 36.3062L98.4349 30.7433Z" fill="#C77E3A"/>
<path d="M98.4349 32.5226L89.9346 26.918L93.5555 38.0854L98.4349 32.5226Z" fill="#DC9D62"/>
<path d="M91.2888 26.9272L93.8615 34.8503L97.3227 30.9036L91.2888 26.9272V26.9272ZM93.2564 37.7795L88.582 23.3711L99.1762 30.3554L98.9298 31.3115L93.2564 37.7795Z" fill="#1F1B23"/>
<path d="M57.65 44.5117L65.7971 49.5939L60.7803 52.4902L52.6309 47.409L57.65 44.5117Z" fill="#C77E3A"/>
<path d="M57.65 46.9785L65.7994 52.0607L60.7803 54.957L52.6309 49.8764L57.65 46.9785Z" fill="#DC9D62"/>
<path d="M80.5547 31.1545V36.4216L89.4412 41.9626L90.1821 41.5178V27.3105L80.5547 31.1545Z" fill="#1F1B23"/>
<path d="M98.4342 35.9033L89.4388 41.0956V33.391C89.4388 31.4559 88.0748 30.6692 86.3973 31.637L73.5406 39.0611C71.8631 40.0289 70.5008 42.3909 70.5008 44.3244V52.0279L60.7783 57.6421V52.4939L65.7952 49.5977V47.0407C65.7952 42.1104 69.2708 36.0939 73.5406 33.6274L86.3973 26.2044C90.6692 23.7401 94.1427 25.7451 94.1427 30.6753V33.2318L98.4342 30.7541V35.9033V35.9033Z" fill="#C77E3A"/>
<path d="M97.694 35.4742L90.1771 39.816V33.3916C90.1771 32.1796 89.7279 31.2553 88.9159 30.7842C88.1018 30.3188 87.0764 30.392 86.0276 30.9972L73.1709 38.4213C71.2587 39.5243 69.7605 42.1172 69.7605 44.3266V51.6026L61.5167 56.3635V52.9214L66.5335 50.0241V47.0429C66.5335 42.3473 69.8432 36.6169 73.9101 34.2689L86.7668 26.8453C88.5946 25.7925 90.2777 25.5998 91.4998 26.3072C92.728 27.0146 93.4025 28.5642 93.4025 30.6759V34.5114L97.694 32.0337V35.4742V35.4742ZM57.105 49.3339L54.0652 47.4374L57.6314 45.3799L64.3592 49.5726L60.7914 51.6322L57.105 49.3339V49.3339ZM98.459 29.8852L94.881 31.951V30.6759C94.881 28.0143 93.9445 26.0094 92.2391 25.0276C90.5398 24.0464 88.3303 24.2352 86.0276 25.564L73.1709 32.9876C68.6961 35.5726 65.0549 41.8763 65.0549 47.0429V48.265L57.661 43.6549L51.8887 46.9859V52.9733L60.7617 58.5065L71.2391 52.4581V44.3266C71.2391 42.6553 72.4612 40.538 73.9101 39.7026L86.7668 32.2785C87.329 31.951 87.8431 31.8722 88.1767 32.0672C88.5075 32.2583 88.6986 32.7411 88.6986 33.3916V41.3974L89.4362 41.9668L99.1726 36.3297V30.3562L98.459 29.8852V29.8852Z" fill="#1F1B23"/>
<path d="M41.6426 103.185C41.6426 105.999 42.6205 108.175 44.3237 109.161C44.4165 109.215 44.5188 109.234 44.6138 109.279V106.837C43.9728 106.041 43.6141 104.769 43.6141 103.185V91.3075L43.6102 90.9225C43.6102 90.9069 43.6085 90.8907 43.6085 90.8756C42.924 88.5985 41.8773 86.4617 40.5664 84.4902C41.223 86.5678 41.6091 88.7348 41.6388 90.9527L41.6426 103.185V103.185Z" fill="#C77E3A"/>
<path d="M80.5654 77.6133L83.9344 79.8015L84.216 93.8155L80.5654 91.9681V77.6133Z" fill="#1F1B23"/>
<path d="M88.9328 104.5C88.3947 103.552 88.7255 102.349 89.6721 101.812L109.668 90.528C112.003 89.1997 113.452 86.7092 113.452 84.0248V76.3643C113.452 75.2763 114.335 74.3945 115.423 74.3945C116.513 74.3945 117.394 75.2763 117.394 76.3643V84.0248C117.394 88.1229 115.18 91.9277 111.618 93.9534L91.6195 105.239C90.6735 105.776 89.4709 105.447 88.9328 104.5V104.5Z" fill="#DC9D62"/>
<path d="M77.0391 113.394L84.5577 109.122C85.1746 108.771 85.5551 108.116 85.5551 107.407C85.5551 105.897 83.9246 104.947 82.6097 105.694L75.0912 109.968C74.4743 110.319 74.0938 110.973 74.0938 111.681C74.0938 113.192 75.7243 114.141 77.0391 113.394V113.394Z" fill="#DC9D62"/>
<path d="M59.2165 35.9453L67.3933 40.8817L65.4219 47.8638L65.5443 49.3005L57.6514 44.5127L57.862 39.7602L59.2165 35.9453Z" fill="#1F1B23"/>
</svg>
