<svg width="150" height="150" viewBox="0 0 150 150" fill="none" xmlns="http://www.w3.org/2000/svg">
<path d="M101.188 128.83C101.708 129.131 101.708 129.619 101.188 129.918C100.668 130.219 99.8245 130.219 99.3046 129.918C98.7826 129.619 98.7826 129.131 99.3046 128.83C99.8245 128.531 100.668 128.531 101.188 128.83Z" fill="#1F1B23"/>
<path d="M115.966 120.304C116.485 120.605 116.485 121.091 115.966 121.392C115.446 121.691 114.602 121.691 114.082 121.392C113.56 121.091 113.56 120.605 114.082 120.304C114.602 120.003 115.446 120.003 115.966 120.304Z" fill="#1F1B23"/>
<path d="M120.897 111.761C121.416 112.062 121.416 112.548 120.897 112.849C120.377 113.15 119.533 113.15 119.014 112.849C118.492 112.548 118.492 112.062 119.014 111.761C119.533 111.46 120.377 111.46 120.897 111.761Z" fill="#1F1B23"/>
<path d="M120.897 106.066C121.416 106.365 121.416 106.853 120.897 107.154C120.377 107.453 119.533 107.453 119.014 107.154C118.492 106.853 118.492 106.365 119.014 106.066C119.533 105.765 120.377 105.765 120.897 106.066Z" fill="#1F1B23"/>
<path d="M125.824 103.231C126.344 103.533 126.344 104.022 125.824 104.321C125.304 104.622 124.46 104.622 123.94 104.321C123.418 104.022 123.418 103.533 123.94 103.231C124.46 102.933 125.304 102.933 125.824 103.231Z" fill="#1F1B23"/>
<path d="M120.897 100.384C121.416 100.686 121.416 101.171 120.897 101.473C120.377 101.774 119.533 101.774 119.014 101.473C118.492 101.171 118.492 100.686 119.014 100.384C119.533 100.085 120.377 100.085 120.897 100.384Z" fill="#1F1B23"/>
<path d="M42.0084 123.107C42.5283 123.406 42.5283 123.894 42.0084 124.193C41.4893 124.494 40.6448 124.494 40.1227 124.193C39.6036 123.894 39.6036 123.406 40.1227 123.107C40.6448 122.806 41.4893 122.806 42.0084 123.107Z" fill="#1F1B23"/>
<path d="M123.952 97.5819C124.471 97.28 125.316 97.28 125.838 97.5819C126.358 97.8801 126.36 98.3683 125.841 98.6702C125.321 98.9684 124.477 98.9713 123.954 98.6702C123.435 98.3712 123.432 97.883 123.952 97.5819V97.5819Z" fill="#1F1B23"/>
<path d="M36.9466 119.999C37.4658 120.301 37.4658 120.789 36.9438 121.087C36.4247 121.389 35.5801 121.389 35.0602 121.087C34.5411 120.789 34.5411 120.301 35.0602 119.999C35.5801 119.701 36.4246 119.701 36.9466 119.999V119.999Z" fill="#1F1B23"/>
<path d="M123.019 92.4902C116.011 80.4107 97.3727 71.7559 75.4175 71.7559C53.4623 71.7559 34.8242 80.4107 27.8158 92.4902H24.8057V103.034C24.8057 120.31 47.4671 134.317 75.4175 134.317C103.37 134.317 126.029 120.31 126.029 103.034V92.4902H123.019V92.4902Z" fill="#C77E3A"/>
<path d="M25.6176 93.2906V103.024C25.6176 119.828 47.9573 133.496 75.4195 133.496C102.882 133.496 125.223 119.828 125.223 103.024V93.2906H122.556L122.322 92.8885C115.264 80.7258 96.4159 72.554 75.4195 72.554C54.423 72.554 35.5743 80.7258 28.5195 92.8885L28.2854 93.2906H25.6176V93.2906ZM75.4195 135.115C47.0663 135.115 24 120.719 24 103.024V91.6751H27.3584C34.8682 79.2509 54.0953 70.9355 75.4195 70.9355C96.7436 70.9355 115.968 79.2509 123.48 91.6751H126.839V103.024C126.839 120.719 103.773 135.115 75.4195 135.115Z" fill="#1F1B23"/>
<path d="M126.029 92.4927C126.029 109.769 103.37 123.776 75.4175 123.776C47.4671 123.776 24.8057 109.769 24.8057 92.4927C24.8057 75.2184 47.4671 61.2148 75.4175 61.2148C103.37 61.2148 126.029 75.2184 126.029 92.4927Z" fill="#C77E3A"/>
<path d="M126.029 94.9676C126.029 112.244 103.37 126.248 75.4175 126.248C47.4671 126.248 24.8057 112.244 24.8057 94.9676C24.8057 77.6933 47.4671 63.6875 75.4175 63.6875C103.37 63.6875 126.029 77.6933 126.029 94.9676Z" fill="#DC9D62"/>
<path d="M75.4195 62.013C47.9573 62.013 25.6176 75.6815 25.6176 92.4853C25.6176 109.287 47.9573 122.955 75.4195 122.955C102.882 122.955 125.223 109.287 125.223 92.4853C125.223 75.6815 102.882 62.013 75.4195 62.013V62.013ZM75.4195 124.574C47.0663 124.574 24 110.178 24 92.4853C24 74.7905 47.0663 60.3945 75.4195 60.3945C103.773 60.3945 126.839 74.7905 126.839 92.4853C126.839 110.178 103.773 124.574 75.4195 124.574Z" fill="#1F1B23"/>
<path d="M115.839 91.0883C115.839 104.087 97.7447 114.623 75.4206 114.623C53.0995 114.623 35.002 104.087 35.002 91.0883C35.002 78.0928 53.0995 67.5566 75.4206 67.5566C97.7447 67.5566 115.839 78.0928 115.839 91.0883Z" fill="#C77E3A"/>
<path d="M75.4228 68.3567C53.5817 68.3567 35.8141 78.5498 35.8141 91.0777C35.8141 103.609 53.5817 113.802 75.4228 113.802C97.2638 113.802 115.034 103.609 115.034 91.0777C115.034 78.5498 97.2638 68.3567 75.4228 68.3567V68.3567ZM75.4228 115.42C52.6908 115.42 34.1963 104.5 34.1963 91.0777C34.1963 77.6588 52.6908 66.7383 75.4228 66.7383C98.157 66.7383 116.649 77.6588 116.649 91.0777C116.649 104.5 98.157 115.42 75.4228 115.42Z" fill="#1F1B23"/>
<path d="M75.4206 67.5566C53.0995 67.5566 35.002 78.0928 35.002 91.0883C35.002 92.2576 35.1964 93.3952 35.4798 94.5174C38.3346 83.1477 55.1023 74.4089 75.4206 74.4089C95.7389 74.4089 112.507 83.1477 115.364 94.5174C115.645 93.3952 115.839 92.2576 115.839 91.0883C115.839 78.0928 97.7447 67.5566 75.4206 67.5566V67.5566Z" fill="#C77E3A"/>
<path d="M75.4228 68.3567C53.5817 68.3567 35.8141 78.5498 35.8141 91.0777C35.8141 91.1248 35.8141 91.1712 35.8141 91.2183C40.7548 80.8383 56.6522 73.5906 75.4228 73.5906C94.1933 73.5906 110.091 80.8353 115.031 91.2183C115.031 91.1712 115.034 91.1248 115.034 91.0777C115.034 78.5498 97.2638 68.3567 75.4228 68.3567V68.3567ZM114.883 96.1871L114.581 94.7041C111.789 83.5892 94.9539 75.209 75.4228 75.209C55.8916 75.209 39.059 83.5892 36.2639 94.7041L35.8141 96.4993L34.6971 94.7041C34.3547 93.3456 34.1963 92.1947 34.1963 91.0777C34.1963 77.6588 52.6908 66.7383 75.4228 66.7383C98.157 66.7383 116.649 77.6588 116.649 91.0777C116.649 92.1815 116.491 93.3323 116.151 94.7012L114.883 96.1871V96.1871Z" fill="#1F1B23"/>
<path d="M68.7082 68.0898V74.7323L57.4268 76.8699L46.3377 81.6236L38.3346 88.6394L35.4798 94.5131L35.002 88.6394L38.4096 81.6236L44.4931 75.9347L54.5124 70.9446L66.7915 68.0898H68.7082Z" fill="#2F2B28"/>
<path d="M89.8177 100.962L79.5827 95.245C81.5833 94.5771 83.3446 94.2782 84.8717 94.3481C86.3989 94.4159 87.7471 94.7796 88.9215 95.4342C90.233 96.1669 90.9707 97.0446 91.1349 98.0681C91.2983 99.0916 90.8618 100.055 89.8177 100.962V100.962ZM62.8127 93.078C61.4674 92.9616 60.332 92.6443 59.402 92.1251C58.3888 91.5589 57.7607 90.8623 57.5214 90.034C57.2828 89.2078 57.4927 88.3949 58.1576 87.5945L67.2388 92.6649C65.6336 93.0573 64.1587 93.195 62.8127 93.078ZM96.9792 102.944C98.5093 101.409 99.314 99.8632 99.4238 98.3022C99.4444 98.3096 99.507 98.3361 99.507 98.3361V93.8261L96.4262 92.5588C95.8048 92.0677 95.0934 91.595 94.2827 91.1429C91.4463 89.5612 88.3789 88.7093 85.0742 88.5871C81.7703 88.4678 77.4893 89.3197 72.2319 91.1407L61.9688 85.4098C64.3685 84.8281 66.7977 84.9945 69.2578 85.9112L74.9047 81.5426V77.3809L67.6754 79.8667L67.7041 79.9264C66.9818 79.877 66.2603 79.8564 65.5298 79.877C62.3503 79.9654 59.2305 80.729 56.1681 82.1707L54.8405 81.4307L55.3449 81.0382V79.095L49.8378 78.7887V85.3325L51.6198 83.9423L52.4356 84.3996C51.5889 85.0151 50.9364 85.6462 50.3782 86.2831C49.435 85.9606 48.7002 85.7169 48.7002 85.7169L48.7156 90.514C48.8894 92.6649 50.4122 94.5411 53.2824 96.1411C56.1166 97.7257 59.3136 98.6034 62.8701 98.775C66.4258 98.9465 70.377 98.3022 74.7199 96.8421L85.7185 102.983C84.3364 103.282 82.7599 103.376 80.9883 103.258C79.8661 103.186 78.7697 102.973 77.6843 102.697L77.9436 101.791L69.8395 102.417V106.578C73.801 108.194 77.6527 108.978 81.3962 108.926C85.1419 108.874 88.6799 108.067 92.0177 106.5L96.7951 109.168L100.528 106.939V102.781L96.9792 102.944V102.944Z" fill="#C77E3A"/>
<path d="M62.8808 92.2648C63.5023 92.3141 64.1621 92.3141 64.8476 92.2493L58.4106 88.6567C58.1661 89.1552 58.2213 89.5374 58.2986 89.8017C58.4731 90.4121 58.9768 90.9556 59.7948 91.4128C60.6188 91.8701 61.6548 92.158 62.8808 92.2648V92.2648ZM63.749 93.9193C63.4059 93.9193 63.0707 93.9038 62.7409 93.8751C61.2859 93.7477 60.0312 93.3943 59.0077 92.8258C57.8031 92.1506 57.044 91.2854 56.7428 90.2516C56.5248 89.4984 56.4858 88.3342 57.5329 87.0692L57.9636 86.5523L69.4268 92.9554L67.4299 93.4414C66.1362 93.758 64.9021 93.9193 63.749 93.9193ZM81.6771 95.4833L89.6863 99.9535C90.2186 99.3718 90.4313 98.7901 90.3349 98.1871C90.2104 97.4257 89.6029 96.7328 88.525 96.1327C87.4698 95.5429 86.2284 95.213 84.8338 95.1482C83.8957 95.104 82.8331 95.2182 81.6771 95.4833V95.4833ZM89.9174 101.936L77.5861 95.0518L79.3238 94.4701C81.4099 93.7735 83.2802 93.4547 84.906 93.532C86.5561 93.6078 88.039 94.0076 89.3144 94.7197C90.8445 95.5738 91.7274 96.657 91.9328 97.9323C92.1434 99.2466 91.6081 100.47 90.3482 101.564L89.9174 101.936V101.936ZM92.0468 105.585L96.7801 108.224L99.7181 106.474V103.619L94.9333 103.84L96.403 102.364C97.7748 100.99 98.5207 99.603 98.6164 98.2342L98.6967 97.1172V94.3581L95.9229 93.1844C95.325 92.7139 94.6424 92.2618 93.8862 91.8414C91.1765 90.3267 88.2025 89.5035 85.0415 89.3864C81.8694 89.2745 77.6354 90.1161 72.4951 91.8981L72.152 92.0181L59.7743 85.1032L61.777 84.6143C64.1878 84.0304 66.6478 84.16 69.1101 84.9942L74.0952 81.1366V78.5049L68.7936 80.3288L68.9931 80.7544L67.65 80.7235C66.9512 80.6793 66.2502 80.6506 65.5514 80.6764C62.4964 80.7596 59.4576 81.5077 56.5115 82.8949L56.1353 83.0717L53.3793 81.5342L54.5352 80.6351V79.8509L50.9788 80.3443L50.6438 83.6688L51.5427 82.9678L53.9322 84.3028L52.9087 85.0458C52.1974 85.5605 51.5869 86.1215 50.9839 86.8071L50.6282 87.2172L49.5083 86.8358L49.5216 90.5034C49.6696 92.2935 51.0671 93.9738 53.6752 95.4258C56.3842 96.9427 59.4916 97.7924 62.9074 97.9588C66.3336 98.1193 70.2271 97.4883 74.461 96.0672L74.7991 95.953L87.9816 103.312L85.8883 103.764C84.4362 104.076 82.7713 104.177 80.9341 104.055C79.8746 103.988 78.7782 103.801 77.4823 103.471L76.6768 103.266L76.8461 102.679L70.6455 103.157V106.022C74.3161 107.455 77.9786 108.209 81.3841 108.11C84.9973 108.061 88.4573 107.268 91.6706 105.759L92.0468 105.585V105.585ZM96.8058 110.094L91.9798 107.399C88.6649 108.892 85.1093 109.676 81.4077 109.728C77.5994 109.783 73.5782 108.97 69.5314 107.318L69.027 107.113V101.657L79.0411 100.886L78.6928 102.096C79.5447 102.283 80.3061 102.395 81.041 102.442C81.7817 102.492 82.493 102.499 83.1608 102.475L74.6356 97.7143C70.3414 99.12 66.3696 99.7429 62.8293 99.5743C59.1617 99.3976 55.8157 98.4779 52.8858 96.8388C49.7815 95.1062 48.1056 92.9974 47.9061 90.5712L47.8877 85.5884L49.0253 84.9655V77.9254L56.153 78.3208L56.2023 81.2559C59.2316 79.887 62.3588 79.147 65.5044 79.0587C66.1435 79.0425 66.7856 79.0557 67.4189 79.0896L75.7137 76.2422V81.9311L69.3937 86.8174L68.9725 86.6613C67.4682 86.1002 65.9565 85.8535 64.4787 85.8771L72.3103 90.2516C77.4823 88.4852 81.792 87.6487 85.101 87.7709C88.5198 87.8954 91.7406 88.7893 94.6756 90.4283C95.4657 90.8694 96.1932 91.3451 96.8346 91.8465L100.313 93.275V98.3225L100.053 99.4396C99.8299 100.319 99.4117 101.188 98.8012 102.042L101.334 101.925V107.39L96.8058 110.094V110.094Z" fill="#1F1B23"/>
<path d="M89.8183 96.7912C90.8624 95.8848 91.299 94.9209 91.1355 93.8974C90.9713 92.8739 90.2336 91.9955 88.9222 91.2636C87.7477 90.609 86.3995 90.2474 84.8724 90.1775C83.3452 90.1097 81.5839 90.4057 79.5833 91.0736L89.8183 96.7912V96.7912ZM58.1582 83.4238C57.4963 84.2235 57.2834 85.0371 57.522 85.8655C57.7635 86.6917 58.3895 87.3875 59.4027 87.9567C60.3326 88.4736 61.4681 88.7902 62.8134 88.9095C64.1594 89.0244 65.6342 88.8867 67.2394 88.4972L58.1582 83.4238ZM85.7192 98.8117L74.7205 92.6714C70.3776 94.1308 66.4265 94.7751 62.8708 94.6036C59.3143 94.432 56.1172 93.5543 53.2831 91.9727C50.4128 90.3697 48.89 88.4942 48.7162 86.3434C48.5425 84.1955 49.7811 82.1559 52.4363 80.2289L49.8384 78.7791L53.571 76.5502L56.1687 78.0022C59.2311 76.5583 62.351 75.7947 65.5305 75.7064C68.7099 75.618 71.8348 76.1739 74.9053 77.3712L69.2584 81.7428C66.7983 80.8261 64.3692 80.6574 61.9695 81.2414L72.2325 86.9693C77.4899 85.1483 81.7709 84.2964 85.0749 84.4186C88.3795 84.5379 91.447 85.3898 94.2833 86.9722C97.4503 88.7409 99.1801 90.793 99.4687 93.1257C99.7595 95.4584 98.4791 97.7602 95.6214 100.03L100.528 102.771L96.7958 104.997L92.0184 102.329C88.6806 103.898 85.1425 104.706 81.3968 104.758C77.6533 104.807 73.8016 104.023 69.8402 102.407L75.825 97.9855C77.4979 98.604 79.2203 98.9707 80.9889 99.0871C82.7606 99.2041 84.3371 99.1136 85.7192 98.8117Z" fill="#C77E3A"/>
<path d="M89.5735 98.7427C90.6155 97.8384 91.0543 96.8753 90.8879 95.8518C90.7244 94.8283 89.9865 93.9499 88.6751 93.215C87.5036 92.5604 86.1525 92.1996 84.6253 92.1289C83.0982 92.0619 81.3369 92.3601 79.3362 93.028L89.5735 98.7427V98.7427ZM57.9113 85.3753C57.2494 86.1779 57.0358 86.9886 57.2751 87.817C57.5166 88.6461 58.1425 89.3419 59.1586 89.9082C60.0857 90.4251 61.2232 90.7446 62.5663 90.8617C63.9145 90.9788 65.3873 90.8411 66.9925 90.4486L57.9113 85.3753V85.3753ZM85.4721 100.766L74.4736 94.6258C70.1307 96.0852 66.1796 96.7295 62.6238 96.558C59.0674 96.3842 55.8724 95.5057 53.036 93.9241C50.168 92.3241 49.3007 90.5554 49.124 88.4068C48.9495 86.2589 49.537 84.1081 52.1892 82.1826L50.9759 80.344L53.3239 78.5046L55.9218 79.9544C58.9842 78.5127 62.1039 77.7462 65.2834 77.6578C68.4658 77.5695 71.0187 78.5642 74.0922 79.7645L69.0108 83.695C66.5537 82.7775 64.1222 82.6118 61.7247 83.1936L71.9855 88.9237C77.2429 87.1005 81.5239 86.2508 84.8278 86.3701C88.1347 86.4901 91.2023 87.342 94.0364 88.9266C97.2056 90.6953 98.9331 92.7445 99.2239 95.0772C99.5148 97.4099 98.2313 99.7117 95.3743 101.982L99.7151 104.998L96.548 106.951L91.7715 104.284C88.4359 105.85 84.8956 106.657 81.1499 106.71C77.4064 106.759 74.414 106.315 70.4525 104.697L75.5781 99.9399C77.251 100.555 78.9755 100.924 80.7442 101.039C82.5136 101.156 84.09 101.065 85.4721 100.766V100.766Z" fill="#DC9D62"/>
<path d="M58.4106 84.4917C58.1661 84.9909 58.2213 85.3724 58.2964 85.6374C58.4731 86.2479 58.9767 86.7905 59.7948 87.2478C60.6187 87.708 61.6548 87.9937 62.8808 88.0997C63.5044 88.1542 64.162 88.1491 64.8476 88.0843L58.4106 84.4917ZM63.749 89.7543C63.4058 89.7543 63.0707 89.7388 62.7408 89.713C61.2858 89.5856 60.0312 89.2322 59.0077 88.6608C57.8031 87.9856 57.0439 87.1204 56.7428 86.0866C56.5248 85.3333 56.4829 84.1699 57.5329 82.9049L57.9636 82.388L69.4268 88.7911L67.4299 89.2793C66.1362 89.596 64.9021 89.7543 63.749 89.7543ZM81.677 91.3182L89.6862 95.7914C90.2186 95.2068 90.4313 94.6251 90.3348 94.0228C90.2104 93.2614 89.6029 92.5707 88.5249 91.9677C87.4698 91.3779 86.2284 91.048 84.8338 90.9832C83.8957 90.9471 82.8331 91.0532 81.677 91.3182V91.3182ZM89.9173 97.7707L77.5861 90.8875L79.3238 90.308C81.4098 89.6092 83.2801 89.2867 84.906 89.3677C86.5561 89.4428 88.0361 89.8426 89.3122 90.5546C90.8445 91.4117 91.7273 92.4927 91.9327 93.768C92.1433 95.0824 91.6081 96.3061 90.3482 97.3996L89.9173 97.7707ZM92.0468 101.421L96.78 104.06L99.2349 102.605L94.1689 100.145L95.1151 99.3943C97.7224 97.3215 98.9154 95.2458 98.6636 93.2224C98.411 91.1702 96.8006 89.3051 93.8862 87.6763C91.1765 86.1647 88.2025 85.3385 85.0414 85.2244C81.8693 85.1176 77.6354 85.9519 72.4951 87.7338L72.1519 87.8531L59.7742 80.9411L61.777 80.4529C64.1826 79.8683 66.6478 79.9927 69.1101 80.8292L73.604 77.3692C71.0791 76.5533 68.1565 76.4392 65.5514 76.5121C62.4964 76.5953 59.4576 77.3434 56.5115 78.7307L56.1353 78.9066L53.5817 77.4833L51.4544 78.7535L53.9322 80.1385L52.9087 80.8815C50.509 82.6214 49.3706 84.4372 49.5194 86.2766C49.6696 88.1314 51.0671 89.8095 53.6752 91.2637C56.3841 92.7754 59.4915 93.6274 62.9074 93.7938C66.3541 93.9624 70.2322 93.324 74.461 91.9029L74.7991 91.7887L87.9794 99.1476L85.8882 99.602C84.4362 99.9164 82.7683 100.015 80.9341 99.8928C79.2383 99.7816 77.5654 99.4437 75.9551 98.8907L71.5024 102.179C74.8793 103.395 78.2333 104.005 81.3841 103.946C84.9973 103.896 88.4572 103.106 91.6706 101.597L92.0468 101.421V101.421ZM96.8058 105.93L91.9798 103.234C88.6648 104.73 85.1092 105.512 81.4077 105.564C77.5994 105.6 73.5782 104.805 69.5313 103.153L69.0196 102.943L69.027 101.654L71.2971 100.319L75.6922 97.0749L76.1002 97.228C77.6929 97.8149 79.3555 98.1683 81.0409 98.2802C81.7817 98.3266 82.4878 98.3347 83.1608 98.3112L74.6356 93.5501C70.3465 94.955 66.3799 95.5786 62.8293 95.4093C59.1616 95.2333 55.8156 94.3136 52.8858 92.6745C49.7814 90.942 48.1056 88.8324 47.9061 86.4062C47.7345 84.2605 48.7654 82.2238 50.9788 80.341L48.2176 78.8006L53.556 75.616L56.2023 77.0916C59.2316 75.722 62.3588 74.982 65.5044 74.8936C68.77 74.8104 72.5518 75.0056 75.7136 76.2389V77.769L69.3937 82.6553L68.9725 82.497C67.4681 81.9359 65.9617 81.6708 64.4787 81.715L72.3103 86.0866C77.4852 84.3201 81.7838 83.4837 85.101 83.6059C88.5198 83.7311 91.7406 84.6243 94.6756 86.2633C98.0656 88.1572 99.9462 90.4324 100.269 93.0221C100.56 95.368 99.4735 97.6772 97.0318 99.8906L101.333 101.922V103.228L96.8058 105.93V105.93Z" fill="#1F1B23"/>
<path d="M81.1094 123.566V134.309L93.116 132.343L104.67 128.937L116.65 121.332L124.02 112.128L126.035 105.931L125.858 97.543L120.217 108.221L108.927 115.926L91.9806 122.049L81.1094 123.566Z" fill="#1F1B23"/>
<path d="M73.6119 123.857V134.401L68.7051 134.024V122.953L73.6119 123.857Z" fill="#1F1B23"/>
<path d="M123.023 77.1164C116.015 65.0376 97.3793 56.3828 75.4249 56.3828C53.4668 56.3828 34.8318 65.0376 27.8234 77.1164H24.8125V87.6607C24.8125 104.937 47.4716 118.944 75.4249 118.944C103.375 118.944 126.034 104.937 126.034 87.6607V77.1164H123.023V77.1164Z" fill="#C77E3A"/>
<path d="M25.6176 77.9331V87.6667C25.6176 104.468 47.9602 118.139 75.4224 118.139C102.882 118.139 125.226 104.468 125.226 87.6667V77.9331H122.559L122.322 77.5304C115.264 65.3684 96.4159 57.1966 75.4224 57.1966C54.4251 57.1966 35.5772 65.3684 28.5195 77.5304L28.2854 77.9331H25.6176V77.9331ZM75.4224 119.757C47.0663 119.757 24 105.361 24 87.6667V76.3147H27.3614C34.8705 63.8928 54.0982 55.5781 75.4224 55.5781C96.7435 55.5781 115.968 63.8928 123.483 76.3147H126.839V87.6667C126.839 105.361 103.773 119.757 75.4224 119.757V119.757Z" fill="#1F1B23"/>
<path d="M126.034 77.1219C126.034 94.3991 103.375 108.403 75.4249 108.403C47.4716 108.403 24.8125 94.3991 24.8125 77.1219C24.8125 59.8483 47.4716 45.8418 75.4249 45.8418C103.375 45.8418 126.034 59.8483 126.034 77.1219V77.1219Z" fill="#C77E3A"/>
<path d="M126.034 79.6089C126.034 96.8855 103.375 110.889 75.4249 110.889C47.4716 110.889 24.8125 96.8855 24.8125 79.6089C24.8125 62.3346 47.4716 48.3281 75.4249 48.3281C103.375 48.3281 126.034 62.3346 126.034 79.6089Z" fill="#DC9D62"/>
<path d="M75.4224 46.6529C47.9602 46.6529 25.6176 60.3221 25.6176 77.123C25.6176 93.9275 47.9602 107.596 75.4224 107.596C102.882 107.596 125.226 93.9275 125.226 77.123C125.226 60.3221 102.882 46.6529 75.4224 46.6529ZM75.4224 109.214C47.0663 109.214 24 94.8185 24 77.123C24 59.4312 47.0663 45.0352 75.4224 45.0352C103.773 45.0352 126.839 59.4312 126.839 77.123C126.839 94.8185 103.773 109.214 75.4224 109.214Z" fill="#1F1B23"/>
<path d="M115.84 75.7153C115.84 88.7137 97.7425 99.2469 75.4213 99.2469C53.0973 99.2469 35.002 88.7137 35.002 75.7153C35.002 62.719 53.0973 52.1836 75.4213 52.1836C97.7425 52.1836 115.84 62.719 115.84 75.7153Z" fill="#C77E3A"/>
<path d="M75.4235 52.9925C53.5824 52.9925 35.8119 63.1877 35.8119 75.7164C35.8119 88.2443 53.5824 98.4403 75.4235 98.4403C97.2638 98.4403 115.034 88.2443 115.034 75.7164C115.034 63.1877 97.2638 52.9925 75.4235 52.9925V52.9925ZM75.4235 100.059C52.6885 100.059 34.1963 89.1382 34.1963 75.7164C34.1963 62.2945 52.6885 51.377 75.4235 51.377C98.1577 51.377 116.65 62.2945 116.65 75.7164C116.65 89.1382 98.1577 100.059 75.4235 100.059Z" fill="#1F1B23"/>
<path d="M75.4213 52.1836C53.0973 52.1836 35.002 62.719 35.002 75.7153C35.002 76.8838 35.1971 78.0214 35.4777 79.1436C38.3347 67.7739 55.1023 59.0359 75.4213 59.0359C95.7397 59.0359 112.507 67.7739 115.362 79.1436C115.645 78.0214 115.84 76.8838 115.84 75.7153C115.84 62.719 97.7425 52.1836 75.4213 52.1836V52.1836Z" fill="#C77E3A"/>
<path d="M75.4235 52.9925C53.5824 52.9925 35.8119 63.1877 35.8119 75.7164C35.8119 75.7628 35.8118 75.8099 35.8148 75.8563C40.7556 65.4762 56.6529 58.2293 75.4235 58.2293C94.1911 58.2293 110.091 65.474 115.031 75.8563C115.031 75.8099 115.034 75.7628 115.034 75.7164C115.034 63.1877 97.2638 52.9925 75.4235 52.9925V52.9925ZM114.88 80.8228L114.579 79.3399C111.789 68.2272 94.9547 59.8477 75.4235 59.8477C55.8916 59.8477 39.0568 68.2272 36.2639 79.3399L35.8119 81.1372L34.6949 79.3399C34.3547 77.9813 34.1963 76.8304 34.1963 75.7164C34.1963 62.2945 52.6885 51.377 75.4235 51.377C98.1577 51.377 116.65 62.2945 116.65 75.7164C116.65 76.8201 116.492 77.971 116.151 79.3399L114.88 80.8228V80.8228Z" fill="#1F1B23"/>
<path d="M68.7089 52.7168V59.3585L57.4277 61.4968L46.3386 66.2506L38.3324 73.2663L35.4777 79.1393L35.002 73.2663L38.4075 66.2506L44.491 60.5617L54.5126 55.5716L66.7916 52.7168H68.7089Z" fill="#2F2B28"/>
<path d="M89.8198 85.582L79.5827 79.8673C81.5833 79.2002 83.3467 78.9012 84.8746 78.9712C86.3988 79.0389 87.75 79.4027 88.9216 80.0573C90.2359 80.7899 90.9737 81.6676 91.1372 82.6911C91.3006 83.7146 90.8617 84.6785 89.8198 85.582ZM62.8156 77.701C61.4696 77.5839 60.3319 77.2673 59.4049 76.7475C58.3888 76.1812 57.7629 75.4854 57.5244 74.657C57.2851 73.8309 57.4957 73.0172 58.1606 72.2175L67.2418 77.2879C65.6336 77.6804 64.1609 77.8181 62.8156 77.701V77.701ZM96.9792 87.5671C98.5115 86.0319 99.3171 84.4863 99.4261 82.9245C99.4467 82.9326 99.507 82.9562 99.507 82.9562V78.4491L96.4284 77.1819C95.8047 76.6908 95.0957 76.218 94.2857 75.7659C91.4486 74.1813 88.3811 73.3316 85.0742 73.2101C81.7703 73.0901 77.4922 73.942 72.234 75.763L61.9711 70.0329C64.3686 69.4512 66.8 69.6176 69.2601 70.5343L74.907 66.1649V62.0039L67.6784 64.4898L67.7063 64.5494C66.9847 64.5001 66.2602 64.4765 65.5327 64.4971C62.3532 64.5855 59.2304 65.352 56.1709 66.7937L54.8434 66.0537L55.347 65.6613V63.7159L49.8378 63.4088V69.9548L51.6198 68.5653L52.4378 69.0226C51.5888 69.6382 50.9394 70.2692 50.3805 70.9054C49.438 70.5836 48.7002 70.3392 48.7002 70.3392L48.7156 75.1371C48.8923 77.2857 50.4144 79.1634 53.2846 80.7634C56.1187 82.348 59.3136 83.2264 62.8701 83.3973C66.4258 83.5688 70.377 82.9245 74.7199 81.4651L85.7214 87.6054C84.3393 87.9044 82.7621 87.9957 80.9912 87.8786C79.869 87.8057 78.7698 87.5951 77.6866 87.3175L77.9465 86.4133L69.8395 87.0392V91.198C73.8032 92.8164 77.6557 93.6013 81.3985 93.5491C85.142 93.4968 88.6822 92.689 92.02 91.1229L96.7973 93.7906L100.53 91.5617V87.4007L96.9792 87.5671V87.5671Z" fill="#C77E3A"/>
<path d="M62.8779 76.8932C63.5016 76.9425 64.1592 76.9425 64.8447 76.8777L58.4106 73.2829C58.1632 73.7844 58.2184 74.1636 58.2957 74.4309C58.4724 75.0413 58.9769 75.584 59.795 76.039C60.6182 76.4985 61.6549 76.7842 62.8779 76.8932V76.8932ZM63.7483 78.5484C63.4059 78.5484 63.0679 78.5322 62.738 78.5043C61.2859 78.3769 60.0284 78.0234 59.0049 77.452C57.8024 76.779 57.041 75.9139 56.7428 74.88C56.5241 74.1268 56.4859 72.9604 57.5322 71.6984L57.9608 71.1815L69.4268 77.5816L67.4271 78.0706C66.1333 78.3872 64.8992 78.5484 63.7483 78.5484V78.5484ZM81.6742 80.1117L89.6855 84.5827C90.2179 83.998 90.4284 83.4185 90.332 82.8162C90.2105 82.0549 89.6024 81.3612 88.5244 80.7611C87.47 80.1721 86.2255 79.8392 84.8309 79.7766C83.8929 79.7303 82.8332 79.8473 81.6742 80.1117V80.1117ZM89.9168 86.5641L77.5861 79.678L79.321 79.0992C81.4099 78.4004 83.2773 78.0831 84.9031 78.1582C86.5532 78.2362 88.0384 78.6339 89.3115 79.3481C90.8438 80.203 91.7245 81.2832 91.9299 82.5614C92.1405 83.8758 91.6082 85.0966 90.3454 86.193L89.9168 86.5641V86.5641ZM92.047 90.2112L96.7772 92.8532L99.7173 91.0999V88.2474L94.9326 88.4661L96.4031 86.9927C97.7749 85.6187 98.52 84.2292 98.6136 82.8626L98.6968 81.7456V78.9873L95.9222 77.8128C95.325 77.3431 94.6397 76.888 93.8856 76.4698C91.1767 74.9559 88.2026 74.1319 85.0408 74.0156C81.8664 73.9037 77.6325 74.7453 72.4944 76.525L72.1521 76.6443L59.7714 69.7316L61.7772 69.2434C64.185 68.6588 66.6472 68.7862 69.1103 69.6226L74.0923 65.765V63.1341L68.7907 64.9573L68.9902 65.3836L67.6501 65.3527C66.9513 65.3085 66.2473 65.2768 65.5486 65.3055C62.4965 65.3887 59.4547 66.1369 56.5087 67.5241L56.1346 67.6979L53.3785 66.1626L54.5345 65.2643V64.4794L50.9788 64.9727L50.6438 68.298L51.5399 67.597L53.9322 68.932L52.9058 69.6749C52.1967 70.1889 51.5863 70.75 50.984 71.4362L50.6277 71.8434L49.5083 71.4642L49.5217 75.1326C49.6697 76.9219 51.0672 78.6 53.6724 80.055C56.3843 81.5718 59.4908 82.4215 62.9067 82.5872C66.3306 82.7485 70.2265 82.1174 74.4612 80.6963L74.7984 80.5792L87.9788 87.9411L85.8875 88.3932C84.4355 88.7047 82.7685 88.8063 80.9343 88.684C79.8747 88.6163 78.7753 88.4293 77.4823 88.0994L76.6768 87.8947L76.8432 87.3049L70.6448 87.785V90.6478C74.3154 92.0844 77.9779 92.8377 81.3834 92.739C84.9944 92.6897 88.4565 91.8974 91.6699 90.3879L92.047 90.2112V90.2112ZM96.8058 94.7212L91.9792 92.027C88.6621 93.521 85.1086 94.3052 81.4048 94.3575C77.5965 94.412 73.5775 93.599 69.5306 91.9438L69.027 91.7413V86.2865L79.0382 85.5149L78.6929 86.7254C79.5449 86.9124 80.3054 87.0244 81.041 87.0707C81.781 87.1201 82.4902 87.1282 83.1602 87.1024L74.6328 82.3435C70.3414 83.7484 66.3697 84.3691 62.8264 84.2035C59.161 84.0267 55.8151 83.1071 52.8853 81.468C49.7809 79.7354 48.1057 77.6258 47.9054 75.1996L47.8877 70.2176L49.0254 69.5939V62.5524L56.153 62.9493L56.1995 65.885C59.2309 64.5162 62.3588 63.7754 65.5044 63.6871C66.1435 63.6716 66.7849 63.6819 67.4189 63.7187L75.7108 60.8691V66.5602L69.393 71.4465L68.9725 71.2904C67.4682 70.7293 65.9536 70.4827 64.4787 70.5062L72.3074 74.88C77.4823 73.1143 81.7914 72.2778 85.1012 72.3993C88.5192 72.5245 91.7407 73.4177 94.6727 75.0568C95.465 75.4986 96.1903 75.9742 96.8346 76.4727L100.31 77.9042V82.951L100.052 84.068C99.8293 84.9464 99.411 85.816 98.7984 86.6709L101.334 86.5538V92.0196L96.8058 94.7212V94.7212Z" fill="#1F1B23"/>
<path d="M89.8204 81.4299C90.8623 80.5234 91.3012 79.5596 91.1378 78.5361C90.9743 77.5126 90.2365 76.6349 88.9222 75.9022C87.7507 75.2476 86.3994 74.8868 84.8752 74.8169C83.3473 74.7462 81.5839 75.0451 79.5833 75.713L89.8204 81.4299V81.4299ZM58.1612 68.0625C57.4963 68.8629 57.2857 69.6758 57.525 70.502C57.7636 71.3304 58.3894 72.0269 59.4055 72.5932C60.3325 73.1123 61.4702 73.4296 62.8162 73.5467C64.1615 73.663 65.6343 73.5254 67.2424 73.1336L58.1612 68.0625V68.0625ZM85.7191 83.4511L74.7205 77.3101C70.3776 78.7702 66.4265 79.4145 62.8707 79.243C59.3142 79.0714 56.1193 78.1937 53.2852 76.6091C50.415 75.0091 48.8929 73.1336 48.7162 70.9828C48.5424 68.8342 49.7839 66.7953 52.4384 64.8676L49.8384 63.4155L53.5709 61.1896L56.1715 62.6387C59.231 61.1977 62.3538 60.4334 65.5333 60.345C68.7128 60.2567 71.8349 60.8126 74.9076 62.0106L69.2607 66.3822C66.8006 65.4625 64.3692 65.2961 61.9717 65.8808L72.2346 71.6087C77.4928 69.7877 81.7709 68.9358 85.0748 69.0551C88.3817 69.1773 91.4492 70.0263 94.2863 71.6109C97.4525 73.3803 99.1829 75.4295 99.4708 77.7622C99.7617 80.0978 98.479 82.3989 95.6213 84.6697L100.53 87.4096L96.7979 89.6363L92.0206 86.9685C88.6829 88.5347 85.1426 89.3425 81.3991 89.3948C77.6563 89.4463 73.8038 88.6621 69.8401 87.0459L75.825 82.6249C77.5001 83.2434 79.2224 83.6094 80.9918 83.7265C82.7627 83.8436 84.34 83.75 85.7191 83.4511V83.4511Z" fill="#C77E3A"/>
<path d="M89.5827 83.3833C90.6246 82.4791 91.0605 81.5152 90.897 80.4895C90.7336 79.4682 89.9959 78.5875 88.6837 77.8556C87.51 77.201 86.1618 76.8395 84.6339 76.7695C83.1067 76.7018 81.3454 77.0008 79.3455 77.6686L89.5827 83.3833V83.3833ZM57.9205 70.0159C57.2578 70.8156 57.0451 71.6292 57.2844 72.4576C57.5259 73.2838 58.1517 73.9825 59.1649 74.5488C60.0949 75.0657 61.2296 75.3823 62.5756 75.5016C63.9209 75.6187 65.3964 75.481 67.0016 75.0892L57.9205 70.0159V70.0159ZM85.4814 85.4067L74.4827 79.2635C70.1391 80.7259 66.1888 81.3701 62.6323 81.1956C59.0765 81.0248 55.8787 80.1464 53.0446 78.5647C50.1744 76.9617 49.3069 75.1953 49.1324 73.0474C48.9557 70.8988 49.5433 68.748 52.1978 66.821L50.985 64.9838L53.3332 63.1423L55.9309 64.5943C58.9933 63.1526 62.1132 62.3868 65.2927 62.2984C68.4722 62.2101 71.028 63.2049 74.0985 64.4051L69.0199 68.3349C66.5628 67.4181 64.1314 67.2517 61.731 67.8334L71.994 73.5643C77.2522 71.7404 81.5325 70.8914 84.8371 71.0107C88.141 71.13 91.2086 71.9819 94.0457 73.5643C97.2119 75.333 98.9415 77.3851 99.2331 79.7178C99.521 82.0505 98.2406 84.3523 95.3829 86.6224L99.7235 89.6384L96.5573 91.5889L91.7799 88.9234C88.4421 90.4903 84.904 91.2981 81.1583 91.3496C77.4156 91.399 74.4232 90.9527 70.4588 89.3365L75.5865 84.5783C77.2595 85.1961 78.9818 85.5628 80.7505 85.6792C82.5221 85.7962 84.0993 85.7057 85.4814 85.4067V85.4067Z" fill="#DC9D62"/>
<path d="M58.4117 69.1324C58.1643 69.6309 58.2195 70.013 58.2968 70.2781C58.4735 70.8885 58.978 71.4312 59.796 71.8885C60.6193 72.3457 61.656 72.6336 62.879 72.7404C63.5056 72.7949 64.1603 72.7897 64.8458 72.7249L58.4117 69.1324V69.1324ZM63.7494 74.3949C63.407 74.3949 63.0689 74.3795 62.7391 74.3507C61.287 74.2263 60.0294 73.8707 59.0059 73.3015C57.8035 72.6263 57.0421 71.7611 56.7439 70.7273C56.5252 69.974 56.484 68.8099 57.5333 67.5448L57.9618 67.0279L69.4279 73.4311L67.4281 73.917C66.1344 74.2366 64.9003 74.3949 63.7494 74.3949ZM81.6753 75.9589L89.6866 80.4292C90.219 79.8475 90.4295 79.2658 90.3331 78.6627C90.2116 77.9021 89.6034 77.2084 88.5232 76.6083C87.4709 76.0185 86.2266 75.6857 84.832 75.6239C83.8939 75.5848 82.8343 75.6938 81.6753 75.9589V75.9589ZM89.9179 82.4114L77.5872 75.5252L79.322 74.9457C81.411 74.2499 83.2784 73.9274 84.9042 74.0084C86.5543 74.0835 88.0372 74.4833 89.3126 75.1953C90.8449 76.0524 91.7256 77.1326 91.931 78.4087C92.1416 79.723 91.6092 80.9461 90.3464 82.0395L89.9179 82.4114V82.4114ZM92.0481 86.0606L96.7783 88.7004L99.2353 87.2454L94.1702 84.7853L95.1156 84.035C97.7208 81.9622 98.9158 79.8865 98.664 77.863C98.4092 75.8109 96.8019 73.9458 93.8867 72.317C91.1778 70.8024 88.2036 69.9791 85.0418 69.8621C81.8675 69.7582 77.6336 70.5918 72.4955 72.3744L72.1532 72.4937L59.7725 65.5788L61.7782 65.0929C64.1831 64.5082 66.6483 64.6334 69.1114 65.4699L73.6051 62.0098C71.0802 61.194 68.1577 61.0798 65.5496 61.1527C62.4975 61.2352 59.4558 61.9833 56.5097 63.3706L56.1357 63.5473L53.5821 62.124L51.4526 63.3941L53.9333 64.7784L52.9069 65.5214C50.5094 67.2621 49.3689 69.0779 49.5176 70.9165C49.6708 72.7691 51.0683 74.4494 53.6734 75.9044C56.3853 77.4161 59.4919 78.268 62.9078 78.4344C66.3553 78.6031 70.2335 77.9639 74.4623 76.5435L74.7995 76.4287L87.9798 83.7883L85.8865 84.2426C84.4366 84.557 82.7696 84.6557 80.9354 84.5313C79.2389 84.4215 77.5658 84.0843 75.9555 83.5306L71.5037 86.8168C74.8776 88.0355 78.2315 88.6459 81.3845 88.5855C84.9955 88.5362 88.4576 87.7468 91.671 86.2351L92.0481 86.0606V86.0606ZM96.8069 90.5706L91.9803 87.8742C88.6631 89.3704 85.1097 90.1524 81.4059 90.2039C77.5976 90.2408 73.5786 89.4455 69.5317 87.7932L69.02 87.5833L69.0281 86.2948L71.2982 84.9598L75.6935 81.7148L76.1013 81.8657C77.6911 82.4526 79.3537 82.809 81.0421 82.918C81.7821 82.9643 82.489 82.9746 83.1613 82.9489L74.6338 78.19C70.3447 79.5956 66.381 80.2186 62.8275 80.0499C59.1621 79.871 55.8162 78.9513 52.8863 77.3145C49.782 75.5819 48.1067 73.473 47.9065 71.0468C47.7327 68.9012 48.7665 66.8645 50.9799 64.9809L48.2187 63.4383L53.5542 60.2537L56.2005 61.7315C59.232 60.3627 62.3599 59.6227 65.5055 59.5343C68.7682 59.4511 72.553 59.6455 75.7119 60.8774V62.4067L69.3941 67.296L68.9736 67.1376C67.4663 66.5766 65.9628 66.3115 64.4769 66.3527L72.3085 70.7273C77.4856 68.9608 81.7851 68.1221 85.1022 68.2466C88.5203 68.371 91.7418 69.2649 94.6738 70.904C98.0639 72.7978 99.9474 75.0701 100.269 77.6628C100.56 80.0087 99.4718 82.3178 97.0301 84.5313L101.335 86.5621V87.869L96.8069 90.5706V90.5706Z" fill="#1F1B23"/>
<path d="M81.1094 108.205V118.949L93.1152 116.982L104.667 113.577L116.65 105.971L124.019 96.7676L126.032 90.5699L125.855 82.1816L120.214 92.8607L108.927 100.566L91.9776 106.687L81.1094 108.205Z" fill="#1F1B23"/>
<path d="M73.6189 108.499V119.043L68.7119 118.666V107.596L73.6189 108.499Z" fill="#1F1B23"/>
<path d="M123.023 61.7737C116.015 49.6949 97.3795 41.0371 75.4243 41.0371C53.4669 41.0371 34.8311 49.6949 27.8234 61.7737H24.8125V72.3172C24.8125 89.5944 47.4717 103.598 75.4243 103.598C103.375 103.598 126.034 89.5944 126.034 72.3172V61.7737H123.023Z" fill="#C77E3A"/>
<path d="M25.6185 62.5718V72.3076C25.6185 89.1092 47.9603 102.778 75.4225 102.778C102.882 102.778 125.224 89.1092 125.224 72.3076V62.5718H122.559L122.322 62.169C115.265 50.0071 96.4168 41.8353 75.4225 41.8353C54.426 41.8353 35.5774 50.0071 28.5197 62.169L28.2863 62.5718H25.6185V62.5718ZM75.4225 104.396C47.0671 104.396 24 90.0001 24 72.3076V60.9563H27.3614C34.8712 48.5344 54.0991 40.2168 75.4225 40.2168C96.7437 40.2168 115.968 48.5344 123.483 60.9563H126.84V72.3076C126.84 90.0001 103.773 104.396 75.4225 104.396Z" fill="#1F1B23"/>
<path d="M126.034 61.7605C126.034 79.0349 103.375 93.0413 75.4243 93.0413C47.4717 93.0413 24.8125 79.0349 24.8125 61.7605C24.8125 44.484 47.4717 30.4805 75.4243 30.4805C103.375 30.4805 126.034 44.484 126.034 61.7605Z" fill="#C77E3A"/>
<path d="M126.034 64.2466C126.034 81.5231 103.375 95.5296 75.4243 95.5296C47.4717 95.5296 24.8125 81.5231 24.8125 64.2466C24.8125 46.9723 47.4717 32.9688 75.4243 32.9688C103.375 32.9688 126.034 46.9723 126.034 64.2466V64.2466Z" fill="#DC9D62"/>
<path d="M75.4225 31.2942C47.9603 31.2942 25.6185 44.965 25.6185 61.7665C25.6185 78.5681 47.9603 92.2366 75.4225 92.2366C102.882 92.2366 125.224 78.5681 125.224 61.7665C125.224 44.965 102.882 31.2942 75.4225 31.2942V31.2942ZM75.4225 93.8551C47.0671 93.8551 24 79.4591 24 61.7665C24 44.0718 47.0671 29.6758 75.4225 29.6758C103.773 29.6758 126.84 44.0718 126.84 61.7665C126.84 79.4591 103.773 93.8551 75.4225 93.8551Z" fill="#1F1B23"/>
<path d="M115.847 60.3559C115.847 73.3543 97.7497 83.8905 75.4286 83.8905C53.1045 83.8905 35.0098 73.3543 35.0098 60.3559C35.0098 47.3604 53.1045 36.8242 75.4286 36.8242C97.7497 36.8242 115.847 47.3604 115.847 60.3559V60.3559Z" fill="#C77E3A"/>
<path d="M75.4258 37.638C53.5847 37.638 35.8148 47.831 35.8148 60.359C35.8148 72.8898 53.5847 83.0858 75.4258 83.0858C97.2668 83.0858 115.037 72.8898 115.037 60.359C115.037 47.831 97.2668 37.638 75.4258 37.638V37.638ZM75.4258 84.7013C52.6916 84.7013 34.1963 73.7808 34.1963 60.359C34.1963 46.9401 52.6916 36.0195 75.4258 36.0195C98.16 36.0195 116.652 46.9401 116.652 60.359C116.652 73.7808 98.16 84.7013 75.4258 84.7013Z" fill="#1F1B23"/>
<path d="M75.4286 36.8242C53.1045 36.8242 35.0098 47.3604 35.0098 60.3588C35.0098 61.5252 35.2042 62.6628 35.4848 63.785C38.3425 52.4153 55.1103 43.6795 75.4286 43.6795C95.7469 43.6795 112.515 52.4153 115.369 63.785C115.653 62.6628 115.847 61.5252 115.847 60.3588C115.847 47.3604 97.7497 36.8242 75.4286 36.8242V36.8242Z" fill="#C77E3A"/>
<path d="M75.4258 37.638C53.5847 37.638 35.8148 47.831 35.8148 60.3619C35.8148 60.4061 35.8147 60.4525 35.8169 60.4996C40.7577 50.1195 56.6552 42.8718 75.4258 42.8718C94.1934 42.8718 110.094 50.1195 115.034 60.4996C115.034 60.4525 115.037 60.4061 115.037 60.3619C115.037 47.831 97.2668 37.638 75.4258 37.638V37.638ZM114.883 65.4684L114.582 63.9854C111.792 52.8705 94.957 44.4903 75.4258 44.4903C55.8946 44.4903 39.0591 52.8705 36.2669 63.9854L35.8148 65.7806L34.6978 63.9854C34.3576 62.6269 34.1963 61.476 34.1963 60.3619C34.1963 46.9401 52.6916 36.0195 75.4258 36.0195C98.16 36.0195 116.652 46.9401 116.652 60.3619C116.652 61.4627 116.494 62.6136 116.154 63.9824L114.883 65.4684Z" fill="#1F1B23"/>
<path d="M68.7162 37.3711V44.0135L57.4348 46.1511L46.3457 50.9049L38.3395 57.9206L35.4848 63.7943L35.0098 57.9206L38.4153 50.9049L44.4989 45.216L54.5204 40.2259L66.7994 37.3711H68.7162Z" fill="#2F2B28"/>
<path d="M89.8207 70.2402L79.5834 64.5233C81.5833 63.8554 83.3476 63.5594 84.8747 63.6264C86.3997 63.6971 87.75 64.0579 88.9215 64.7125C90.2359 65.4452 90.9737 66.3229 91.1379 67.3464C91.3013 68.3699 90.8626 69.3367 89.8207 70.2402V70.2402ZM62.8157 62.3563C61.4705 62.2399 60.3328 61.9226 59.405 61.4057C58.3896 60.8372 57.7637 60.1406 57.5244 59.3145C57.2858 58.4861 57.4957 57.6732 58.1606 56.8728L67.2425 61.9432C65.6344 62.3356 64.1618 62.4733 62.8157 62.3563V62.3563ZM96.9799 72.2224C98.5122 70.6893 99.3178 69.1416 99.4268 67.5805C99.4474 67.5908 99.507 67.6144 99.507 67.6144V63.1044L96.4292 61.8371C95.8056 61.346 95.0964 60.8733 94.2857 60.4212C91.4493 58.8395 88.3818 57.9876 85.0749 57.8676C81.7703 57.7461 77.4901 58.598 72.2349 60.419L61.9718 54.6911C64.3693 54.1064 66.8007 54.275 69.2608 55.1925L74.9077 50.8209V46.6621L67.6784 49.145L67.7072 49.2047C66.9848 49.1583 66.2602 49.1347 65.5327 49.1553C62.3532 49.2437 59.2313 50.0073 56.1711 51.4519L54.8434 50.709L55.3479 50.3165V48.3733L49.8379 48.067V54.6108L51.6198 53.2236L52.4385 53.6779C51.5888 54.2934 50.9394 54.9245 50.3812 55.5614C49.438 55.2389 48.7002 54.9952 48.7002 54.9952L48.7157 59.7924C48.8924 61.9432 50.4151 63.8194 53.2853 65.4216C56.1194 67.004 59.3145 67.8817 62.8702 68.0533C66.4267 68.2248 70.3778 67.5805 74.7207 66.1204L85.7215 72.2614C84.3394 72.5625 82.7629 72.6531 80.9913 72.5368C79.8692 72.4639 78.7705 72.2511 77.6873 71.9757L77.9473 71.0693L69.8395 71.6951V75.8562C73.8039 77.4724 77.6557 78.2566 81.3992 78.2043C85.1419 78.155 88.683 77.3472 92.0208 75.7781L96.7981 78.4458L100.531 76.2199V72.0589L96.9799 72.2224V72.2224Z" fill="#C77E3A"/>
<path d="M62.8865 61.546C63.5101 61.5975 64.1669 61.5953 64.8524 61.5305L58.4184 57.938C58.1718 58.4365 58.2262 58.8186 58.3042 59.083C58.481 59.6934 58.9846 60.2368 59.8026 60.6941C60.6266 61.1535 61.6627 61.4392 62.8865 61.546ZM63.7568 63.2005C63.4137 63.2005 63.0757 63.1851 62.7458 63.1563C61.2938 63.0319 60.0367 62.6785 59.0132 62.1071C57.8108 61.4319 57.0496 60.5667 56.7506 59.5329C56.5327 58.7796 56.4935 57.6155 57.5406 56.3504L57.9691 55.8335L69.4346 62.2367L67.4347 62.7249C66.141 63.0422 64.9077 63.2005 63.7568 63.2005V63.2005ZM81.6827 64.7645L89.6941 69.2377C90.2264 68.6531 90.437 68.0714 90.3405 67.4683C90.2183 66.7069 89.6108 66.0163 88.5328 65.4139C87.4776 64.8241 86.234 64.4943 84.8386 64.4295C83.9013 64.3853 82.841 64.4994 81.6827 64.7645ZM89.9252 71.217L77.5939 64.333L79.3294 63.7513C81.4176 63.0547 83.2857 62.7352 84.9115 62.8132C86.5609 62.8891 88.0469 63.2889 89.32 64.0009C90.8523 64.858 91.7329 65.9382 91.9383 67.2135C92.1482 68.5279 91.6158 69.7517 90.3538 70.8451L89.9252 71.217ZM92.0546 74.8662L96.7849 77.5052L99.7257 75.755V72.9002L94.9412 73.1211L96.4108 71.6455C97.7826 70.2715 98.5286 68.8843 98.6221 67.5154L98.7045 66.3984V63.6394L95.9307 62.4679C95.3328 61.9952 94.6473 61.543 93.894 61.1226C91.1851 59.6109 88.2104 58.7848 85.0493 58.6677C81.875 58.5558 77.641 59.3974 72.5029 61.1793L72.1598 61.2993L59.7798 54.3844L61.7848 53.8955C64.1926 53.3116 66.6557 53.4412 69.1179 54.2755L74.1 50.42V47.7891L68.7984 49.6101L68.9987 50.0357L67.6578 50.007C66.959 49.9606 66.2552 49.9318 65.5564 49.9576C62.5043 50.0408 59.4625 50.7889 56.5172 52.1762L56.1431 52.3529L53.3871 50.8154L54.5431 49.9164V49.1322L50.9865 49.6255L50.6516 52.9501L51.5477 52.2491L53.94 53.584L52.9144 54.327C52.2053 54.8417 51.5947 55.405 50.9917 56.0905L50.636 56.4985L49.5162 56.117L49.5294 59.7847C49.6774 61.5769 51.0749 63.255 53.68 64.71C56.3919 66.2239 59.4992 67.0758 62.9151 67.24C66.3383 67.4006 70.235 66.7695 74.4689 65.3484L74.8068 65.2343L87.9871 72.5932L85.8961 73.0482C84.444 73.3597 82.7761 73.4584 80.9427 73.3391C79.8824 73.2691 78.7838 73.0843 77.4901 72.7544L76.6845 72.5468L76.8509 71.9599L70.6532 72.4378V75.3029C74.3238 76.7365 77.9864 77.4898 81.3919 77.3911C85.0022 77.3418 88.4651 76.5524 91.6784 75.0429L92.0546 74.8662V74.8662ZM96.8136 79.3755L91.9876 76.6798C88.6705 78.176 85.117 78.9573 81.4125 79.0096C77.6042 79.064 73.5831 78.2511 69.5392 76.5988L69.0348 76.3941V70.9386L79.0459 70.167L78.7006 71.3775C79.5525 71.5645 80.3139 71.6764 81.0465 71.7258C81.7895 71.7729 82.4986 71.7803 83.1686 71.7567L74.6404 66.9956C70.3491 68.4012 66.3773 69.0242 62.8341 68.8556C59.1694 68.6788 55.8235 67.7592 52.8936 66.1201C49.7863 64.3875 48.1135 62.2786 47.9139 59.8524L47.8955 54.8697L49.0331 54.2467V47.2067L56.1585 47.6043L56.2078 50.5371C59.2393 49.1683 62.3666 48.4275 65.5129 48.3399C66.1513 48.3237 66.7934 48.337 67.4267 48.373L75.7185 45.5234V51.2123L69.4014 56.1016L68.9803 55.9425C67.4767 55.3814 65.962 55.1348 64.4864 55.1605L72.3158 59.5329C77.49 57.7664 81.7998 56.9299 85.1088 57.0522C88.5276 57.1766 91.7483 58.0705 94.6811 59.7096C95.4734 60.1507 96.1979 60.6285 96.8422 61.1278L100.318 62.5562V67.606L100.061 68.7201C99.8377 69.6007 99.4195 70.4711 98.8062 71.323L101.341 71.2067V76.6717L96.8136 79.3755V79.3755Z" fill="#1F1B23"/>
<path d="M89.8211 66.0724C90.8631 65.1682 91.3018 64.2022 91.1383 63.1809C90.9741 62.1574 90.2364 61.2767 88.922 60.5448C87.7505 59.8902 86.4002 59.5287 84.8752 59.4587C83.3481 59.391 81.5837 59.6899 79.5838 60.3578L89.8211 66.0724ZM58.1611 52.7051C57.4962 53.5047 57.2833 54.3176 57.5248 55.1468C57.7642 55.9729 58.3901 56.6717 59.4055 57.2379C60.3333 57.7548 61.4709 58.0715 62.8162 58.1908C64.1622 58.3056 65.6348 58.1701 67.243 57.7777L58.1611 52.7051V52.7051ZM85.7197 68.0929L74.7212 61.9527C70.3783 63.4121 66.4272 64.0593 62.8707 63.8848C59.315 63.7132 56.1199 62.8355 53.2858 61.2539C50.4155 59.6509 48.8929 57.7755 48.7162 55.6246C48.5424 53.476 49.7838 51.4371 52.439 49.5102L49.8384 48.0603L53.5715 45.8314L56.1715 47.2835C59.2317 45.8418 62.3537 45.076 65.5332 44.9876C68.7126 44.8992 71.8354 45.4552 74.9081 46.6554L69.2613 51.024C66.8012 50.1073 64.3698 49.9409 61.9723 50.5226L72.2354 56.2535C77.4905 54.4296 81.7708 53.5806 85.0754 53.6999C88.3823 53.8192 91.4498 54.6711 94.2862 56.2535C97.4531 58.0221 99.1828 60.0743 99.4714 62.407C99.7622 64.7397 98.4789 67.0415 95.6219 69.3116L100.531 72.0522L96.7986 74.2781L92.0212 71.6126C88.6834 73.1795 85.1424 73.9873 81.3997 74.0388C77.6561 74.0881 73.8044 73.3039 69.84 71.6884L75.825 67.2668C77.5009 67.8853 79.2231 68.2542 80.9918 68.3683C82.7634 68.4854 84.3398 68.3948 85.7197 68.0929V68.0929Z" fill="#C77E3A"/>
<path d="M89.5797 68.0239C90.6238 67.1197 91.0605 66.1566 90.8963 65.1331C90.7329 64.1096 89.995 63.2311 88.6836 62.4985C87.5092 61.8439 86.1609 61.4808 84.6338 61.4102C83.1066 61.3432 81.3453 61.6414 79.3447 62.3092L89.5797 68.0239ZM57.9198 54.6595C57.2578 55.4591 57.0442 56.272 57.2835 57.0982C57.5251 57.9273 58.1509 58.6231 59.1641 59.1894C60.0941 59.7092 61.2295 60.0259 62.5748 60.1429C63.9208 60.26 65.3958 60.1223 67.001 59.7299L57.9198 54.6595V54.6595ZM85.4806 70.0473L74.482 63.9071C70.1392 65.3665 66.188 66.0108 62.6323 65.8392C59.0758 65.6676 55.8786 64.787 53.0445 63.2053C50.1742 61.6053 49.3062 59.8388 49.1324 57.688C48.9557 55.5401 49.5425 53.3915 52.1977 51.4638L50.9842 49.6252L53.3324 47.7858L55.9301 49.2357C58.9925 47.7939 62.1124 47.0274 65.2919 46.939C68.4713 46.8507 71.0279 47.8484 74.0976 49.0457L69.02 52.9784C66.5599 52.0588 64.1307 51.8931 61.731 52.4748L71.9939 58.2049C77.2513 56.384 81.5324 55.532 84.8363 55.6513C88.1409 55.7713 91.2085 56.6233 94.0449 58.2079C97.2118 59.9765 98.9415 62.0257 99.2301 64.3584C99.5209 66.6911 98.2405 68.9929 95.3828 71.263L99.7234 74.279L96.5572 76.2325L91.7799 73.5648C88.4421 75.131 84.9041 75.9387 81.1584 75.991C77.4148 76.0403 74.4224 75.5963 70.4587 73.9779L75.5865 69.2212C77.2595 69.8397 78.9817 70.2056 80.7504 70.3227C82.522 70.4368 84.0985 70.3463 85.4806 70.0473Z" fill="#DC9D62"/>
<path d="M58.4189 53.773C58.1722 54.2744 58.2267 54.6536 58.3047 54.9187C58.4815 55.5313 58.9851 56.0718 59.8031 56.529C60.6271 56.9892 61.6632 57.275 62.887 57.381C63.5128 57.4355 64.1674 57.4303 64.8529 57.3685L58.4189 53.773V53.773ZM63.7573 59.0355C63.4142 59.0355 63.0762 59.023 62.7463 58.9943C61.2943 58.8669 60.0372 58.5135 59.0137 57.9421C57.8113 57.2698 57.0501 56.4017 56.7511 55.3678C56.5331 54.6175 56.4918 53.4534 57.5411 52.1862L57.9696 51.6693L69.4351 58.0724L67.4352 58.5606C66.1415 58.8772 64.9082 59.0355 63.7573 59.0355V59.0355ZM81.6832 60.5995L89.6946 65.0727C90.2269 64.488 90.4375 63.9093 90.341 63.304C90.2188 62.5449 89.6084 61.852 88.5304 61.2489C87.4782 60.6591 86.2345 60.3292 84.8391 60.2644C83.9018 60.2284 82.8415 60.3344 81.6832 60.5995V60.5995ZM89.9257 67.052L77.5944 60.1687L79.3299 59.5892C81.4181 58.8905 83.2862 58.5679 84.912 58.6489C86.5614 58.724 88.0445 59.1239 89.3205 59.8359C90.8528 60.693 91.7334 61.7739 91.9388 63.0493C92.1487 64.3658 91.6163 65.5874 90.3543 66.6808L89.9257 67.052ZM92.0551 70.7019L96.7854 73.3432L99.2433 71.886L94.178 69.4266L95.1234 68.6756C97.7286 66.6028 98.9237 64.5271 98.6689 62.5036C98.4171 60.4515 96.8089 58.5864 93.8945 56.9576C91.1856 55.4459 88.2109 54.6197 85.0498 54.5056C81.8755 54.4018 77.6415 55.2331 72.5034 57.015L72.1603 57.1343L59.7803 50.2224L61.7853 49.7334C64.1909 49.1495 66.6562 49.274 69.1184 50.1104L73.6101 46.6534C71.0874 45.8375 68.165 45.7204 65.5569 45.7933C62.5048 45.8787 59.463 46.6247 56.5177 48.0119L56.1436 48.1879L53.5901 46.7646L51.4597 48.0347L53.9405 49.4198L52.9148 50.1627C50.5174 51.9027 49.3767 53.7185 49.5247 55.5578C49.6779 57.4126 51.0754 59.0907 53.6805 60.545C56.3924 62.0596 59.4997 62.9116 62.9156 63.078C66.3623 63.2436 70.2406 62.6052 74.4694 61.1841L74.8073 61.07L87.9876 68.4289L85.8936 68.8832C84.4445 69.1976 82.7766 69.2963 80.9432 69.1741C79.2467 69.0629 77.5738 68.7278 75.9634 68.1719L71.5108 71.4604C74.8854 72.6783 78.2387 73.2865 81.3924 73.2268C85.0027 73.1775 88.4656 72.3874 91.6789 70.8787L92.0551 70.7019V70.7019ZM96.8141 75.2112L91.9881 72.5177C88.671 74.011 85.1175 74.793 81.413 74.8453C77.6047 74.8814 73.5836 74.0861 69.5397 72.4345L69.0278 72.2239L69.0353 70.9354L71.3054 69.6004L75.7005 66.3561L76.1084 66.5093C77.6981 67.0961 79.3608 67.4496 81.047 67.5615C81.79 67.6079 82.4961 67.616 83.1691 67.5924L74.6409 62.8313C70.3525 64.2362 66.3881 64.8599 62.8346 64.6905C59.1699 64.5145 55.824 63.5949 52.8941 61.958C49.7868 60.2232 48.114 58.1136 47.9144 55.6874C47.7399 53.5447 48.7743 51.508 50.987 49.6223L48.2258 48.0819L53.5613 44.8972L56.2083 46.375C59.2398 45.0033 62.3671 44.2662 65.5134 44.1749C68.7754 44.0917 72.5601 44.2868 75.719 45.5202V47.0503L69.4019 51.9365L68.9808 51.7804C67.4743 51.2172 65.9699 50.9521 64.4847 50.9963L72.3163 55.3678C77.4934 53.6014 81.7922 52.7649 85.1093 52.8901C88.5281 53.0123 91.7488 53.9084 94.6816 55.5446C98.0717 57.4384 99.9545 59.7137 100.277 62.3034C100.568 64.6522 99.4796 66.9584 97.0379 69.1718L101.342 71.2034V72.5096L96.8141 75.2112V75.2112Z" fill="#1F1B23"/>
<path d="M81.1094 92.8476V103.588L93.116 101.622L104.668 98.2162L116.65 90.6107L124.02 81.4073L126.033 75.2096L125.856 66.8242L120.214 77.5003L108.927 85.2052L91.9783 91.33L81.1094 92.8476Z" fill="#1F1B23"/>
<path d="M73.6187 93.1386V103.682L68.7119 103.305V92.2344L73.6187 93.1386Z" fill="#1F1B23"/>
<path d="M123.185 46.0949C116.176 34.0162 97.5385 25.3613 75.5841 25.3613C53.6289 25.3613 34.9908 34.0162 27.9824 46.0949H24.9717V56.6392C24.9717 73.9157 47.6307 87.9222 75.5841 87.9222C103.537 87.9222 126.196 73.9157 126.196 56.6392V46.0949H123.185V46.0949Z" fill="#C77E3A"/>
<path d="M25.7767 46.896V56.6296C25.7767 73.4304 48.1162 87.1019 75.5784 87.1019C103.04 87.1019 125.382 73.4304 125.382 56.6296V46.896H122.715L122.481 46.4932C115.423 34.3313 96.5749 26.1595 75.5784 26.1595C54.5819 26.1595 35.7334 34.3313 28.6786 46.4932L28.4445 46.896H25.7767ZM75.5784 88.7203C47.2252 88.7203 24.1582 74.3243 24.1582 56.6296V45.2776H27.5173C35.0271 32.8564 54.2543 24.541 75.5784 24.541C96.8996 24.541 116.127 32.8564 123.639 45.2776H126.998V56.6296C126.998 74.3243 103.931 88.7203 75.5784 88.7203V88.7203Z" fill="#1F1B23"/>
<path d="M126.196 46.0818C126.196 63.3591 103.534 77.3626 75.5841 77.3626C47.6307 77.3626 24.9717 63.3591 24.9717 46.0818C24.9717 28.8082 47.6307 14.8047 75.5841 14.8047C103.534 14.8047 126.196 28.8082 126.196 46.0818Z" fill="#C77E3A"/>
<path d="M126.196 48.573C126.196 65.8496 103.534 79.8538 75.5841 79.8538C47.6307 79.8538 24.9717 65.8496 24.9717 48.573C24.9717 31.2965 47.6307 17.293 75.5841 17.293C103.534 17.293 126.196 31.2965 126.196 48.573Z" fill="#DC9D62"/>
<path d="M75.5784 15.6185C48.1162 15.6185 25.7767 29.287 25.7767 46.0908C25.7767 62.8924 48.1162 76.5609 75.5784 76.5609C103.04 76.5609 125.382 62.8924 125.382 46.0908C125.382 29.287 103.04 15.6185 75.5784 15.6185ZM75.5784 78.1793C47.2252 78.1793 24.1582 63.7833 24.1582 46.0908C24.1582 28.396 47.2252 14 75.5784 14C103.931 14 126.998 28.396 126.998 46.0908C126.998 63.7833 103.931 78.1793 75.5784 78.1793Z" fill="#1F1B23"/>
<path d="M115.997 44.6781C115.997 57.6736 97.8997 68.2098 75.5786 68.2098C53.2545 68.2098 35.1592 57.6736 35.1592 44.6781C35.1592 31.6819 53.2545 21.1465 75.5786 21.1465C97.8997 21.1465 115.997 31.6819 115.997 44.6781Z" fill="#C77E3A"/>
<path d="M75.5817 21.9573C53.7406 21.9573 35.973 32.1525 35.973 44.6812C35.973 57.2091 53.7406 67.4051 75.5817 67.4051C97.422 67.4051 115.193 57.2091 115.193 44.6812C115.193 32.1525 97.422 21.9573 75.5817 21.9573ZM75.5817 69.0236C52.8475 69.0236 34.3545 58.103 34.3545 44.6812C34.3545 31.2616 52.8475 20.3418 75.5817 20.3418C98.3159 20.3418 116.808 31.2616 116.808 44.6812C116.808 58.103 98.3159 69.0236 75.5817 69.0236Z" fill="#1F1B23"/>
<path d="M75.5786 21.1465C53.2545 21.1465 35.1592 31.6819 35.1592 44.6781C35.1592 45.8467 35.3542 46.9821 35.6348 48.1043C38.4925 36.7376 55.2595 27.9988 75.5786 27.9988C95.8969 27.9988 112.665 36.7376 115.519 48.1043C115.802 46.9821 115.997 45.8467 115.997 44.6781C115.997 31.6819 97.8997 21.1465 75.5786 21.1465V21.1465Z" fill="#C77E3A"/>
<path d="M75.5817 21.9573C53.7406 21.9573 35.973 32.1525 35.973 44.6812C35.973 44.7276 35.973 44.7747 35.973 44.8211C40.9138 34.4411 56.8111 27.1941 75.5817 27.1941C94.3515 27.1941 110.249 34.4388 115.19 44.8211C115.19 44.7747 115.193 44.7276 115.193 44.6812C115.193 32.1525 97.422 21.9573 75.5817 21.9573ZM115.039 49.7884L114.741 48.3047C111.948 37.192 95.1129 28.8125 75.5817 28.8125C56.0498 28.8125 39.2172 37.192 36.4221 48.3047L35.973 50.1021L34.856 48.3047C34.5136 46.9491 34.3545 45.7982 34.3545 44.6812C34.3545 31.2616 52.8475 20.3418 75.5817 20.3418C98.3159 20.3418 116.808 31.2616 116.808 44.6812C116.808 45.785 116.65 46.9359 116.31 48.3047L115.039 49.7884Z" fill="#1F1B23"/>
<path d="M68.8662 21.6934V28.3358L57.5849 30.4734L46.4957 35.2271L38.4925 42.2429L35.6348 48.1136L35.1592 42.2429L38.5647 35.2271L44.6512 29.5382L54.6705 24.5481L66.9488 21.6934H68.8662Z" fill="#2F2B28"/>
<path d="M89.9787 54.5495L79.7416 48.8341C81.7444 48.167 83.5049 47.868 85.0328 47.938C86.5577 48.0057 87.9082 48.3695 89.0826 49.0241C90.394 49.7567 91.1319 50.6344 91.2954 51.6579C91.4588 52.6814 91.0199 53.6453 89.9787 54.5495ZM62.9738 46.6678C61.6278 46.5507 60.4931 46.2341 59.5631 45.715C58.5499 45.148 57.9211 44.4522 57.6826 43.6238C57.4433 42.7976 57.6538 41.9847 58.3187 41.1843L67.3998 46.2547C65.7924 46.6472 64.3191 46.7849 62.9738 46.6678V46.6678ZM97.1403 56.5339C98.6704 54.9986 99.4751 53.4531 99.5841 51.8921C99.6055 51.8994 99.6652 51.9252 99.6652 51.9252V47.4137L96.5866 46.1487C95.9659 45.6576 95.2546 45.1848 94.4439 44.7327C91.6075 43.1481 88.5392 42.2991 85.2353 42.1769C81.9284 42.0569 77.6503 42.9096 72.3929 44.7305L62.1292 38.9996C64.5296 38.4179 66.9581 38.5844 69.4181 39.5011L75.0659 35.1317V30.9707L67.8366 33.4565L67.8652 33.5162C67.1429 33.4669 66.4184 33.4433 65.6909 33.4647C62.5114 33.5523 59.3893 34.3188 56.3291 35.7605L55.0016 35.0205L55.5059 34.6251V32.6849L49.999 32.3756V38.9216L51.7778 37.5321L52.596 37.9894C51.7492 38.605 51.0976 39.236 50.5387 39.8729C49.5962 39.5504 48.8584 39.3067 48.8584 39.3067L48.8738 44.1039C49.0505 46.2525 50.5726 48.1279 53.4428 49.7302C56.2769 51.3148 59.4718 52.1932 63.0305 52.3648C66.5869 52.5356 70.5353 51.8921 74.8811 50.4319L85.8796 56.5729C84.4975 56.8711 82.921 56.9624 81.1494 56.8483C80.0272 56.7725 78.9309 56.5626 77.8448 56.2843L78.1047 55.3779L70.0006 56.0037V60.1655C73.9613 61.7832 77.8139 62.5681 81.5574 62.5158C85.3031 62.4643 88.8404 61.6566 92.179 60.0896L96.9555 62.7574L100.689 60.5285V56.3675L97.1403 56.5339V56.5339Z" fill="#C77E3A"/>
<path d="M63.039 45.8744C63.6597 45.9237 64.3196 45.9237 65.0058 45.8582L58.5688 42.2634C58.3244 42.7648 58.3766 43.1441 58.4546 43.4113C58.6306 44.0218 59.1351 44.5652 59.9532 45.0224C60.7764 45.479 61.813 45.7647 63.039 45.8744ZM63.9065 47.5289C63.5641 47.5289 63.2291 47.5134 62.8992 47.4847C61.4442 47.3573 60.1872 47.0039 59.1659 46.4325C57.9606 45.7595 57.1999 44.8951 56.901 43.8583C56.683 43.108 56.6441 41.9416 57.6904 40.6788L58.1197 40.1619L69.585 46.5621L67.5874 47.051C66.2937 47.3677 65.0574 47.5289 63.9065 47.5289V47.5289ZM81.8354 49.0899L89.8437 53.5631C90.3761 52.9814 90.5897 52.399 90.4932 51.7967C90.3688 51.0353 89.7606 50.3417 88.6826 49.7416C87.6282 49.1525 86.3867 48.8197 84.9891 48.7571C84.054 48.7129 82.9915 48.8278 81.8354 49.0899V49.0899ZM90.075 55.5453L77.7443 48.6584L79.482 48.0797C81.5681 47.3831 83.4354 47.0635 85.0642 47.1416C86.7136 47.2167 88.1972 47.6173 89.4726 48.3286C91.0027 49.1834 91.8856 50.2644 92.091 51.5397C92.2986 52.8563 91.7662 54.0771 90.5034 55.1713L90.075 55.5453V55.5453ZM92.2052 59.1924L96.9354 61.8336L99.8763 60.0834V57.2286L95.0908 57.4488L96.5613 55.9739C97.9331 54.5992 98.6782 53.2097 98.7718 51.8431L98.8549 50.7268V47.9678L96.0804 46.7933C95.4832 46.3235 94.7977 45.8714 94.0444 45.451C91.3347 43.9364 88.3608 43.1131 85.1997 42.9961C82.0276 42.8841 77.7936 43.7258 72.6526 45.5055L72.3102 45.6248L59.9296 38.7128L61.9354 38.2239C64.3432 37.64 66.8055 37.7666 69.2685 38.6031L74.2534 34.7462V32.1146L68.9489 33.9377L69.1514 34.364L67.8083 34.3331C67.1095 34.2889 66.4056 34.2602 65.7098 34.2838C62.6547 34.3692 59.6129 35.1151 56.6669 36.5046L56.2928 36.6813L53.5375 35.1431L54.6927 34.2418V33.4598L51.137 33.9539L50.802 37.2762L51.7004 36.5775L54.0904 37.9124L53.0669 38.6554C52.3549 39.1693 51.7445 39.7304 51.1422 40.4167L50.7866 40.8246L49.6665 40.4454L49.6798 44.1131C49.8278 45.9024 51.2253 47.5805 53.8334 49.0354C56.5424 50.5523 59.6491 51.402 63.0649 51.5684C66.4918 51.7289 70.3855 51.0979 74.6194 49.6768L74.9574 49.5627L88.1398 56.9215L86.0465 57.3737C84.5944 57.6851 82.9289 57.7867 81.0925 57.6645C80.0329 57.5968 78.9342 57.4097 77.6405 57.0799L76.835 56.8752L77.0035 56.2854L70.8037 56.7662V59.6312C74.4736 61.0627 78.1368 61.8181 81.5416 61.7195C85.1526 61.6701 88.6155 60.8778 91.8281 59.3684L92.2052 59.1924V59.1924ZM96.964 63.7017L92.1374 61.0074C88.8203 62.5015 85.2666 63.2857 81.5629 63.335C77.7575 63.3924 73.7365 62.5795 69.6888 60.925L69.1852 60.7195V55.267L79.1986 54.4953L78.851 55.7059C79.7029 55.8907 80.4636 56.0019 81.1992 56.0512C81.9392 56.1005 82.6512 56.1086 83.3183 56.0829L74.7931 51.321C70.4996 52.7289 66.5278 53.3503 62.9875 53.1839C59.3191 53.0072 55.9739 52.0875 53.0433 50.4485C49.9397 48.7159 48.2639 46.6063 48.0636 44.1808L48.0459 39.1981L49.1835 38.5751V31.5329L56.3112 31.9305L56.3584 34.8655C59.3899 33.4967 62.517 32.7559 65.6626 32.6675C66.3017 32.6521 66.9431 32.6624 67.5771 32.6992L75.8688 29.8496V35.5407L69.5512 40.427L69.1307 40.2709C67.6264 39.7098 66.1147 39.4631 64.6369 39.4867L72.4685 43.8583C77.6405 42.0948 81.9496 41.2583 85.2594 41.3805C88.6774 41.505 91.8989 42.3982 94.8317 44.0372C95.624 44.479 96.3507 44.9547 96.9928 45.4532L100.47 46.8846V51.9314L100.211 53.0484C99.9874 53.9269 99.5691 54.7972 98.9587 55.6492L101.492 55.5343V61.0001L96.964 63.7017V63.7017Z" fill="#1F1B23"/>
<path d="M89.9768 50.3967C91.021 49.4895 91.4569 48.5264 91.2935 47.5029C91.13 46.4794 90.3921 45.6009 89.0807 44.8683C87.9063 44.2137 86.5559 43.8529 85.0309 43.7829C83.503 43.713 81.7425 44.0112 79.7397 44.6791L89.9768 50.3967V50.3967ZM58.3168 37.0293C57.6519 37.829 57.4414 38.6419 57.6807 39.471C57.9193 40.2972 58.548 40.993 59.5612 41.5592C60.4912 42.0791 61.6259 42.3957 62.9719 42.5128C64.3172 42.6291 65.7905 42.4922 67.398 42.0997L58.3168 37.0293V37.0293ZM85.8777 52.4172L74.8792 46.2762C70.5334 47.7363 66.5851 48.3806 63.0286 48.209C59.4699 48.0375 56.275 47.1597 53.4409 45.5752C50.5707 43.9751 49.0487 42.0997 48.8749 39.9489C48.6982 37.8003 49.9396 35.7613 52.5941 33.8336L49.9971 32.3816L53.7295 30.1557L56.3272 31.6077C59.3874 30.1638 62.5095 29.4002 65.689 29.3118C68.8685 29.2235 71.9935 29.7794 75.064 30.9767L69.4162 35.3461C66.9562 34.4315 64.5277 34.2629 62.1273 34.8446L72.391 40.5747C77.6485 38.7538 81.9265 37.9019 85.2334 38.0211C88.5373 38.1434 91.6057 38.9931 94.442 40.5777C97.6082 42.3464 99.3386 44.3956 99.6265 46.7283C99.9174 49.061 98.6347 51.3627 95.7799 53.6358L100.687 56.3757L96.9536 58.6023L92.1771 55.9346C88.8385 57.5008 85.3012 58.3085 81.5555 58.3608C77.812 58.4124 73.9594 57.6282 69.9987 56.0097L75.9837 51.591C77.6559 52.2095 79.3781 52.5755 81.1475 52.6925C82.9191 52.8096 84.4956 52.7161 85.8777 52.4172V52.4172Z" fill="#C77E3A"/>
<path d="M89.7387 52.3482C90.7806 51.444 91.2194 50.478 91.053 49.4567C90.8895 48.4339 90.1518 47.5532 88.8397 46.8206C87.6682 46.166 86.3177 45.8045 84.7906 45.7345C83.2627 45.6668 81.5021 45.9657 79.5015 46.6336L89.7387 52.3482V52.3482ZM58.0764 38.9809C57.4138 39.7813 57.2009 40.5942 57.4402 41.4226C57.6817 42.2487 58.3076 42.9475 59.323 43.5137C60.2508 44.0306 61.3856 44.3473 62.7316 44.4673C64.0798 44.5814 65.5524 44.4459 67.1576 44.0542L58.0764 38.9809V38.9809ZM85.6374 54.3695L74.6387 48.2285C70.2958 49.6908 66.3447 50.3351 62.7882 50.1613C59.2325 49.9898 56.0346 49.1113 53.2004 47.5297C50.3331 45.9267 49.4629 44.1602 49.2891 42.0124C49.1146 39.8637 49.6992 37.7129 52.3536 35.7859L51.141 33.9495L53.4891 32.1072L56.0869 33.5593C59.1493 32.1183 62.2692 31.3518 65.4487 31.2634C68.6282 31.175 71.1243 32.1463 74.1948 33.3465L69.1759 37.2998C66.7188 36.3831 64.2875 36.2145 61.89 36.7991L72.1507 42.5293C77.4081 40.7054 81.6892 39.8564 84.9931 39.9757C88.297 40.0949 91.3674 40.9469 94.2015 42.5293C97.3678 44.2979 99.0982 46.3501 99.3891 48.6828C99.6799 51.0155 98.3964 53.3172 95.5394 55.5874L99.8802 58.6034L96.7133 60.5539L91.9366 57.8891C88.5981 59.4553 85.0607 60.263 81.315 60.3153C77.5715 60.3647 74.7691 59.741 70.8076 58.1255L75.7425 53.5433C77.4154 54.1611 79.1377 54.5278 80.9093 54.6441C82.6787 54.7612 84.2553 54.6706 85.6374 54.3695V54.3695Z" fill="#DC9D62"/>
<path d="M58.5699 38.0982C58.3254 38.5967 58.3777 38.9759 58.4557 39.241C58.6317 39.8543 59.1362 40.397 59.9542 40.8542C60.7775 41.3137 61.8141 41.5994 63.0401 41.7062C63.6638 41.7607 64.3206 41.7555 65.0069 41.6907L58.5699 38.0982ZM63.9076 43.3607C63.5652 43.3607 63.2302 43.3453 62.9003 43.3165C61.4453 43.1921 60.1883 42.8365 59.167 42.2651C57.9616 41.5921 57.201 40.7269 56.9021 39.6931C56.6841 38.9398 56.6422 37.7764 57.6915 36.5114L58.1208 35.9945L69.5861 42.3947L67.5885 42.8828C66.2948 43.2024 65.0585 43.3607 63.9076 43.3607V43.3607ZM81.8365 44.9247L89.8448 49.3949C90.3772 48.8132 90.5907 48.2315 90.4943 47.6285C90.3698 46.8679 89.7616 46.1764 88.6837 45.5741C87.6292 44.9843 86.3878 44.6545 84.9902 44.5897C84.0551 44.5536 82.9925 44.6596 81.8365 44.9247V44.9247ZM90.0761 51.3772L77.7454 44.4932L79.4831 43.9115C81.5691 43.2157 83.4365 42.8932 85.0653 42.9741C86.7147 43.0493 88.1954 43.4491 89.4708 44.1611C91.0038 45.016 91.8866 46.0962 92.0921 47.3715C92.2997 48.6888 91.7673 49.9096 90.5045 51.006L90.0761 51.3772V51.3772ZM92.2063 55.0271L96.9365 57.6662L99.3935 56.209L94.3284 53.7511L95.2738 53.0008C97.8819 50.928 99.074 48.8523 98.8222 46.8288C98.5681 44.7767 96.9599 42.9116 94.0455 41.2828C91.3358 39.7711 88.3618 38.9449 85.2008 38.8279C82.0286 38.724 77.7947 39.5583 72.6537 41.3373L72.3112 41.4595L59.9307 34.5476L61.9364 34.0587C64.342 33.4747 66.8065 33.5992 69.2696 34.4357L73.7633 30.9756C71.2385 30.1598 68.316 30.0457 65.7109 30.1185C62.6558 30.2018 59.614 30.9499 56.6679 32.3364L56.2939 32.5131L53.741 31.0898L51.6108 32.3577L54.0915 33.7442L53.068 34.4872C50.6675 36.2279 49.53 38.0437 49.678 39.883C49.8289 41.7371 51.2264 43.4152 53.8345 44.8673C56.5435 46.3819 59.6501 47.2338 63.066 47.4002C66.5135 47.5689 70.3917 46.9297 74.6205 45.5093L74.9584 45.3952L88.1387 52.7541L86.0475 53.2084C84.5955 53.5228 82.9278 53.6215 81.0936 53.4971C79.3978 53.3881 77.7248 53.0501 76.1137 52.4971L71.6619 55.7826C75.0358 57.0012 78.3919 57.6117 81.5427 57.552C85.1537 57.5027 88.6166 56.7104 91.8292 55.2009L92.2063 55.0271V55.0271ZM96.9651 59.5364L92.1385 56.84C88.8213 58.3333 85.2677 59.1182 81.564 59.1697C77.7586 59.2066 73.7375 58.4113 69.6899 56.7597L69.1782 56.5491L69.1863 55.2606L71.4564 53.9256L75.8515 50.6813L76.2595 50.8315C77.8522 51.4184 79.5119 51.7748 81.2003 51.886C81.9403 51.9301 82.6471 51.9412 83.3194 51.9176L74.7942 47.1558C70.5029 48.5614 66.5392 49.1851 62.9886 49.0157C59.3202 48.839 55.975 47.9171 53.0444 46.281C49.9408 44.5484 48.2649 42.4388 48.0647 40.0126C47.8909 37.867 48.9247 35.8303 51.1381 33.9475L48.3769 32.4071L53.7146 29.2224L56.3595 30.6973C59.3909 29.3285 62.5181 28.5885 65.6637 28.5001C68.9293 28.4139 72.7111 28.6091 75.8699 29.8432V31.3733L69.5523 36.2618L69.1318 36.1034C67.6252 35.5424 66.121 35.2773 64.638 35.3185L72.4696 39.6931C77.6438 37.9266 81.9433 37.0901 85.2604 37.2124C88.6785 37.3368 91.8999 38.2307 94.8327 39.8698C98.225 41.7636 100.105 44.0389 100.427 46.6286C100.719 48.9745 99.6328 51.2836 97.1912 53.4971L101.493 55.5279V56.8348L96.9651 59.5364V59.5364Z" fill="#1F1B23"/>
<path d="M81.2666 77.1711V87.9149L93.2724 85.946L104.827 82.5426L116.807 74.9371L124.176 65.7315L126.192 59.536L126.013 51.1484L120.371 61.8267L109.084 69.5317L92.1377 75.6543L81.2666 77.1711Z" fill="#1F1B23"/>
<path d="M73.7771 77.4648V88.0083L68.8701 87.6313V76.5605L73.7771 77.4648Z" fill="#1F1B23"/>
</svg>
