<svg width="150" height="150" viewBox="0 0 150 150" fill="none" xmlns="http://www.w3.org/2000/svg">
<path d="M59.3705 124.585C59.0636 124.763 59.0636 125.05 59.3705 125.228C59.6788 125.405 60.1773 125.405 60.4857 125.228C60.7925 125.05 60.7925 124.763 60.4857 124.585C60.1773 124.406 59.6788 124.406 59.3705 124.585Z" fill="#1F1B23"/>
<path d="M60.4846 121.217C60.1777 121.04 59.6792 121.04 59.3709 121.217C59.064 121.395 59.064 121.683 59.3709 121.861C59.6792 122.038 60.1777 122.038 60.4846 121.861C60.7929 121.683 60.7929 121.395 60.4846 121.217Z" fill="#1F1B23"/>
<path d="M60.3731 128.315C60.6814 128.138 60.6814 127.851 60.3742 127.673C60.0673 127.495 59.5688 127.495 59.2609 127.672C58.9525 127.849 58.951 128.137 59.2579 128.314C59.5652 128.493 60.0647 128.493 60.3731 128.315Z" fill="#1F1B23"/>
<path d="M42.2173 87.4975C54.0666 66.1851 62.4965 71.5785 67.7372 74.6047C72.9795 77.6312 83.7469 69.9648 86.8781 45.1365C90.297 18.0357 109.742 4.04492 109.742 4.04492L119.588 9.98348L113.557 28.3913L109.742 33.759V77.7179L48.9632 112.809L45.2337 120.307L34.8792 132.562L25.0345 126.623C25.0345 126.623 30.3674 108.81 42.2173 87.4975V87.4975Z" fill="#C77E3A"/>
<path d="M42.2173 92.2397C54.0666 70.9272 62.4965 76.3207 67.7372 79.3469C72.9795 82.3734 83.7469 74.707 86.8781 49.8776C90.297 22.7764 109.742 8.78711 109.742 8.78711L119.588 14.7257L113.557 33.1338L109.742 38.5012V82.4601L48.9632 117.551L45.2337 125.049L42.1543 128.694L26.0744 128.28C26.0744 128.28 30.3674 113.552 42.2173 92.2397V92.2397Z" fill="#DC9D62"/>
<path d="M62.2712 72.0617L73.2291 78.3476C73.2291 78.3476 78.7055 90.2173 80.9043 94.3664L48.9643 112.808L45.2348 120.306L34.8803 132.561L25.0356 126.623C25.0356 126.623 30.3685 108.809 42.2185 87.4966C50.5775 72.4593 57.2352 70.7215 62.2712 72.0617V72.0617Z" fill="#C77E3A"/>
<path d="M62.2712 75.5546L73.2291 81.8401C73.2291 81.8401 78.7055 93.7098 80.9043 97.8589L48.9643 116.299L45.2348 123.798L40.3358 129.188L33.8466 131.999L27.201 128.082C27.201 128.082 31.1816 112.32 43.0305 91.0074C51.391 75.9702 57.2352 74.2141 62.2712 75.5546V75.5546Z" fill="#DC9D62"/>
<path d="M34.6921 131.429L44.4974 119.826L48.2956 112.185L79.7386 94.0305C77.5644 89.7923 73.3103 80.6161 72.5501 78.9727L61.9871 72.9123C61.8899 72.8877 61.7941 72.8605 61.6972 72.8374C61.46 72.7841 61.2244 72.7375 60.9876 72.7027C60.8386 72.6792 60.6859 72.6637 60.5342 72.6469C60.2351 72.6171 59.9359 72.594 59.6357 72.594C59.5993 72.594 59.5619 72.5966 59.5255 72.5966C56.8279 72.6366 54.128 73.9004 51.3981 76.4153C51.3878 76.4255 51.376 76.4347 51.3658 76.445C50.629 77.1263 49.8909 77.9045 49.1501 78.7667C49.0077 78.9327 48.8667 79.1074 48.7243 79.2796C48.5184 79.5284 48.3125 79.7836 48.1065 80.0464C47.9446 80.2534 47.7813 80.4619 47.6183 80.6781C47.3955 80.9736 47.1715 81.2831 46.9487 81.5951C46.7454 81.8774 46.5435 82.1662 46.3401 82.4628C46.0824 82.8384 45.8248 83.219 45.5671 83.6166C45.4284 83.8302 45.2884 84.0516 45.1501 84.2718C44.9093 84.6525 44.667 85.0423 44.4262 85.4424C44.3058 85.6417 44.1854 85.8388 44.065 86.0433C43.7049 86.6519 43.3437 87.2734 42.981 87.9249C32.5696 106.654 27.1527 122.85 26.0738 126.231L34.6921 131.429V131.429ZM112.765 27.9953L118.537 10.3746L109.801 5.10554C106.882 7.41556 90.7857 21.1567 87.7453 45.2479C84.8784 67.9916 76.2628 73.9276 73.6899 75.2057C72.7638 75.6642 71.8457 75.9414 70.96 76.05L73.9046 77.7309L74.0225 77.9849C74.0742 78.0961 78.8877 88.5244 81.2575 93.1539L108.866 77.2155V33.4835L112.765 27.9953V27.9953ZM24.1937 126.375C24.2481 126.196 29.6921 108.225 41.4503 87.0755C41.8519 86.3528 42.252 85.6638 42.6521 84.992C42.7362 84.8492 42.8217 84.7094 42.9058 84.5695C43.2865 83.9378 43.666 83.3277 44.0455 82.7411C44.0558 82.7257 44.0661 82.7077 44.0779 82.6908C48.3084 76.1576 52.4626 72.3815 56.7024 71.2119C58.8274 70.6268 60.7582 70.7575 62.4933 71.2186H62.4959C64.5875 71.7769 66.3928 72.8165 67.8923 73.6853L68.1757 73.8501C69.4579 74.5894 71.1413 74.5156 72.9102 73.6361C77.8052 71.2057 83.8164 62.4142 86.0086 45.0291C89.4364 17.8648 109.033 3.4805 109.23 3.33771L109.7 3L120.464 9.49137V10.126L114.388 28.666L110.618 34.0414V78.2257L49.6292 113.438L46.0175 120.699L35.4468 133.247L34.8786 133.587L23.9995 127.025L24.1937 126.375Z" fill="#1F1B23"/>
<path d="M119.588 83.6543V9.98242C119.588 9.98242 100.141 23.9721 96.7238 51.0729C93.5926 75.9027 82.8237 83.5676 77.583 80.5425C72.3423 77.516 63.9109 72.1226 52.062 93.435C40.2128 114.747 34.8792 132.561 34.8792 132.561L119.588 83.6543V83.6543Z" fill="#C77E3A"/>
<path d="M118.712 83.1544L36.4115 130.669C38.2076 125.314 43.5221 110.6 52.8268 93.8635C57.6685 85.1565 62.4431 80.1007 67.0143 78.8384C70.9897 77.7412 74.2438 79.6243 76.8611 81.1407L77.1433 81.3037C78.9523 82.3487 81.2227 82.2918 83.5327 81.1432C86.107 79.8651 94.7237 73.9291 97.591 51.1854C100.388 29.0144 114.248 15.6076 118.712 11.8135V83.1544V83.1544ZM33.8449 132.964L34.8786 133.587L120.464 84.1643V9.49141L119.544 8.9375L119.076 9.27521C118.877 9.41763 99.281 23.8023 95.8543 50.9681C93.6618 68.3528 87.6494 77.1443 82.7545 79.5736C80.987 80.4531 79.3022 80.528 78.02 79.7887L77.7377 79.6254C74.9927 78.0341 71.2331 75.8584 66.5481 77.1509C61.4354 78.5612 56.4462 83.7498 51.2961 93.0141C39.5375 114.164 34.0937 132.134 34.0394 132.314L33.8449 132.964V132.964Z" fill="#1F1B23"/>
<path d="M63.173 110.064C72.8385 92.6782 79.716 97.0784 83.9906 99.5466C88.2667 102.015 97.0504 95.7617 99.6053 75.5071C102.394 53.3992 118.257 41.9883 118.257 41.9883L126.288 46.8311L121.367 61.8489L118.257 66.2271V102.086L68.6751 130.711L65.6335 136.829L57.1878 146.826L49.1562 141.981C49.1562 141.981 53.5075 127.449 63.173 110.064V110.064Z" fill="#C77E3A"/>
<path d="M63.173 113.928C72.8385 96.5415 79.716 100.942 83.9906 103.41C88.2667 105.878 97.0504 99.6249 99.6053 79.3715C102.394 57.264 118.257 45.8516 118.257 45.8516L126.288 50.6959L121.367 65.7122L118.257 70.0907V105.95L68.6751 134.575L65.6335 140.692L63.1212 143.665L50.0045 143.327C50.0045 143.327 53.5075 131.313 63.173 113.928V113.928Z" fill="#DC9D62"/>
<path d="M79.5263 97.4712L88.4643 102.599C88.4643 102.599 92.9316 112.282 94.7266 115.667L68.6704 130.709L65.6288 136.827L57.1831 146.823L49.1515 141.979C49.1515 141.979 53.5028 127.447 63.1683 110.062C69.9875 97.7949 75.4173 96.3769 79.5263 97.4712V97.4712Z" fill="#C77E3A"/>
<path d="M79.5263 100.319L88.4643 105.447C88.4643 105.447 92.9316 115.131 94.7266 118.515L68.6704 133.558L65.6288 139.674L61.6324 144.072L56.3384 146.366L50.9178 143.169C50.9178 143.169 54.1643 130.312 63.8312 112.927C70.6504 100.66 75.4173 99.2259 79.5263 100.319V100.319Z" fill="#DC9D62"/>
<path d="M57.0316 145.901L65.0295 136.436L68.1283 130.204L93.7774 115.393C92.0048 111.935 88.5341 104.451 87.9141 103.11L79.2974 98.1663C79.2184 98.1454 79.1406 98.1234 79.0602 98.1054C78.8675 98.0613 78.6744 98.0235 78.4813 97.9953C78.3598 97.9758 78.2354 97.9629 78.1124 97.9497C77.8676 97.9266 77.6228 97.9057 77.3794 97.9072C77.3497 97.9057 77.3184 97.9086 77.2887 97.9097C75.0888 97.942 72.886 98.9728 70.66 101.024C70.6509 101.032 70.6417 101.04 70.6325 101.049C70.032 101.604 69.4296 102.239 68.8261 102.942C68.7098 103.078 68.5945 103.219 68.4778 103.36C68.3108 103.562 68.1426 103.772 67.9741 103.986C67.842 104.156 67.7087 104.325 67.5766 104.501C67.3941 104.742 67.2128 104.995 67.03 105.249C66.8645 105.48 66.6986 105.716 66.533 105.957C66.323 106.264 66.1134 106.574 65.9024 106.898C65.7897 107.073 65.6755 107.253 65.5628 107.433C65.3661 107.744 65.1693 108.061 64.9726 108.387C64.8738 108.551 64.7755 108.711 64.6771 108.878C64.3831 109.374 64.0894 109.882 63.7939 110.413C55.299 125.69 50.882 138.903 50.0013 141.662L57.0316 145.901V145.901ZM120.719 61.5251L125.428 47.1511L118.302 42.853C115.92 44.7372 102.791 55.9478 100.311 75.5988C97.9705 94.1531 90.9428 98.9948 88.8439 100.037C88.0888 100.412 87.3389 100.637 86.6165 100.726L89.0197 102.098L89.1144 102.305C89.157 102.395 93.0847 110.902 95.017 114.678L117.539 101.677V66.0031L120.719 61.5251V61.5251ZM48.4681 141.778C48.5121 141.633 52.9526 126.973 62.5443 109.72C62.8721 109.131 63.1985 108.569 63.5248 108.021C63.5931 107.904 63.6632 107.79 63.7319 107.675C64.0428 107.161 64.3522 106.662 64.6617 106.185C64.6708 106.172 64.6785 106.157 64.6873 106.143C68.1401 100.813 71.5274 97.7335 74.9864 96.7791C76.719 96.3027 78.2949 96.4087 79.7103 96.7843L79.7118 96.7857C81.4183 97.2391 82.8921 98.0885 84.1145 98.7969L84.3465 98.9313C85.3927 99.5348 86.764 99.4742 88.2077 98.7566C92.2015 96.774 97.1042 89.6024 98.8941 75.4201C101.689 53.2608 117.675 41.5272 117.836 41.4119L118.219 41.1348L127 46.4309V46.9478L122.044 62.0728L118.967 66.4575V102.5L69.216 131.225L66.2698 137.148L57.6469 147.385L57.1846 147.661L48.3088 142.309L48.4681 141.778V141.778Z" fill="#1F1B23"/>
<path d="M126.288 106.926V46.8262C126.288 46.8262 110.425 58.2389 107.637 80.3465C105.082 100.601 96.2979 106.855 92.0222 104.386C87.7476 101.918 80.8701 97.5176 71.2042 114.903C61.5373 132.289 57.1878 146.821 57.1878 146.821L126.288 106.926V106.926Z" fill="#C77E3A"/>
<path d="M125.57 106.517L58.4342 145.276C59.8988 140.908 64.2344 128.906 71.8255 115.253C75.7749 108.15 79.6688 104.025 83.3983 102.996C86.6411 102.101 89.2958 103.637 91.4311 104.875L91.6616 105.007C93.1365 105.859 94.9895 105.814 96.8737 104.876C98.973 103.834 106.002 98.9918 108.342 80.4387C110.623 62.3521 121.929 51.4161 125.57 48.3199V106.517V106.517ZM56.34 147.149L57.1846 147.657L127 107.34V46.4265L126.25 45.9746L125.867 46.2507C125.706 46.3655 109.72 58.1006 106.925 80.2603C105.136 94.4426 100.232 101.614 96.2379 103.597C94.7968 104.313 93.4228 104.375 92.3763 103.771L92.1457 103.638C89.9069 102.339 86.8393 100.565 83.0177 101.619C78.848 102.77 74.7779 107.003 70.5756 114.56C60.9839 131.812 56.5433 146.472 56.4993 146.618L56.34 147.149V147.149Z" fill="#1F1B23"/>
</svg>
