<svg width="342" height="101" viewBox="0 0 342 101" fill="none" xmlns="http://www.w3.org/2000/svg">
<path d="M144.228 22.5864H143.581L143.402 23.209L128.486 75.3364H126.045H125.186V76.1952V81.4453V82.3042H126.045H175.943H176.801V81.4453V76.1952V75.3364H175.943H172.844V23.4453V22.5864H171.986H144.228ZM226.166 38.5058V37.6469H225.308H217.567H217.125L216.868 38.0063L193.911 70.1251V38.5058V37.6469H193.053H187.204H186.345V38.5058V81.4453V82.3042H187.204H193.13H193.569L193.826 81.9485L218.6 47.6748V81.4453V82.3042H219.459H225.308H226.166V81.4453V38.5058ZM261.93 22.5864H261.367L261.142 23.1027L235.913 81.1027L235.391 82.3042H236.701H243.032H243.596L243.82 81.7874L252.05 62.8367H278.121L286.351 81.7874L286.576 82.3042H287.139H293.471H294.777L294.259 81.1047L269.204 23.1047L268.98 22.5864H268.416H261.93ZM340.86 38.5058V37.6469H340.001H318.246H317.6L317.421 38.2686L305.087 81.2082L304.772 82.3042H305.912H312.089H312.74L312.916 81.6768L323.26 44.7105H333.448V81.4453V82.3042H334.306H340.001H340.86V81.4453V38.5058ZM165.278 29.5543V75.3364H136.423L149.223 29.5543H165.278ZM265.167 32.3107L275.094 55.8689H255.086L265.167 32.3107Z" fill="white" stroke="white" stroke-width="1.71776"/>
<mask id="mask0_1065_118" style="mask-type:alpha" maskUnits="userSpaceOnUse" x="124" y="21" width="218" height="63">
<path d="M144.228 22.5864H143.581L143.402 23.209L128.486 75.3364H126.045H125.186V76.1952V81.4453V82.3042H126.045H175.943H176.801V81.4453V76.1952V75.3364H175.943H172.844V23.4453V22.5864H171.986H144.228ZM226.166 38.5058V37.6469H225.308H217.567H217.125L216.868 38.0063L193.911 70.1251V38.5058V37.6469H193.053H187.204H186.345V38.5058V81.4453V82.3042H187.204H193.13H193.569L193.826 81.9485L218.6 47.6748V81.4453V82.3042H219.459H225.308H226.166V81.4453V38.5058ZM261.93 22.5864H261.367L261.142 23.1027L235.913 81.1027L235.391 82.3042H236.701H243.032H243.596L243.82 81.7874L252.05 62.8367H278.121L286.351 81.7874L286.576 82.3042H287.139H293.471H294.777L294.259 81.1047L269.204 23.1047L268.98 22.5864H268.416H261.93ZM340.86 38.5058V37.6469H340.001H318.246H317.6L317.421 38.2686L305.087 81.2082L304.772 82.3042H305.912H312.089H312.74L312.916 81.6768L323.26 44.7105H333.448V81.4453V82.3042H334.306H340.001H340.86V81.4453V38.5058ZM165.278 29.5543V75.3364H136.423L149.223 29.5543H165.278ZM265.167 32.3107L275.094 55.8689H255.086L265.167 32.3107Z" fill="white" stroke="white" stroke-width="1.71776"/>
</mask>
<g mask="url(#mask0_1065_118)">
<rect x="230.326" y="14.5215" width="145.634" height="89.2366" fill="#DC9D62"/>
</g>
<path d="M50.2548 101C78.0098 101 100.51 78.3904 100.51 50.5C100.51 22.6096 78.0098 0 50.2548 0C22.4998 0 0 22.6096 0 50.5C0 78.3904 22.4998 101 50.2548 101Z" fill="#DC9D62"/>
<path d="M47.8319 86.2533C38.5166 86.2533 29.7419 82.611 23.1299 75.9998L21.96 74.8211L29.8749 60.2694C25.0178 55.5813 21.9954 49.0055 21.9954 41.7385C21.9954 27.2577 33.5709 15.9141 48.3459 15.9141C67.7654 15.9141 82.9837 31.3697 82.9837 51.097C82.9837 70.4786 67.2159 86.2533 47.8319 86.2533ZM27.4552 73.9969C33.0745 79.0572 40.2449 81.8223 47.8319 81.8223C55.7113 81.8223 62.9083 78.8357 68.3592 73.9438L62.3145 63.061C58.0601 65.9589 52.9814 67.5364 47.7964 67.5364C42.4607 67.5364 37.4973 65.9057 33.3847 63.123L27.4552 73.9969ZM46.2057 31.0824H49.4053L71.5589 70.585C75.9285 65.2765 78.552 58.4881 78.552 51.097C78.552 33.8512 65.2837 20.3452 48.3459 20.3452C36.0614 20.3452 26.4271 29.7391 26.4271 41.7385C26.4271 47.3128 28.572 52.3997 32.0818 56.2016L46.2057 31.0824ZM35.5031 59.2059C38.9775 61.6608 43.223 63.1053 47.7876 63.1053C52.2192 63.1053 56.5445 61.7139 60.143 59.1705L47.7078 36.7845L35.5031 59.2059Z" fill="white"/>
</svg>
