<svg width="123" height="37" viewBox="0 0 123 37" fill="none" xmlns="http://www.w3.org/2000/svg">
<path d="M12.1133 1.14112H11.4644L11.2871 1.76532L3.06887 30.6973H2H1.14112V31.5562V34.4979V35.3568H2H29.7526H30.6115V34.4979V31.5562V30.6973H29.7526H28.4106V2V1.14112H27.5517H12.1133ZM58.0677 10.4385V9.57962H57.2088H52.9037H52.46L52.2032 9.94151L40.1278 26.9611V10.4385V9.57962H39.269H36.016H35.1571V10.4385V34.4979V35.3568H36.016H39.3119H39.7527L40.0097 34.9986L53.0969 16.759V34.4979V35.3568H53.9558H57.2088H58.0677V34.4979V10.4385ZM77.5778 1.14112H77.0131L76.7892 1.65953L62.7573 34.1574L62.2394 35.3568H63.5458H67.0672H67.6322L67.8559 34.8379L72.3346 24.449H86.3316L90.8103 34.8379L91.034 35.3568H91.599H95.1204H96.4232L95.9098 34.1594L81.9744 1.66151L81.7513 1.14112H81.1851H77.5778ZM121.859 10.4385V9.57962H121H108.901H108.252L108.075 10.203L101.214 34.2624L100.902 35.3568H102.04H105.476H106.129L106.303 34.7278L111.98 14.2927H116.974V34.4979V35.3568H117.833H121H121.859V34.4979V10.4385ZM23.4398 5.80054V30.6973H8.27226L15.1819 5.80054H23.4398ZM79.3753 7.94731L84.3288 19.7896H74.3451L79.3753 7.94731Z" fill="white" stroke="white" stroke-width="1.71776"/>
<mask id="mask0_779_95" style="mask-type:alpha" maskUnits="userSpaceOnUse" x="0" y="0" width="123" height="37">
<path d="M12.1133 1.14112H11.4644L11.2871 1.76532L3.06887 30.6973H2H1.14112V31.5562V34.4979V35.3568H2H29.7526H30.6115V34.4979V31.5562V30.6973H29.7526H28.4106V2V1.14112H27.5517H12.1133ZM58.0677 10.4385V9.57962H57.2088H52.9037H52.46L52.2032 9.94151L40.1278 26.9611V10.4385V9.57962H39.269H36.016H35.1571V10.4385V34.4979V35.3568H36.016H39.3119H39.7527L40.0097 34.9986L53.0969 16.759V34.4979V35.3568H53.9558H57.2088H58.0677V34.4979V10.4385ZM77.5778 1.14112H77.0131L76.7892 1.65953L62.7573 34.1574L62.2394 35.3568H63.5458H67.0672H67.6322L67.8559 34.8379L72.3346 24.449H86.3316L90.8103 34.8379L91.034 35.3568H91.599H95.1204H96.4232L95.9098 34.1594L81.9744 1.66151L81.7513 1.14112H81.1851H77.5778ZM121.859 10.4385V9.57962H121H108.901H108.252L108.075 10.203L101.214 34.2624L100.902 35.3568H102.04H105.476H106.129L106.303 34.7278L111.98 14.2927H116.974V34.4979V35.3568H117.833H121H121.859V34.4979V10.4385ZM23.4398 5.80054V30.6973H8.27226L15.1819 5.80054H23.4398ZM79.3753 7.94731L84.3288 19.7896H74.3451L79.3753 7.94731Z" fill="white" stroke="white" stroke-width="1.71776"/>
</mask>
<g mask="url(#mask0_779_95)">
<rect x="60" y="-3" width="81" height="50" fill="#DC9D62"/>
</g>
</svg>
