<svg width="170" height="170" viewBox="0 0 170 170" fill="none" xmlns="http://www.w3.org/2000/svg">
<path d="M106.939 37.6627C107.206 36.5944 106.672 35.5261 105.871 34.992L89.5796 25.6446C88.7784 25.3776 87.9772 24.8434 87.176 24.5764L86.6419 24.3093H86.3748C78.8969 20.8374 68.4813 22.1728 56.9974 28.8494C34.0297 42.2028 15.335 71.8473 15.335 95.3492C15.335 105.498 18.5398 112.441 24.1482 116.447L24.4152 116.715L24.9494 116.982C25.7506 117.516 26.2847 117.783 27.0859 118.317L35.0979 122.857V136.21C35.0979 137.012 35.365 137.813 35.8991 137.813L52.4573 147.16C52.9914 147.427 54.0597 147.16 54.3268 146.626L59.6681 131.136L60.4693 126.596L47.383 123.391L51.9232 116.447C53.5256 115.646 55.395 114.845 56.9974 113.777C66.8789 108.168 75.6921 99.6222 82.9029 89.7408L95.188 80.6605L106.939 37.6627Z" fill="#C77E3A"/>
<path d="M107.474 44.6055C107.741 43.5372 107.207 42.469 106.406 41.9348L90.1148 32.5875C89.3136 32.0533 88.7794 31.7863 87.9782 31.2521L87.4441 30.9851H87.177C79.6992 27.5132 69.2835 28.8485 57.7997 35.5252C34.5648 48.8786 15.8701 78.7901 15.8701 102.292C15.8701 112.441 52.4583 123.39 52.4583 123.39C54.0607 122.589 55.9302 121.788 57.5326 120.72C67.4141 115.111 76.2273 106.565 83.4381 96.6836L95.7232 87.6033L107.474 44.6055Z" fill="#DC9D62"/>
<path d="M53.2589 148.763C52.7247 148.763 52.4577 148.763 51.9235 148.496L35.3654 138.882C34.5642 138.615 33.763 137.546 33.763 135.944V123.392L26.5522 119.119C25.751 118.852 24.9498 118.318 24.1486 117.783L23.3474 117.249C17.2048 113.243 14 105.498 14 95.3497C14 71.5808 32.9618 41.1351 56.1966 27.5147C67.6805 20.838 78.6303 19.2356 86.9093 22.9745L87.7105 23.5087C88.5117 24.0428 89.3129 24.3099 90.1141 24.844L106.405 34.1914C107.741 34.9926 108.542 36.595 108.008 38.1974L96.2567 81.4622L83.7045 90.8096C76.2267 101.225 67.1464 109.504 57.5319 115.113C55.9295 115.914 54.3271 116.982 52.7247 117.783L49.5199 122.858L62.0721 126.062L61.0038 131.938L55.6625 147.428C55.3954 148.229 54.8613 148.763 54.0601 149.03C53.793 148.763 53.5259 148.763 53.2589 148.763ZM77.2949 23.5087C71.4194 23.5087 64.7428 25.6452 57.5319 29.6512C35.0983 42.7375 16.6707 72.1149 16.6707 95.3497C16.6707 104.697 19.3413 111.641 24.9498 115.38L25.4839 115.914C26.2851 116.448 26.8192 116.715 27.6204 116.982L36.1666 122.056V136.211C36.1666 136.478 36.1666 136.745 36.1666 136.745L52.9918 146.36L58.0661 131.137L58.6002 127.932L45.2469 124.193L50.8553 115.38L51.1223 115.113C52.7247 114.311 54.5942 113.51 56.1966 112.442C65.544 107.101 74.3572 98.8216 81.568 88.6731L81.8351 88.406L93.8531 79.5928L105.337 37.1291C105.337 36.595 105.337 36.3279 104.803 36.0608L88.7788 26.9806C87.9776 26.4464 87.4435 26.1794 86.6423 25.6452L85.8411 25.3782C83.4375 24.3099 80.4997 23.5087 77.2949 23.5087Z" fill="#1F1B23"/>
<path d="M54.3264 123.658L43.9107 126.329L33.4951 120.453V136.21C33.4951 137.545 34.0293 138.614 35.0975 139.148L52.4569 149.029C52.724 149.296 52.991 149.296 53.2581 149.296C53.5252 149.296 53.7922 149.296 53.7922 149.296C54.3264 149.029 54.5934 148.762 54.8605 148.228L60.4689 131.937L61.5372 126.062L54.3264 123.658Z" fill="#1F1B23"/>
<path d="M74.6234 38.7312C51.6556 52.0846 32.9609 81.9961 32.9609 105.498C32.9609 120.721 40.7059 129.534 52.7239 130.335V146.359C52.7239 148.763 55.1275 148.763 56.7299 146.092L69.5491 126.596C71.1515 125.795 73.021 124.994 74.6234 123.926C97.5912 110.572 116.286 80.9278 116.286 57.4259C116.286 33.6569 97.5912 25.3779 74.6234 38.7312Z" fill="#C77E3A"/>
<path d="M54.0596 149.297C53.7926 149.297 53.5255 149.297 53.2584 149.297C51.9231 149.03 51.3889 147.695 51.3889 146.36V131.671C39.1039 130.336 31.626 120.454 31.626 105.765C31.626 81.9964 50.5877 51.5507 73.8226 37.9303C86.1077 30.7195 98.1257 29.3841 106.405 34.1913C113.616 38.4644 117.622 46.7435 117.622 57.4262C117.622 81.1952 98.6598 111.641 75.425 125.261C73.8226 126.062 72.2202 127.131 70.6178 127.932L58.0656 147.161C56.9974 148.496 55.395 149.297 54.0596 149.297ZM95.188 33.6572C89.3125 33.6572 82.3687 35.7937 75.425 39.7998C52.7243 52.886 34.2966 82.2634 34.2966 105.498C34.2966 119.386 41.2404 128.199 52.7243 129H54.0596V146.36C54.0596 146.627 54.0596 146.894 54.0596 146.894C54.0596 146.894 54.8608 146.627 55.662 145.558L68.4812 125.795L68.7483 125.528C70.6178 124.727 72.2202 123.926 73.8226 122.858C96.5233 109.771 114.684 80.394 114.684 57.4262C114.684 47.5447 111.212 40.0668 104.802 36.3279C102.399 34.7255 98.9269 33.6572 95.188 33.6572Z" fill="#1F1B23"/>
<path d="M64.4737 92.1442C64.4737 95.8831 61.803 100.156 58.8652 102.026C55.6604 103.895 53.2568 102.293 53.2568 98.8209C53.2568 95.0819 55.9275 90.8088 58.8652 88.9394C62.0701 86.8028 64.4737 88.4052 64.4737 92.1442Z" fill="#DC9D62"/>
<path d="M53.7921 101.226C52.9909 101.226 52.4568 100.959 51.9227 100.691C50.5873 99.8902 49.7861 98.2878 49.7861 96.1513C49.7861 92.1453 52.4568 87.3381 55.9287 85.4686C57.7981 84.4003 59.6676 84.1333 61.003 85.2015C62.3383 86.0027 63.1395 87.6051 63.1395 89.7417C63.1395 93.7477 60.4688 98.5549 56.9969 100.424C55.9287 100.691 54.8604 101.226 53.7921 101.226ZM59.1335 86.2698C58.5993 86.2698 57.7981 86.5369 56.9969 86.8039C54.0592 88.4063 51.6556 92.6794 51.6556 95.8842C51.6556 97.2196 52.1897 98.2878 52.7239 98.822C53.5251 99.3561 54.5933 99.089 55.6616 98.5549C58.5994 96.9525 61.003 92.6794 61.003 89.4746C61.003 88.1393 60.4688 87.071 59.9347 86.5369C59.6676 86.5369 59.4006 86.2698 59.1335 86.2698Z" fill="#1F1B23"/>
<path d="M83.4365 81.193C83.4365 84.932 80.7659 89.205 77.8281 91.0745C74.6233 92.944 72.2197 91.3416 72.2197 87.8697C72.2197 84.1307 74.8904 79.8577 77.8281 77.9882C81.0329 75.8517 83.4365 77.4541 83.4365 81.193Z" fill="#DC9D62"/>
<path d="M73.0207 90.2744C72.2195 90.2744 71.6853 90.0073 71.1512 89.7403C69.8158 88.9391 69.0146 87.3367 69.0146 85.2001C69.0146 81.1941 71.6853 76.3869 75.1572 74.5174C77.0267 73.4492 78.8961 73.1821 80.2315 74.2504C81.5668 75.0516 82.368 76.654 82.368 78.7905C82.368 82.7965 79.6973 87.6037 76.2255 89.4732C74.8901 89.7403 73.8219 90.2744 73.0207 90.2744ZM78.0949 75.3186C77.5608 75.3186 76.7596 75.5857 75.9584 75.8528C73.0207 77.4552 70.6171 81.7283 70.6171 84.9331C70.6171 86.2684 71.1512 87.3367 71.6853 87.8708C72.4865 88.4049 73.5548 88.1379 74.6231 87.6037C77.5608 86.0013 79.9644 81.7283 79.9644 78.5234C79.9644 77.1881 79.4303 76.1198 78.8961 75.5857C78.6291 75.5857 78.362 75.3186 78.0949 75.3186Z" fill="#1F1B23"/>
<path d="M102.397 69.9768C102.397 73.7158 99.7268 77.9888 96.7891 79.8583C93.5843 81.7278 91.1807 80.1254 91.1807 76.6535C91.1807 73.1816 93.8513 68.6415 96.7891 66.772C99.9939 64.9025 102.397 66.5049 102.397 69.9768Z" fill="#DC9D62"/>
<path d="M91.9816 79.3252C91.1804 79.3252 90.6463 79.0581 90.1121 78.791C88.7768 77.9898 87.9756 76.3874 87.9756 74.2509C87.9756 70.2449 90.6463 65.4377 94.1181 63.5682C95.9876 62.4999 97.8571 62.2329 99.1924 63.3012C100.528 64.1024 101.329 65.7048 101.329 67.8413C101.329 71.8473 98.6583 76.6545 95.1864 78.524C93.8511 78.791 92.7828 79.3252 91.9816 79.3252ZM97.0559 64.3694C96.5217 64.3694 95.7205 64.6365 94.9193 64.9036C91.9816 66.506 89.578 70.779 89.578 73.9838C89.578 75.3192 90.1121 76.3874 90.6463 76.9216C91.4475 77.4557 92.5157 77.1886 93.584 76.6545C96.5217 75.0521 98.9253 70.779 98.9253 67.5742C98.9253 66.2389 98.3912 65.1706 97.8571 64.6365C97.59 64.6365 97.3229 64.3694 97.0559 64.3694Z" fill="#1F1B23"/>
<path d="M147.801 77.4531L134.981 70.2423C129.907 67.5716 122.696 68.1057 114.684 72.6459C99.7285 81.4591 87.4434 100.955 87.4434 116.178C87.4434 123.122 89.5799 127.662 93.5859 130.332L94.12 130.599L107.206 137.81L109.343 130.867C111.212 130.332 113.082 129.264 114.951 128.196C115.218 128.196 115.218 127.929 115.485 127.929L122.963 132.469C124.032 133.27 126.168 131.134 126.168 128.997V119.116C135.515 109.234 142.192 95.8807 142.192 84.6639C142.192 84.3968 142.192 84.1298 142.192 83.8627L147.801 77.4531Z" fill="#C77E3A"/>
<path d="M148.067 83.5957L135.248 76.3849C130.174 73.7142 122.963 74.2483 114.951 78.7885C99.995 87.6017 87.71 107.098 87.71 122.32C87.71 129.264 126.168 125.258 126.168 125.258C135.515 115.377 142.192 102.023 142.192 90.8065C142.192 90.5394 142.192 90.2723 142.192 90.0053L148.067 83.5957Z" fill="#DC9D62"/>
<path d="M108.007 139.681L92.7841 131.135C88.244 128.464 86.1074 123.39 86.1074 115.912C86.1074 100.155 98.6596 80.125 113.882 71.3118C121.627 66.7717 129.105 65.7034 134.714 68.6411L135.248 68.9082L149.669 76.9202L142.993 84.3981V84.6652C142.993 95.6149 136.85 109.235 126.969 119.651V128.998C126.969 130.601 125.9 132.737 124.298 133.538C123.497 134.073 122.429 134.073 121.627 133.538L115.218 129.532C113.615 130.601 112.013 131.402 110.411 131.936L108.007 139.681ZM128.037 69.9765C124.298 69.9765 119.758 71.3118 115.485 73.9825C100.796 82.2616 88.7781 101.223 88.7781 116.179C88.7781 122.589 90.6476 126.862 94.3865 128.998L94.9206 129.265L106.405 135.675L108.007 129.8L108.541 129.532C110.143 128.998 112.013 127.93 113.882 127.129L114.951 126.328L123.23 131.402C123.497 131.402 124.565 130.067 124.565 129.265V118.85L124.832 118.583C134.18 108.701 140.322 95.6149 140.322 84.9322V83.5969L145.396 77.7214L134.714 71.846L134.18 71.3118C132.577 70.5106 130.441 69.9765 128.037 69.9765Z" fill="#1F1B23"/>
<path d="M155.544 92.4098C155.544 76.9199 143.259 71.5785 128.303 80.3917C113.348 89.205 101.062 108.434 101.062 123.924C101.062 139.414 113.348 144.755 128.303 135.942C128.57 135.942 128.57 135.675 128.837 135.675L136.315 140.215C137.384 141.016 139.52 138.879 139.52 136.743V126.861C149.135 116.98 155.544 103.627 155.544 92.4098Z" fill="#C77E3A"/>
<path d="M137.117 141.549C136.583 141.549 136.316 141.549 135.782 141.282L128.838 137.276C120.559 141.816 112.814 142.885 107.205 139.68C102.398 137.009 99.7275 131.401 99.7275 123.923C99.7275 108.166 112.28 88.1358 127.503 79.3226C135.782 74.5154 143.527 73.7142 149.135 76.919C153.942 79.5896 156.613 85.1981 156.613 92.6759C156.613 103.626 150.47 117.246 140.589 127.662V137.009C140.589 138.611 139.521 140.748 137.918 141.549C137.918 141.549 137.384 141.549 137.117 141.549ZM128.838 134.071L137.117 139.146C137.384 139.146 138.452 137.81 138.452 137.009V126.593L138.719 126.326C148.067 116.445 154.209 103.359 154.209 92.6759C154.209 86.2663 152.073 81.7262 148.067 79.3226C143.259 76.6519 136.316 77.4531 129.105 81.7262C114.416 90.2723 102.665 109.234 102.665 124.19C102.665 130.599 104.802 135.14 108.808 137.543C113.615 140.214 120.559 139.413 127.77 135.14L128.838 134.071Z" fill="#1F1B23"/>
<path d="M120.708 119.489C122.183 116.935 122.136 114.146 120.603 113.261C119.07 112.376 116.632 113.73 115.157 116.285C113.682 118.839 113.729 121.628 115.262 122.513C116.794 123.398 119.233 122.044 120.708 119.489Z" fill="#DC9D62"/>
<path d="M114.416 121.786C113.882 121.786 113.347 121.786 112.813 121.519C111.745 120.985 111.211 119.649 111.211 118.047C111.211 115.109 113.08 111.904 115.484 110.569C116.819 109.768 118.155 109.768 119.223 110.302C120.291 110.836 120.825 112.171 120.825 113.774C120.825 116.712 118.956 119.916 116.552 121.252C116.018 121.519 115.217 121.786 114.416 121.786ZM117.888 111.904C117.621 111.904 117.086 111.904 116.552 112.171C114.683 113.24 113.08 115.91 113.08 118.047C113.08 118.848 113.347 119.382 113.615 119.649C113.882 119.916 114.683 119.916 115.217 119.382C117.086 118.314 118.689 115.643 118.689 113.507C118.689 112.706 118.422 112.171 118.155 111.904C118.422 111.904 118.155 111.904 117.888 111.904Z" fill="#1F1B23"/>
<path d="M134.447 108.164C134.447 110.567 132.844 113.505 130.708 114.84C128.571 116.176 126.969 115.107 126.969 112.704C126.969 110.3 128.571 107.362 130.708 106.027C132.844 104.692 134.447 105.76 134.447 108.164Z" fill="#DC9D62"/>
<path d="M127.504 114.307C126.97 114.307 126.435 114.307 125.901 114.04C124.833 113.506 124.299 112.171 124.299 110.568C124.299 107.631 126.168 104.426 128.572 103.09C129.907 102.289 131.243 102.289 132.311 102.823C133.379 103.358 133.913 104.693 133.913 106.295C133.913 109.233 132.044 112.438 129.64 113.773C128.839 114.307 128.038 114.307 127.504 114.307ZM130.708 104.426C130.441 104.426 129.907 104.426 129.373 104.693C127.504 105.761 125.901 108.432 125.901 110.568C125.901 111.37 126.168 111.904 126.435 112.171C126.969 112.438 127.504 112.171 128.038 111.904C129.907 110.835 131.51 108.165 131.51 106.028C131.51 105.227 131.243 104.693 130.976 104.426C131.243 104.426 130.976 104.426 130.708 104.426Z" fill="#1F1B23"/>
<path d="M146.251 104.634C147.726 102.079 147.679 99.2909 146.146 98.4059C144.613 97.5209 142.175 98.8744 140.7 101.429C139.225 103.984 139.272 106.772 140.805 107.657C142.337 108.542 144.776 107.189 146.251 104.634Z" fill="#DC9D62"/>
<path d="M140.322 107.098C139.788 107.098 139.254 107.098 138.72 106.831C137.651 106.297 137.117 104.962 137.117 103.359C137.117 100.422 138.987 97.2169 141.39 95.8815C142.726 95.0803 144.061 95.0803 145.129 95.6144C146.197 96.1486 146.732 97.4839 146.732 99.0863C146.732 102.024 144.862 105.229 142.459 106.564C141.657 106.831 140.856 107.098 140.322 107.098ZM143.794 96.9498C143.527 96.9498 142.993 96.9498 142.459 97.2169C140.589 98.2851 138.987 100.956 138.987 103.092C138.987 103.894 139.254 104.428 139.521 104.695C140.055 104.962 140.589 104.695 141.123 104.428C142.993 103.359 144.595 100.689 144.595 98.5522C144.595 97.751 144.328 97.2168 144.061 96.9498H143.794Z" fill="#1F1B23"/>
<path d="M88.7787 106.834L102.132 114.846L101.064 126.33L103.734 136.211L90.114 127.665L87.4434 121.523L87.7104 112.175L88.7787 106.834Z" fill="#1F1B23"/>
<path d="M18.5398 77.1875L35.8991 87.8702L32.9614 102.826L34.5638 115.912L37.5015 124.191L22.2787 115.111L17.2044 107.099L15.335 96.9505L15.8691 87.8702L18.5398 77.1875Z" fill="#1F1B23"/>
<path d="M43.6443 131.137L35.3652 126.33V123.125L41.2407 126.597L43.6443 131.137Z" fill="#C77E3A"/>
</svg>
