<svg width="170" height="170" viewBox="0 0 170 170" fill="none" xmlns="http://www.w3.org/2000/svg">
<path d="M138.421 131.515C136.328 122.515 131.724 108.493 122.724 103.051C121.05 102.005 118.748 100.54 117.283 99.9118L116.655 93.8423C117.074 93.633 117.701 93.2144 118.12 93.0051L118.329 92.7958C119.585 91.9587 120.632 90.9122 120.841 89.2379L121.469 86.0985L123.98 75.006C123.98 74.5874 124.19 74.3781 124.19 73.9595V73.7502C124.399 72.9131 124.399 72.0759 124.399 71.0294C124.608 61.402 117.911 49.4723 109.539 44.6586C105.772 42.3564 102.632 41.9378 99.9116 42.9843L99.493 43.1936L99.2837 43.4029C99.0744 43.6121 98.6559 43.6121 98.4466 43.8214L91.3306 47.798L90.912 48.6352L94.2607 51.1467C94.2607 51.7745 94.0514 52.6117 94.0514 53.4489C94.0514 54.286 94.0514 55.1232 94.0514 55.9604V56.1697V56.7976C94.0514 57.4254 94.2607 57.6347 94.2607 58.0533L96.9815 75.6339C97.4001 78.7732 99.0744 82.9591 101.167 86.0985L100.54 90.9122C99.2838 90.075 96.9815 88.61 95.0979 87.5635C91.5399 85.4706 89.0284 85.2613 86.7262 86.5171L86.3076 86.7263L85.4704 87.1449L79.401 90.4936L80.866 92.7958C80.0288 94.2609 79.4009 95.7259 78.9824 96.9817C77.9359 99.9118 80.2381 104.935 83.3775 106.818L107.655 121.26L108.702 121.887L127.538 132.98C127.747 135.282 128.166 138.212 128.375 139.887C128.375 140.305 129.003 140.724 129.422 140.514L136.328 136.747C138.421 135.701 139.049 134.026 138.421 131.515Z" fill="#C77E3A"/>
<path d="M138.421 134.865C136.328 125.865 131.724 111.843 122.724 106.401C121.05 105.355 118.748 103.89 117.283 103.262L116.655 97.1922C117.073 96.9829 116.236 96.1457 116.864 95.7272L116.027 95.3086L116.864 92.7971C118.12 91.9599 119.375 92.5878 119.585 90.7041L121.678 89.2391L124.189 78.1466C124.189 77.728 124.398 77.5187 124.398 77.1001V76.8909C124.608 76.0537 124.608 75.2165 124.608 74.1701C124.817 64.5426 118.12 52.613 109.748 47.7992C105.981 45.497 102.841 45.0784 100.121 46.1249L99.702 46.3342L99.4927 46.5435C99.2834 46.7528 98.8648 46.7528 98.6555 46.9621L91.5396 50.9386L91.121 51.7758L94.4697 54.2873C94.4697 54.9152 94.2604 55.7523 94.2604 56.5895C94.2604 57.4267 94.2604 58.2638 94.2604 59.101V59.3103V59.9382C94.2604 60.5661 94.4697 60.7754 94.4697 61.1939L97.1905 78.7745C97.6091 81.9139 99.2834 86.0997 101.376 89.2391L100.748 94.0528C99.4927 93.2157 97.1905 91.7506 95.3069 90.7041C91.7489 88.6112 89.2374 88.4019 86.9352 89.6577L86.5166 89.867L85.6794 90.2856L79.61 93.6342L81.075 95.9365C80.2378 97.4015 79.6099 98.8665 79.1913 100.122C78.1449 103.052 80.4471 108.075 83.5865 109.959L107.864 124.4L108.911 125.028L127.747 136.121C127.956 138.423 126.282 137.795 126.491 139.469C126.491 139.888 127.119 140.306 127.538 140.097L134.444 136.33C136.328 135.493 139.049 137.376 138.421 134.865Z" fill="#DC9D62"/>
<path d="M130.051 141.143C129.841 141.143 129.632 141.143 129.423 140.933C129.004 140.724 128.586 140.305 128.586 139.887C128.376 138.422 127.958 135.492 127.749 133.399L83.7971 107.446C80.2392 105.354 77.9369 99.9119 78.9834 96.5633C79.402 95.0982 80.0299 93.8425 80.6578 92.5867L78.9834 90.0752L87.1458 85.6801C89.8666 84.4243 92.7967 84.6336 96.3547 86.7265C97.1919 87.3544 98.4476 87.9823 99.4941 88.6101C99.9127 88.8194 100.331 89.238 100.75 89.4473L101.168 86.0986C99.0755 82.9593 97.4011 78.7734 96.9825 75.634L94.0525 57.6349C94.0525 57.2163 93.8432 57.007 93.8432 56.5884L93.6338 55.7513C93.4246 54.7048 93.4245 54.0769 93.4245 53.0305C93.4245 52.4026 93.4246 51.7747 93.6338 51.1468L90.0759 48.426L90.9131 46.961L98.2383 42.9844C98.4476 42.7751 98.8662 42.5658 99.2848 42.5658L99.9126 42.3566C102.843 41.1008 106.191 41.7287 110.168 44.0309C118.749 49.0539 125.446 61.1929 125.446 71.2389C125.446 71.8668 125.446 72.7039 125.237 73.5411L125.028 74.3783C125.028 74.7969 124.818 75.0062 124.818 75.4247L121.679 89.6566C121.26 91.9588 119.795 93.0053 118.749 93.8425L118.54 94.0518C118.121 94.261 117.702 94.4703 117.284 94.6796L117.702 99.7026L122.725 102.633C131.725 107.865 136.539 121.26 138.841 131.515C139.469 134.236 138.841 136.329 137.167 137.375L130.26 141.143C130.679 141.143 130.26 141.143 130.051 141.143ZM81.4949 90.4938L82.7507 92.3774L82.5414 92.796C81.9135 94.0517 81.2856 95.5168 80.6578 96.9818C79.6113 99.7026 81.7042 104.307 84.6343 105.981L129.214 132.352V132.771C129.423 135.073 129.841 138.003 130.051 139.677L136.957 135.91C138.004 135.282 138.213 133.817 137.795 131.724C135.911 123.562 131.306 109.121 122.307 103.679L116.656 100.331L116.028 93.4239L116.447 93.2146C116.865 93.0053 117.493 92.796 117.912 92.3774L118.121 92.1681C119.377 91.3309 120.214 90.2845 120.423 89.0287L123.563 74.7969C123.563 74.3783 123.772 74.169 123.772 73.7504V73.5411C123.981 72.7039 123.981 71.8668 123.981 71.0296C124.191 61.6114 117.493 50.1004 109.54 45.2866C105.982 43.1937 103.052 42.5658 100.541 43.6123L100.122 43.8216C99.7033 44.0309 99.4941 44.0309 99.2848 44.2402L92.3781 48.0074L95.7268 50.519V50.9375C95.5175 51.7747 95.5175 52.4026 95.5175 53.0305C95.5175 54.0769 95.5175 54.7048 95.5175 55.542V55.7513V56.3791C95.5175 56.7977 95.5175 57.007 95.7268 57.2163V57.6349L98.4476 75.2154C98.8662 78.3548 100.541 82.3314 102.633 85.4708L102.843 85.6801L102.006 91.9588L100.959 91.3309C100.331 90.9124 99.494 90.4938 98.6568 89.8659C97.6104 89.238 96.5639 88.6101 95.7268 87.9823C92.5874 86.0986 90.2852 85.8893 87.983 86.9358L87.5644 87.1451L81.4949 90.4938Z" fill="#1F1B23"/>
<path d="M130.889 135.702C128.796 126.703 124.192 112.68 115.192 107.238C113.518 106.192 111.215 104.727 109.75 104.099L109.122 98.0295C110.797 97.1923 112.89 95.9366 113.518 93.4251L114.145 90.2857L116.657 79.1932C116.657 78.7746 116.866 78.5653 116.866 78.1468V77.9375C117.076 77.1003 117.076 76.2631 117.076 75.2167C117.285 65.5892 110.587 53.6596 102.216 48.8458C93.8441 43.8228 87.1468 47.7994 86.9375 57.4268C86.9375 58.264 86.9375 59.1012 86.9375 59.9383V60.1476V60.7755C86.9375 61.4034 87.1467 61.6127 87.1467 62.0313L89.8676 79.6118C90.2862 82.7512 91.9605 86.937 94.0534 90.0764L93.4255 94.8901C92.1697 94.053 89.8676 92.5879 87.984 91.5415C78.9844 86.0999 73.9613 94.4716 71.6591 100.96C70.6127 103.89 72.9149 108.913 76.0543 110.796L100.332 125.238L101.379 125.865L125.657 140.307C129.633 142.19 131.935 139.888 130.889 135.702Z" fill="#C77E3A"/>
<path d="M128.587 141.771C127.75 141.771 126.912 141.562 126.075 140.934L76.4729 111.424C72.915 109.331 70.6127 103.889 71.6592 100.541C73.1242 96.3549 75.845 90.9133 80.4495 89.4483C83.1703 88.4018 86.1004 89.0297 89.0305 90.704C89.8676 91.3319 91.1234 91.9598 92.1698 92.5877C92.5884 92.7969 93.007 93.2155 93.4255 93.4248L93.8442 90.0761C91.7512 86.9368 90.0769 82.7509 89.6583 79.6115L86.7282 61.6124C86.7282 61.1938 86.5189 60.9845 86.5189 60.5659L86.3096 59.9381C86.1003 58.8916 86.1003 58.0544 86.1003 57.2173C86.1003 52.1942 87.984 48.6363 91.1234 46.7527C94.2628 45.0783 98.2393 45.4969 102.634 48.0084C111.215 53.0314 117.913 65.1704 117.913 75.2164C117.913 75.8443 117.913 76.6814 117.703 77.5186L117.494 78.3558C117.494 78.7744 117.285 78.9837 117.285 79.4022L114.146 93.6341C113.518 96.1456 111.634 97.6107 109.75 98.6571L110.169 103.68L115.192 106.61C124.192 111.843 129.005 125.237 131.307 135.493C131.935 138.004 131.517 140.097 130.052 141.143C129.842 141.562 129.215 141.771 128.587 141.771ZM83.1702 90.4947C82.3331 90.4947 81.7052 90.704 80.868 90.9133C76.8915 92.3784 74.38 97.1921 73.1242 101.169C72.0778 103.889 74.1707 108.494 77.1008 110.168L126.703 139.678C127.75 140.306 128.796 140.516 129.424 139.888C130.261 139.26 130.47 137.795 130.052 135.911C128.168 127.749 123.564 113.308 114.564 107.866L108.913 104.517L108.285 97.6107L108.704 97.4014C110.588 96.5642 112.262 95.3085 112.68 93.2155L115.82 78.9837C115.82 78.5651 116.029 78.3558 116.029 77.9372V77.7279C116.238 76.8907 116.238 76.0536 116.238 75.2164C116.448 65.7982 109.75 54.2872 101.797 49.4734C98.03 47.1712 94.472 46.7526 91.7512 48.2177C89.0304 49.6827 87.5654 53.0314 87.5654 57.2173C87.5654 58.0544 87.5654 58.6823 87.5654 59.7288V59.9381V60.5659C87.5654 60.9845 87.5654 61.1938 87.7747 61.4031V61.8217L90.4955 79.4022C90.9141 82.5416 92.5884 86.5182 94.6813 89.6576L94.8906 89.8669L94.0535 96.1456L93.007 95.5177C92.3791 95.0992 91.5419 94.6806 90.7048 94.0527C89.6583 93.4248 88.6119 92.7969 87.7747 92.1691C86.3097 91.1226 84.6353 90.4947 83.1702 90.4947Z" fill="#1F1B23"/>
<path d="M78.9846 77.3095C77.7289 71.6587 74.7988 62.8684 69.1479 59.5197C68.1015 58.8918 66.6364 58.0547 65.7992 57.6361L65.3806 53.8688C65.5899 53.6595 66.0085 53.4502 66.4271 53.2409H66.6364C67.4736 52.8223 68.1014 51.9852 68.3107 50.9387L68.7293 49.0551L70.1944 42.1484C70.1944 41.9392 70.4036 41.7299 70.4036 41.5206V41.3113C70.4036 40.8927 70.6129 40.2648 70.6129 39.6369C70.6129 33.5675 66.6364 26.2422 61.4041 23.1028C59.1019 21.6378 57.009 21.4285 55.3346 22.0564H55.1253H54.916C54.7067 22.0564 54.4974 22.2657 54.2882 22.2657L49.893 24.7772L49.6837 25.1958L51.7766 26.8701C51.7766 27.2887 51.5673 27.7073 51.5673 28.3352C51.5673 28.963 51.5673 29.3816 51.5673 30.0095V30.2188V30.6374C51.5673 31.056 51.5673 31.056 51.7766 31.4745L53.451 42.3577C53.6603 44.2414 54.7067 46.9622 56.1718 48.8458L55.7532 51.7759C54.916 51.3573 53.451 50.3108 52.4045 49.683C50.3116 48.4272 48.6373 48.2179 47.1722 49.0551H46.9629L46.5443 49.2644L42.7771 51.3573L43.6142 52.8223C43.1957 53.6595 42.7771 54.706 42.3585 55.5431C41.7306 57.4268 42.9864 60.5662 45.0793 61.6126L60.1483 70.6122L60.7762 71.0308L72.4965 77.9374C72.7058 79.4025 72.9152 81.2861 73.1245 82.1233C73.1245 82.5419 73.543 82.5418 73.7523 82.5418L77.9382 80.2396C78.9846 80.0303 79.4032 78.7746 78.9846 77.3095Z" fill="#C77E3A"/>
<path d="M78.9863 79.6106C77.7305 73.9597 74.8004 65.1695 69.1496 61.8208C68.1031 61.1929 66.638 60.3557 65.8009 59.9372L65.3823 56.1699C65.5915 55.9606 65.173 55.7513 65.3823 55.542V55.1234L65.173 54.077C66.0101 53.6584 67.2659 53.2398 67.4752 52.1933L68.5216 51.1469L69.9867 44.2402C69.9867 44.0309 70.196 43.8217 70.196 43.6124V43.4031C70.196 42.9845 70.4053 42.3566 70.4053 41.7287C70.4053 35.6593 66.4287 28.334 61.1964 25.1946C58.8942 23.7296 56.8013 23.5203 55.1269 24.1482H54.9176H54.7083C54.499 24.1482 54.2898 24.3575 54.0805 24.3575L50.1039 27.2876L49.8946 27.7062L51.9876 29.3805C51.9876 29.7991 51.7783 30.2177 51.7783 30.8455C51.7783 31.4734 51.7783 31.892 51.7783 32.5199V32.7292V33.1478C51.7783 33.5663 51.7783 33.5663 51.9876 33.9849L53.6619 44.8681C53.8712 46.7517 54.9177 49.4725 56.3827 51.3562L55.9641 54.2863C55.1269 53.8677 53.6619 52.8212 52.6154 52.1933C50.5225 50.9376 48.8482 50.7283 47.3831 51.5655H47.1739L46.7553 51.7748L42.988 53.8677L43.8252 55.3327C43.4066 56.1699 42.988 57.2164 42.5694 58.0535C41.9415 59.9372 43.1973 63.0765 45.2902 64.123L60.3593 73.1226L60.9871 73.5412L72.7075 80.4478C72.9168 81.4943 72.9168 82.5407 73.1261 83.5872C73.1261 84.2151 74.3818 82.5407 75.0097 82.3314L76.684 80.6571C77.5212 80.0292 79.4048 81.0757 78.9863 79.6106Z" fill="#DC9D62"/>
<path d="M73.7515 83.5865C73.5422 83.5865 73.3329 83.5865 73.1236 83.3772C72.7051 83.1679 72.4957 82.7493 72.4957 82.54C72.2864 81.7028 72.0772 80.0285 72.0772 78.5635L44.8692 62.448C42.567 60.9829 41.1019 57.6342 41.7298 55.332C41.9391 54.4949 42.3577 53.6577 42.7763 53.0298L41.7298 51.3555L46.9621 48.4254C48.6365 47.5882 50.7293 47.7975 52.8223 49.0533C53.4501 49.4718 54.078 49.8904 54.7059 50.309C54.9152 50.309 54.9152 50.5183 55.1245 50.5183L55.3338 49.0533C54.0781 47.1696 53.0316 44.4488 52.8223 42.5652L51.148 31.4727C51.148 31.2634 51.1479 31.0541 50.9387 30.8448V30.4262C50.9387 29.5891 50.9387 29.1705 50.9387 28.5426C50.9387 28.124 50.9387 27.9147 50.9387 27.4962L48.8457 25.8218L49.4736 24.5661L54.078 22.0546C54.2873 21.8453 54.4966 21.8453 54.7059 21.636L55.1245 21.4267C57.0081 20.5895 59.1011 21.0081 61.8219 22.4731C67.2635 25.6125 71.4493 33.3563 71.4493 39.6351C71.4493 40.0537 71.4493 40.4723 71.4493 40.8909V41.3094C71.4493 41.728 71.24 41.9373 71.24 42.1466L69.3563 50.9369C69.1471 52.4019 68.1006 53.2391 67.4727 53.6577L67.2634 53.867C67.0541 54.0763 66.8449 54.0763 66.6356 54.2856L66.8449 57.2157L69.775 59.0993C75.4258 62.448 78.3559 70.8196 80.0303 77.3077C80.4488 79.1913 80.0303 80.6564 78.9838 81.2843L74.798 83.5865C74.1701 83.5865 73.9608 83.5865 73.7515 83.5865ZM44.032 51.9833L44.6599 53.0298L44.4506 53.4484C44.032 54.2856 43.6134 55.1227 43.4041 55.9599C42.7762 57.4249 44.032 60.1457 45.7063 61.1922L73.5422 77.7263V78.1449C73.7515 79.4006 73.9608 80.8657 73.9608 81.9121L77.728 79.8192C78.1466 79.6099 78.3559 78.7728 78.1466 77.517C76.8909 72.494 74.1701 63.4944 68.7285 60.355L64.9613 58.2621L64.5426 53.6577L64.9613 53.4484C65.1706 53.2391 65.5891 53.2391 65.7984 53.0298C66.6356 52.4019 67.0541 51.9833 67.2634 51.1462L69.3563 42.3559C69.3563 42.1466 69.3564 41.9373 69.5656 41.728V41.5187C69.5656 41.1001 69.775 40.4723 69.775 40.0537C69.775 34.1935 65.7984 27.2869 60.9847 24.3568C58.8917 23.101 57.2174 22.6824 55.7524 23.3103H55.5431C55.1245 23.101 54.9152 23.101 54.7059 23.3103L50.7293 25.4032L52.613 26.8683V27.2869C52.613 27.7054 52.613 28.124 52.613 28.5426C52.613 29.1705 52.613 29.5891 52.613 30.0077V30.4262C52.613 30.6355 52.613 30.8448 52.613 31.0541V31.2634L54.2873 42.1466C54.4966 44.0302 55.5431 46.5417 56.7988 48.4254L57.0081 48.6347L56.3803 53.0298L55.3338 52.4019C54.9152 52.1926 54.4966 51.7741 53.8687 51.5648C53.2409 51.1462 52.613 50.7276 51.9851 50.309C50.1015 49.2625 48.8457 49.0533 47.3807 49.6811L46.7528 50.0997L44.032 51.9833Z" fill="#1F1B23"/>
<path d="M74.3799 79.8194C73.1241 74.1685 70.194 65.3782 64.5431 62.0295C63.4966 61.4016 62.0316 60.5645 61.1944 60.1459L60.7759 56.3786C61.8223 55.7507 63.0781 55.1229 63.4966 53.4485L63.9153 51.5649L65.3803 44.6583C65.3803 44.449 65.5896 44.2397 65.5896 44.0304V43.8211C65.5896 43.4025 65.7989 42.7746 65.7989 42.1467C65.7989 36.0773 61.8223 28.752 56.59 25.6127C51.3577 22.4733 47.1719 24.9848 47.1719 31.0543C47.1719 31.6821 47.1719 32.1007 47.1719 32.7286V32.9379V33.3565C47.1719 33.7751 47.1718 33.7751 47.3811 34.1936L49.0555 45.0768C49.2648 46.9605 50.3112 49.6813 51.7763 51.5649L51.3577 54.495C50.5205 54.0764 49.0555 53.0299 48.009 52.4021C42.3581 49.0534 39.2187 54.2857 37.963 58.2622C37.3351 60.1459 38.5909 63.2853 40.6838 64.3317L55.7528 73.3313L56.3807 73.7499L71.4497 82.7494C73.5426 84.0052 75.0077 82.5402 74.3799 79.8194Z" fill="#C77E3A"/>
<path d="M72.9133 84.0047C72.2855 84.0047 71.8669 83.7954 71.239 83.3768L40.2637 64.9591C37.9615 63.4941 36.4965 60.1454 37.1243 57.8432C38.1708 55.1224 39.8452 51.7737 42.7753 50.7273C44.4496 50.0994 46.3332 50.3087 48.4261 51.5644C49.054 51.983 49.6819 52.4016 50.3098 52.8202C50.5191 52.8202 50.519 53.0295 50.7283 53.0295L50.9376 51.5644C49.6819 49.6808 48.6354 46.96 48.4261 45.0764L46.5425 33.9839C46.5425 33.7746 46.5425 33.5653 46.5425 33.356V32.9374C46.5425 32.1002 46.5425 31.6817 46.5425 31.0538C46.5425 27.9144 47.7982 25.4029 49.6819 24.3564C51.7748 23.31 54.2863 23.5193 57.2164 25.1936C62.658 28.333 66.8439 36.0768 66.8439 42.3556C66.8439 42.7742 66.8439 43.1927 66.8439 43.6113L66.6346 44.2392C66.6346 44.6578 66.4253 44.8671 66.4253 45.0764L64.5416 53.8666C64.1231 55.541 62.8673 56.5874 61.8209 57.006L62.0301 59.9361L64.9602 61.8197C70.6111 65.1684 73.5412 73.5401 75.2156 80.0282C75.6341 81.7025 75.2156 83.1676 74.3784 83.7954C73.7505 83.7954 73.3319 84.0047 72.9133 84.0047ZM44.6589 52.1923C44.2403 52.1923 43.8217 52.1923 43.4031 52.4016C41.1009 53.2388 39.6359 56.1689 38.7987 58.6804C38.1708 60.1454 39.4265 62.8662 41.1009 63.9127L72.0762 82.3304C72.704 82.749 73.1226 82.749 73.5412 82.5397C73.9598 82.3304 74.1691 81.4932 73.9598 80.4468C72.704 75.4237 69.9832 66.4242 64.5416 63.2848L60.7744 61.1919L60.3558 56.5874L60.7744 56.3781C61.8209 55.7503 62.8673 55.1224 63.0766 54.0759L64.9602 45.2857C64.9602 45.0764 64.9602 44.8671 65.1695 44.6578V44.4485C65.1695 44.0299 65.3788 43.402 65.3788 42.9834C65.3788 37.1233 61.4023 30.2166 56.5886 27.2865C54.2863 26.0308 52.1934 25.6122 50.7283 26.6586C49.2633 27.4958 48.2169 29.3794 48.2169 32.1002C48.2169 32.7281 48.2169 33.1467 48.2169 33.5653V33.9839C48.2169 34.1932 48.2169 34.4025 48.2169 34.4025V34.6118L49.8912 45.4949C50.1005 47.3786 51.147 49.8901 52.4027 51.7737L52.612 51.983L51.9841 56.3781L50.9376 55.7503C50.5191 55.541 50.1004 55.1224 49.4726 54.9131C48.8447 54.4945 48.2168 54.0759 47.589 53.6573C46.5425 52.4016 45.496 52.1923 44.6589 52.1923Z" fill="#1F1B23"/>
<path d="M76.0531 142.189C74.5881 136.12 71.4487 126.492 65.3792 122.725C64.1235 122.097 62.6584 121.051 61.8213 120.632L61.4027 116.446C61.8213 116.237 62.0305 116.028 62.4491 115.818H62.6584C63.4956 115.19 64.1235 114.563 64.3327 113.307L64.7514 111.214L66.4257 103.679C66.4257 103.47 66.635 103.261 66.635 103.052V102.842C66.635 102.214 66.8443 101.586 66.8443 100.959C66.8443 94.4705 62.4491 86.3081 56.7982 82.9595C54.2867 81.4944 51.9845 81.0758 50.3102 81.913H50.1009H49.8916C49.6823 81.913 49.473 82.1223 49.2637 82.3316L44.45 85.0524L44.2407 85.6803L46.5429 87.3546C46.5429 87.7732 46.3336 88.4011 46.3336 88.8197C46.3336 89.4475 46.3336 89.8661 46.3336 90.494V90.7033V91.1219C46.3336 91.5404 46.3336 91.7497 46.5429 91.959L48.4265 103.889C48.6358 105.982 49.8916 108.912 51.3567 111.005L50.9381 114.144C50.1009 113.516 48.4265 112.47 47.3801 111.842C45.0778 110.377 43.1942 110.377 41.5199 111.214H41.3106L40.6827 111.423L36.4969 113.725L37.3341 115.19C36.9155 116.237 36.4969 117.074 36.0783 118.121C35.4504 120.213 36.9155 123.562 39.0084 124.818L55.5425 134.655L56.1704 135.073L68.9372 142.608C69.1465 144.073 69.3558 146.166 69.5651 147.212C69.5651 147.631 69.9836 147.84 70.4022 147.631L75.0067 145.119C76.0531 145.119 76.4717 143.864 76.0531 142.189Z" fill="#C77E3A"/>
<path d="M76.0518 144.283C74.5868 138.213 71.4474 128.586 65.3779 124.819C64.1222 124.191 62.6572 123.144 61.82 122.726L60.9828 119.168C61.4013 118.959 61.1921 116.656 61.4014 116.447L62.4478 115.819L62.6571 114.145C63.4943 113.517 63.9129 115.61 64.1221 114.354L64.9594 113.308L66.6337 105.773C66.6337 105.564 66.843 105.355 66.843 105.145V104.936C66.843 104.308 67.0523 103.68 67.0523 103.052C67.0523 96.5643 62.6571 88.4019 57.0062 85.0532C54.4947 83.5882 52.1925 83.1696 50.5181 84.0068H50.3089H50.0996C49.8903 84.0068 49.681 84.216 49.4717 84.4253L44.658 87.1461L44.4487 87.774L46.7509 89.4484C46.7509 89.8669 46.5416 90.4948 46.5416 90.9134C46.5416 91.5413 46.5416 91.9599 46.5416 92.5877V92.797V93.2156C46.5416 93.6342 46.5416 93.8435 46.7509 94.0528L48.6345 105.982C48.8438 108.075 50.0996 111.005 51.5646 113.098L51.1461 116.238C50.3089 115.61 48.6345 114.563 47.5881 113.936C45.2859 112.471 43.4023 112.47 41.7279 113.308H41.5186L40.8908 113.517L36.7049 115.819L37.5421 117.284C37.1235 118.331 36.7049 119.168 36.2863 120.214C35.6584 122.307 37.1235 125.656 39.2164 126.912L55.7505 136.748L56.3784 137.167L69.1452 144.702C69.1452 145.329 69.3545 145.957 69.3545 146.585C69.5637 148.259 70.8196 147.213 72.2846 146.376L73.7496 145.748L74.1682 145.539C75.2147 145.539 76.4704 145.957 76.0518 144.283Z" fill="#DC9D62"/>
<path d="M70.402 148.886C70.1927 148.886 69.9834 148.886 69.7741 148.676C69.3555 148.467 69.1463 148.048 69.1463 147.63C68.937 146.583 68.7276 144.7 68.5183 143.235L38.7989 125.654C36.2874 124.189 34.613 120.422 35.4502 117.91C35.8688 117.073 36.0781 116.027 36.4967 115.399L35.4502 113.515L41.3104 110.376C43.194 109.539 45.2869 109.748 47.7984 111.213C48.4263 111.631 49.2635 112.05 49.8913 112.469C50.1006 112.678 50.3099 112.678 50.5192 112.887L50.7285 111.004C49.2635 108.911 48.217 105.981 47.7984 103.888L45.9148 91.7487C45.9148 91.5394 45.9148 91.3302 45.7055 91.1209V90.7023C45.4962 89.8651 45.4962 89.4465 45.7055 88.6094C45.7055 88.1908 45.7055 87.7722 45.7055 87.3536L43.194 85.47L43.8219 84.2142L48.8449 81.7027C49.0542 81.4934 49.2634 81.4934 49.4727 81.2841L49.8913 81.0748C51.9843 80.2377 54.2865 80.6562 57.0073 82.3306C62.8675 85.8886 67.4719 94.2602 67.4719 100.958C67.4719 101.376 67.4719 101.795 67.4719 102.423L67.2626 103.051C67.2626 103.26 67.2626 103.469 67.0533 103.888L64.9604 113.515C64.5418 115.189 63.7047 116.027 62.8675 116.445L62.6582 116.655C62.4489 116.864 62.2396 116.864 62.0303 117.073L62.2396 120.212L65.5883 122.096C71.867 125.863 75.0064 134.863 76.6807 141.979C77.0993 143.863 76.6808 145.537 75.425 146.165L70.8206 148.676C70.8206 148.886 70.6113 148.886 70.402 148.886ZM37.5431 114.352L38.3803 115.608L38.171 116.027C37.7524 116.864 37.3338 117.91 36.9152 118.747C36.2873 120.422 37.7524 123.352 39.636 124.608L69.9834 142.607V143.025C70.1927 144.281 70.402 146.165 70.402 147.211L74.7971 144.7C75.2157 144.49 75.6343 143.653 75.2157 142.188C73.96 136.747 70.8206 126.91 64.7511 123.352L60.7746 121.05L60.356 116.027L60.7746 115.817C61.1932 115.608 61.4024 115.399 61.821 115.189L62.0303 114.98C62.8674 114.352 63.286 113.934 63.4953 112.887L65.5883 103.26C65.5883 103.051 65.7976 102.841 65.7976 102.632V102.423C65.7976 101.795 66.0069 101.167 66.0069 100.748C66.0069 94.4695 61.6117 86.7257 56.1701 83.377C53.8679 81.912 51.9843 81.7027 50.31 82.3306L49.8913 82.5399C49.6821 82.7492 49.4728 82.7492 49.2635 82.9585L44.8683 85.2607L46.9613 86.7257V87.1443C46.9613 87.5629 46.752 87.9815 46.752 88.6094C46.752 89.2372 46.752 89.6558 46.752 90.2837V90.9116C46.752 91.1209 46.752 91.3302 46.752 91.5394V91.7487L48.6356 103.678C48.8449 105.771 50.1007 108.492 51.3564 110.585L51.5657 110.794L50.9378 115.399L49.8913 114.771C49.4728 114.562 48.8449 114.143 48.217 113.724C47.5892 113.306 46.752 112.887 46.1241 112.469C43.6126 111.004 42.1475 111.213 41.101 111.841L40.2639 112.259L37.5431 114.352Z" fill="#1F1B23"/>
<path d="M71.0304 144.912C69.5653 138.842 66.4259 129.215 60.3564 125.447C59.1007 124.82 57.6356 123.773 56.7984 123.354L56.3799 119.169C57.6356 118.541 59.1007 117.704 59.31 116.029L59.7286 113.936L61.4029 106.402C61.4029 106.193 61.6122 105.983 61.6122 105.774V105.565C61.6122 104.937 61.8215 104.309 61.8215 103.681C61.8215 97.193 57.4263 89.0306 51.7754 85.6819C46.1245 82.3332 41.5201 84.8447 41.3108 91.5421C41.3108 92.1699 41.3108 92.5885 41.3108 93.2164V93.4257V93.8443C41.3108 94.2629 41.3108 94.4722 41.5201 94.6815L43.4037 106.611C43.613 108.704 44.8688 111.634 46.3338 113.727L45.9153 116.866C45.0781 116.239 43.4037 115.192 42.3573 114.564C36.2878 111.006 32.9392 116.657 31.2648 121.052C30.6369 123.145 32.102 126.494 34.1949 127.75L50.729 137.586L51.3569 138.005L67.891 147.842C69.9839 149.516 71.6582 147.842 71.0304 144.912Z" fill="#C77E3A"/>
<path d="M69.3554 149.306C68.7275 149.306 68.0996 149.096 67.4718 148.678L33.5665 128.586C31.055 127.121 29.3806 123.353 30.2178 120.842C31.2642 117.912 33.1479 114.144 36.2872 113.098C38.1709 112.47 40.2638 112.679 42.3567 113.935C42.9846 114.354 43.8217 114.772 44.4496 115.191C44.6589 115.4 44.8682 115.4 45.0775 115.609L45.2868 113.726C43.8217 111.633 42.7753 108.703 42.3567 106.61L40.4731 94.471C40.4731 94.2617 40.4731 94.0524 40.2638 93.8431V93.4245C40.0545 92.5873 40.0545 92.1687 40.2638 91.3316C40.2638 87.7736 41.5196 85.2621 43.8218 84.0064C46.124 82.7506 48.8448 82.9599 51.9842 84.8435C57.8443 88.4015 62.4488 96.7732 62.4488 103.471C62.4488 103.889 62.4488 104.308 62.4488 104.936L62.2395 105.773C62.2395 105.982 62.2394 106.191 62.0302 106.61L59.9372 116.237C59.5186 118.121 58.0536 119.167 57.0072 119.795L57.2165 122.935L60.5651 124.818C66.8439 128.586 69.9833 137.585 71.6576 144.701C72.0762 146.585 71.6576 148.05 70.6111 148.678C70.4019 149.096 69.774 149.306 69.3554 149.306ZM38.3802 114.563C37.9616 114.563 37.3337 114.563 36.9151 114.772C34.4036 115.609 32.7292 118.958 31.6828 121.679C31.0549 123.353 32.52 126.283 34.4036 127.539L68.3089 147.631C68.9368 148.05 69.5647 148.05 69.9833 147.84C70.4019 147.422 70.6111 146.585 70.4018 145.329C69.1461 139.887 66.0067 130.051 59.9372 126.493L55.9607 124.19L55.5421 119.167L55.9607 118.958C57.2164 118.33 58.2629 117.702 58.4722 116.237L60.5651 106.61C60.5651 106.401 60.7745 106.191 60.7745 105.982V105.773C60.7745 105.145 60.9837 104.726 60.9837 104.098C60.9837 97.8196 56.5886 90.0758 51.147 86.7272C48.6355 85.2621 46.3333 85.0528 44.6589 85.89C42.9846 86.9364 41.9381 89.0294 41.9381 91.9595C41.9381 92.5873 41.9381 93.0059 41.9381 93.6338V94.2617C41.9381 94.471 41.9381 94.6803 41.9381 94.8895V95.0988L43.8218 107.028C44.0311 109.121 45.2868 111.842 46.5425 113.935L46.7518 114.144L46.124 118.749L45.0775 118.121C44.6589 117.912 44.031 117.493 43.4032 117.075C42.7753 116.656 41.9381 116.237 41.3102 115.819C40.4731 114.772 39.4266 114.563 38.3802 114.563Z" fill="#1F1B23"/>
<path d="M61.193 60.1464L65.7974 57.6349L65.3788 54.077L67.681 52.1933L70.4018 40.2637L70.1926 36.2871L65.5881 39.0079L65.7974 43.8216L64.3323 50.3097L62.8673 55.1234L60.7744 56.1699L61.193 60.1464Z" fill="#1F1B23"/>
<path d="M73.333 75.8416L77.9374 73.3301L79.1932 76.888V79.1903L77.7281 80.8646L74.3795 82.3296V78.7717L73.333 75.8416Z" fill="#1F1B23"/>
<path d="M60.776 97.6078L65.5897 94.6777L66.8455 99.2822L66.4269 103.887L64.7525 110.793L63.9154 114.351L61.1946 116.653L61.6132 120.63L56.5902 123.351L56.3809 118.956L58.2645 118.118L59.9388 113.305L61.6132 101.375L60.776 97.6078Z" fill="#1F1B23"/>
<path d="M69.7734 140.932L74.7964 138.211L76.0522 142.187L76.2615 144.49L75.215 145.745L70.8199 147.629L71.0292 144.699L69.7734 140.932Z" fill="#1F1B23"/>
<path d="M116.235 68.3069L123.77 64.1211L124.816 72.4928L120.84 89.864L118.537 92.7941L116.863 93.8406L117.282 99.9101L109.747 104.096L109.119 98.0264L113.305 95.7242L114.142 91.3291L117.282 75.2136L116.235 68.3069Z" fill="#1F1B23"/>
<path d="M129.633 130.678L137.167 126.492L138.632 132.352V134.445L137.377 136.538L130.679 139.678L131.098 136.538L130.47 131.934L129.633 130.678Z" fill="#1F1B23"/>
</svg>
