<svg width="170" height="170" viewBox="0 0 170 170" fill="none" xmlns="http://www.w3.org/2000/svg">
<path d="M112.744 42.5003L97.3978 32.961C96.7756 32.5462 96.7756 32.3388 95.9461 32.1314L95.1167 31.7167C88.2732 28.1913 79.1485 28.8134 68.9871 34.8273C48.042 47.0626 31.0371 76.5101 31.0371 100.773C31.0371 112.801 35.1846 121.304 42.0281 125.244L58.2035 135.405L61.5216 127.94L62.9732 125.658C64.8395 124.829 66.9133 123.999 68.9871 122.755C89.9322 110.52 106.937 81.0724 106.937 56.8093C106.937 55.3577 106.937 53.906 106.73 52.6618L112.744 42.5003Z" fill="#C77E3A"/>
<path d="M112.95 46.8558L97.6037 37.3164C96.9816 36.9017 96.9817 36.6943 96.1522 36.4869L95.3226 36.0722C88.4792 32.5468 79.3546 33.1689 69.1931 39.1828C48.2481 51.4181 31.2432 80.8656 31.2432 105.129C31.2432 117.157 41.8194 121.719 48.6628 125.659L53.2251 128.148L61.1054 132.917L62.1423 132.295L63.594 130.014C65.4604 129.184 67.5341 128.355 69.6079 127.111C90.553 114.875 107.558 85.4279 107.558 61.1648C107.558 59.7131 107.558 58.2615 107.35 57.0172L112.95 46.8558Z" fill="#DC9D62"/>
<path d="M58.618 136.857L41.1983 126.073C33.9401 121.718 30 112.594 30 100.773C30 76.3026 47.2123 46.2329 68.5721 33.9977C78.3188 28.3985 87.6508 27.1542 94.909 30.4723L96.568 31.3018C97.1901 31.7165 97.3975 31.7165 97.6048 31.9239L98.0196 32.1313L114.195 42.0854L107.974 52.4542C108.181 53.6985 108.181 55.1501 108.181 56.3944C108.181 80.8649 90.9688 110.935 69.609 123.17C67.7426 124.207 65.6688 125.244 63.8024 126.073L62.5582 128.147L58.618 136.857ZM42.8574 124.621L57.5811 133.746L60.4844 127.317L62.1434 124.621L62.5582 124.414C64.4246 123.585 66.4983 122.755 68.3647 121.511C89.1024 109.483 105.9 80.4501 105.9 56.6018C105.9 55.1501 105.9 53.9059 105.693 52.4542V52.0395L111.292 42.7075L96.3606 33.5829C96.1533 33.3756 95.9458 33.3756 95.5311 33.1682L94.7016 32.7534C87.8582 29.228 78.941 30.2649 69.4016 35.8641C48.6639 47.8919 31.8664 76.9247 31.8664 100.773C31.8664 111.971 35.5992 120.474 42.4426 124.414L42.8574 124.621Z" fill="#1F1B23"/>
<path d="M112.848 104.675C127.68 78.9865 127.643 51.1983 112.765 42.6084C97.8875 34.0186 73.8033 47.88 58.9715 73.5686C44.1397 99.2573 44.1769 127.045 59.0545 135.635C73.9321 144.225 98.0163 130.364 112.848 104.675Z" fill="#1F1B23"/>
<path d="M68.9868 139.343C65.254 139.343 61.7286 138.513 58.6179 136.647C51.1524 132.292 47.0049 123.167 47.0049 111.139C47.0049 86.6688 64.2171 56.5991 85.577 44.3639C96.1532 38.35 105.9 37.3131 113.573 41.668C121.038 46.0229 125.186 55.1475 125.186 67.1754C125.186 91.6459 107.974 121.716 86.6138 133.951C80.1852 137.684 74.3786 139.343 68.9868 139.343ZM102.789 41.0459C97.8122 41.0459 92.2131 42.7049 86.4065 46.0229C65.6688 58.0508 48.8713 87.0836 48.8713 110.932C48.8713 122.338 52.6041 130.633 59.4475 134.573C66.2909 138.513 75.4155 137.684 85.3696 131.877C106.107 119.849 122.905 90.8163 122.905 66.968C122.905 55.5623 119.172 47.2672 112.329 43.327C109.425 41.8754 106.315 41.0459 102.789 41.0459Z" fill="#1F1B23"/>
<path d="M109 103.085C122.007 80.9729 122.228 56.9751 109.494 49.4844C96.7599 41.9937 75.8924 53.8467 62.8854 75.9587C49.8783 98.0708 49.6571 122.068 62.3912 129.559C75.1254 137.05 95.9928 125.197 109 103.085Z" fill="#C77E3A"/>
<path d="M82.6729 90.8189L96.5671 65.9337C96.9818 65.3116 97.604 65.3116 97.3966 66.1411L87.2352 91.6484L82.6729 90.8189Z" fill="#1F1B23"/>
<path d="M87.4437 92.6843L81.4297 91.44L95.7387 65.7252C96.1535 65.1031 96.7756 64.6884 97.3977 64.8957C97.8125 65.1031 98.2272 65.7253 98.0198 66.3474L87.4437 92.6843ZM83.7108 90.1957L86.4068 90.8179L94.2871 71.3244L83.7108 90.1957Z" fill="#1F1B23"/>
<path d="M91.1765 86.2576C91.1765 89.5756 88.8953 93.5158 85.992 95.1748C83.0888 96.8338 80.8076 95.3822 80.8076 92.2716C80.8076 89.1609 83.0888 85.0134 85.992 83.3543C88.6879 81.4879 91.1765 82.9396 91.1765 86.2576Z" fill="#C77E3A"/>
<path d="M91.2472 93.858C93.2515 90.3866 93.2682 86.644 91.2845 85.4987C89.3009 84.3534 86.068 86.2391 84.0637 89.7105C82.0594 93.1819 82.0427 96.9246 84.0263 98.0699C86.01 99.2152 89.2429 97.3295 91.2472 93.858Z" fill="#DC9D62"/>
<path d="M83.7109 96.6262C83.0888 96.6262 82.4667 96.4188 82.0519 96.2114C80.8077 95.5893 80.1855 94.1376 80.1855 92.2713C80.1855 88.7458 82.674 84.3909 85.7847 82.7319C87.4437 81.695 88.8954 81.695 90.1396 82.3172C91.3839 82.9393 92.006 84.3909 92.006 86.2573C92.006 89.7827 89.5175 94.1376 86.4069 95.7967C85.37 96.2114 84.5404 96.6262 83.7109 96.6262ZM88.2732 83.354C87.6511 83.354 87.029 83.5614 86.4069 83.9762C83.711 85.4278 81.6371 89.1606 81.6371 92.2713C81.6371 93.5155 82.0519 94.5524 82.674 94.9672C83.2962 95.3819 84.333 95.1745 85.5773 94.5524C88.2732 93.1008 90.347 89.368 90.347 86.2573C90.347 85.0131 89.9323 83.9762 89.3101 83.5614C88.8954 83.354 88.688 83.354 88.2732 83.354Z" fill="#1F1B23"/>
<path d="M85.9929 63.8585C85.3708 64.2732 84.9561 63.8585 84.9561 63.2364V57.6372C84.9561 57.015 85.3708 56.1855 85.7856 55.9782H85.9929C86.4077 55.7708 86.8224 55.9782 86.8224 56.6003V62.1995C86.8224 62.8216 86.6151 63.6511 85.9929 63.8585Z" fill="#1F1B23"/>
<path d="M91.5906 61.5791C90.9684 61.7865 90.761 61.3717 90.9684 60.5422L92.2127 54.3209C92.42 53.6988 92.8347 53.0766 93.4569 52.8693C94.079 52.6619 94.2865 53.0766 94.0791 53.9061L92.8348 60.1274C92.6274 60.7496 92.2127 61.3717 91.5906 61.5791Z" fill="#1F1B23"/>
<path d="M96.7764 60.9563C96.3616 60.9563 96.1542 60.3341 96.3616 59.712L98.8502 53.2833C99.0576 52.6612 99.6796 52.0391 100.094 52.0391C100.509 52.0391 100.717 52.6612 100.509 53.2833L98.0206 59.712C97.8132 60.5415 97.3985 61.1637 96.7764 60.9563Z" fill="#1F1B23"/>
<path d="M101.338 62.4083C100.924 62.2009 100.924 61.5788 101.338 60.7493L104.864 54.528C105.278 53.9059 105.901 53.4911 106.315 53.6985C106.73 53.9059 106.73 54.528 106.315 55.3575L102.79 61.5788C102.375 62.2009 101.753 62.6157 101.338 62.4083Z" fill="#1F1B23"/>
<path d="M104.863 65.7243C104.656 65.3096 104.656 64.4801 105.278 64.0653L109.633 58.6735C110.048 58.0514 110.67 57.844 110.877 58.2587C111.085 58.6735 111.085 59.503 110.462 59.9178L106.108 65.3096C105.693 65.9317 105.071 65.9317 104.863 65.7243Z" fill="#1F1B23"/>
<path d="M106.938 70.4967C106.731 69.8746 107.145 69.2524 107.56 68.6303L112.33 64.2754C112.952 63.8606 113.367 63.8606 113.574 64.4828C113.781 65.1049 113.367 65.727 112.952 66.3492L108.182 70.7041C107.768 71.1188 107.145 70.9115 106.938 70.4967Z" fill="#1F1B23"/>
<path d="M107.768 76.5095C107.768 75.8874 108.182 75.2653 108.597 74.8505L113.782 71.7399C114.196 71.5325 114.611 71.7399 114.611 72.362C114.611 72.9841 114.196 73.6063 113.782 74.021L108.597 77.1317C108.182 77.5464 107.768 77.1317 107.768 76.5095Z" fill="#1F1B23"/>
<path d="M106.938 83.5612C107.146 82.9391 107.561 82.317 108.183 82.1096L112.952 80.8653C113.575 80.658 113.782 81.0727 113.575 81.9022C113.367 82.5244 112.952 83.1465 112.33 83.3539L107.561 84.5981C107.146 84.5981 106.938 84.1834 106.938 83.5612Z" fill="#1F1B23"/>
<path d="M104.864 90.8165C105.072 90.1944 105.694 89.5723 106.109 89.5723L110.463 89.987C110.878 89.987 111.086 90.6091 110.878 91.2313C110.671 91.8534 110.049 92.4755 109.634 92.4755L105.279 92.0608C104.657 92.0608 104.657 91.4387 104.864 90.8165Z" fill="#1F1B23"/>
<path d="M67.1213 112.593C67.3287 113.007 67.3288 113.837 66.7066 114.252L62.3517 119.644C61.9369 120.266 61.3148 120.473 61.1074 120.058C60.9 119.644 60.9001 118.814 61.5222 118.399L65.8771 113.007C66.2918 112.385 66.7066 112.178 67.1213 112.593Z" fill="#1F1B23"/>
<path d="M64.8396 107.823C65.047 108.445 64.6323 109.067 64.2175 109.689L59.4479 114.044C58.8257 114.459 58.411 114.459 58.2036 113.837C57.9962 113.214 58.411 112.592 58.8257 111.97L63.5954 107.615C64.2175 107.2 64.8396 107.2 64.8396 107.823Z" fill="#1F1B23"/>
<path d="M64.2184 101.809C64.2184 102.431 63.8037 103.053 63.3889 103.468L58.2045 106.578C57.7897 106.786 57.375 106.578 57.375 105.956C57.375 105.334 57.7897 104.712 58.2045 104.297L63.3889 101.186C63.8037 100.772 64.2184 101.186 64.2184 101.809Z" fill="#1F1B23"/>
<path d="M64.8398 94.7576C64.6324 95.3797 64.2177 96.0018 63.5956 96.2092L58.8259 97.4535C58.2037 97.6609 57.9964 97.2461 58.2037 96.4166C58.4111 95.7945 58.8259 95.1723 59.448 94.965L64.2177 93.7207C64.6324 93.7207 65.0471 94.1355 64.8398 94.7576Z" fill="#1F1B23"/>
<path d="M67.1216 87.5008C66.9143 88.123 66.2921 88.7451 65.8774 88.7451L61.5225 88.3303C61.1077 88.3303 60.9003 87.7082 61.1077 87.0861C61.3151 86.4639 61.9372 85.8418 62.352 85.8418L66.7069 86.2566C67.1217 86.2566 67.329 86.6713 67.1216 87.5008Z" fill="#1F1B23"/>
<path d="M70.4395 80.2438C70.0247 80.8659 69.4026 81.2806 68.9878 81.0733L65.4624 78.9995C65.0477 78.7921 65.0477 78.17 65.4624 77.3405C65.8772 76.7184 66.4993 76.3036 66.914 76.511L70.4395 78.5847C70.8542 78.7921 70.8542 79.6216 70.4395 80.2438Z" fill="#1F1B23"/>
<path d="M75.0014 73.6053C74.5866 74.2274 73.9645 74.4348 73.7571 74.02L71.2686 70.4946C71.0612 70.0799 71.0612 69.2504 71.6833 68.8356C72.0981 68.2135 72.7202 68.0061 72.9276 68.4209L75.4161 71.9463C75.6235 72.361 75.4161 72.9832 75.0014 73.6053Z" fill="#1F1B23"/>
<path d="M80.3933 68.0075C79.7711 68.4223 79.3564 68.4223 79.149 67.8001L77.9048 63.0305C77.6974 62.4083 78.1121 61.7862 78.5269 61.1641C79.149 60.7493 79.5638 60.7493 79.7712 61.3714L81.0154 66.1411C81.2228 66.7632 80.808 67.5927 80.3933 68.0075Z" fill="#1F1B23"/>
<path d="M85.9929 63.8585C85.3708 64.2732 84.9561 63.8585 84.9561 63.2364V57.6372C84.9561 57.015 85.3708 56.1855 85.7856 55.9782H85.9929C86.4077 55.7708 86.8224 55.9782 86.8224 56.6003V62.1995C86.8224 62.8216 86.6151 63.6511 85.9929 63.8585Z" fill="#1F1B23"/>
<path d="M98.8493 111.142L77.6968 123.377C76.6599 123.999 75.623 123.377 75.623 121.925V119.644C75.623 118.193 76.4526 116.326 77.6968 115.704L98.8493 103.469C99.8862 102.847 100.923 103.469 100.923 104.92V107.202C100.716 108.861 99.8862 110.52 98.8493 111.142Z" fill="#DC9D62"/>
<path d="M74.5851 122.962C74.1704 122.962 73.963 122.962 73.7556 122.754C73.1335 122.339 72.7188 121.51 72.7188 120.473V118.192C72.7188 116.326 73.7556 114.459 75.2072 113.63L96.3597 101.394C96.9818 100.98 97.8114 100.98 98.4335 101.187C99.0556 101.602 99.4704 102.431 99.4704 103.468V105.749C99.4704 107.616 98.4335 109.482 96.9818 110.312L75.622 122.754C75.4146 122.962 74.9999 122.962 74.5851 122.962ZM97.3966 102.431C97.1892 102.431 96.9818 102.431 96.9818 102.639L75.622 114.874C74.7925 115.289 73.963 116.948 73.963 117.985V120.266C73.963 120.888 74.1704 121.095 74.1704 121.303C74.3777 121.303 74.5851 121.303 74.7925 121.095L95.9449 108.86C96.7744 108.445 97.6039 106.786 97.6039 105.749V103.468C97.8113 103.053 97.604 102.639 97.3966 102.431C97.3966 102.431 97.3966 102.639 97.3966 102.431Z" fill="#1F1B23"/>
<path d="M89.5166 31.0939L93.8715 25.9095C94.0789 25.7021 94.0789 25.2873 93.8715 25.2873L83.2953 19.2734C83.2953 19.2734 83.2953 19.2734 83.0879 19.2734H83.2953L83.0879 19.066C82.051 18.6513 80.8068 18.4439 79.5625 19.2734L63.1797 29.0201C60.8986 30.4718 59.6543 32.7529 59.6543 35.4488V45.1955L70.4379 51.2095L83.5026 34.2046L85.7838 32.3382L89.5166 31.0939Z" fill="#C77E3A"/>
<path d="M89.5166 35.6564L93.8715 30.472C94.0789 30.2646 94.0789 29.8498 93.8715 29.8498L83.2953 23.8359C83.2953 23.8359 83.2953 23.8359 83.0879 23.8359H83.2953L83.0879 23.6285C82.051 23.2138 80.8068 23.0064 79.5625 23.8359L63.1797 33.5826C60.8986 35.0343 59.6543 37.3154 59.6543 40.0113L60.0691 44.1589L70.0231 49.5507L83.2953 38.7671L85.5764 36.9007L89.5166 35.6564Z" fill="#DC9D62"/>
<path d="M70.6461 52.6607L58.6182 45.8172V35.4484C58.6182 32.5451 60.2772 29.6418 62.7657 28.1902L78.7338 18.6508C80.1854 17.8213 81.8444 17.8213 83.2961 18.4435H83.5034L94.287 24.4574C94.7018 24.6648 94.9092 25.0795 95.1166 25.4943C95.1166 25.909 94.9092 26.5312 94.7018 26.7385L90.3469 31.923L86.4067 32.9599L84.333 34.6189L70.6461 52.6607ZM60.6919 44.573L70.0239 49.9648L82.6739 33.3746L85.1625 31.3008L88.8952 30.264L92.628 25.909L82.4665 20.1025C81.637 19.6877 80.6002 19.6877 79.978 20.3099L64.01 29.8492C62.1436 31.0935 60.8993 33.1672 60.8993 35.4484V44.573H60.6919Z" fill="#1F1B23"/>
<path d="M90.345 25.7029L74.3769 35.2422C72.3032 36.4865 71.0589 38.7677 70.8516 41.0488V51.4177C74.7917 47.4775 78.9392 43.9521 83.5015 41.4636C87.8564 38.975 92.2114 36.9013 96.1516 36.2791V28.8136C95.9442 25.9103 92.8335 24.0439 90.345 25.7029Z" fill="#C77E3A"/>
<path d="M70.8527 52.661L69.6084 52.0389V41.0479C69.8158 38.1446 71.2674 35.6561 73.7559 34.2044L89.7239 24.6651C91.1756 23.8356 93.0419 23.8356 94.4936 24.6651C95.9452 25.4946 96.9821 27.1536 96.9821 28.8126V37.1077L96.1527 37.3151C92.8347 37.7298 89.1018 39.3889 83.9174 42.2921C79.7699 44.7807 75.6223 48.0987 71.4748 52.0389L70.8527 52.661ZM90.7608 26.5315L74.7928 36.0708C72.9264 37.1077 71.8895 38.9741 71.6822 41.0479V48.7208C75.2076 45.1954 78.9403 42.4995 82.6731 40.2184C87.6502 37.3151 91.383 35.6561 94.701 35.034V28.8126C94.701 27.7758 94.2862 26.9462 93.2494 26.5315C92.6272 25.9094 91.5903 25.9094 90.7608 26.5315Z" fill="#1F1B23"/>
<path d="M70.6726 132.085C67.3546 132.085 64.4513 131.256 61.7554 129.804C55.3267 126.071 51.8013 118.398 52.0087 108.03C52.0087 87.0845 67.1472 61.1623 85.3964 50.5861C94.521 45.4017 103.023 44.5722 109.452 48.305C115.881 52.0378 119.406 59.7107 119.199 70.0796C119.199 91.0246 104.06 116.947 85.8111 127.523C80.6267 130.426 75.4423 132.085 70.6726 132.085ZM100.535 47.4755C96.18 47.4755 91.2029 48.9271 86.2259 51.8304C68.3914 62.1992 53.6677 87.2919 53.4603 107.822C53.4603 117.569 56.571 124.827 62.5849 128.145C68.5988 131.671 76.4791 130.841 85.189 125.864C103.023 115.495 117.747 90.4025 117.955 69.8722H118.784H117.955C117.955 60.1255 114.844 52.8673 108.83 49.5492C106.341 48.305 103.646 47.4755 100.535 47.4755Z" fill="#1F1B23"/>
<path d="M34.9773 78.582L51.9822 88.5361L48.8715 99.7345L47.8347 108.859L48.4568 117.984L50.7379 125.657L53.2265 132.085L37.4658 121.509L32.9035 113.421L31.0371 103.882L31.2445 93.7206L32.6961 86.0476L34.9773 78.582Z" fill="#1F1B23"/>
<path d="M59.8617 34.4121L70.6453 40.8408V51.417L59.6543 44.781L59.8617 34.4121Z" fill="#1F1B23"/>
<path d="M54.8852 130.634C51.1524 126.072 49.0787 119.435 49.0787 111.14C49.0787 104.712 50.3229 97.8683 52.604 91.2322L50.7376 90.1953C48.4565 97.2461 47.0049 104.504 47.0049 111.14C47.0049 118.399 48.4565 124.413 51.3597 129.182L54.4704 131.256L54.8852 130.634Z" fill="#C77E3A"/>
</svg>
