<svg width="156" height="156" viewBox="0 0 156 156" fill="none" xmlns="http://www.w3.org/2000/svg">
<path d="M144.191 101.376C147.256 98.5401 147.368 95.0984 144.319 92.6862C147.581 89.5611 147.304 85.7325 143.202 83.362L61.3321 36.0945C56.3683 33.2297 47.6972 33.588 41.9659 36.8972L13.6325 53.2561C8.37673 56.2886 7.43156 60.7458 11.1342 63.6751C8.16153 66.5252 8.13688 69.9569 11.2643 72.335C7.85955 75.4853 8.08297 79.3867 12.2429 81.7877L94.1127 129.055C99.0765 131.922 107.748 131.562 113.479 128.253L141.81 111.896C147.124 108.826 148.038 104.305 144.191 101.376Z" fill="#DC9D62"/>
<path d="M144.198 101.271C147.263 98.4331 147.374 94.9914 144.326 92.5793C147.588 89.4542 147.311 85.6255 143.209 83.2574L140.259 81.5547L102.527 104.339V130.85C106.337 130.851 110.348 129.957 113.486 128.146L141.819 111.789C147.131 108.721 148.045 104.198 144.198 101.271Z" fill="#1F1B23"/>
<path d="M141.36 111.14L113.027 127.496C110.019 129.23 106.172 130.089 102.527 130.09V131.855C106.493 131.853 110.66 130.894 113.905 129.017L142.239 112.66C145.532 110.759 147.42 108.176 147.42 105.572C147.42 104.008 146.7 102.573 145.438 101.356C146.725 99.9393 147.431 98.3674 147.431 96.785C147.431 95.2588 146.746 93.8522 145.542 92.6567C146.75 91.2729 147.42 89.7526 147.42 88.2217C147.42 86.3953 146.49 84.722 144.791 83.4004C144.411 83.8225 143.97 84.2342 143.465 84.6311C144.864 85.6466 145.662 86.8896 145.662 88.2241C145.662 90.1806 144.094 92.2099 141.36 93.7883L113.027 110.145C110.019 111.88 106.172 112.739 102.527 112.741V114.505C106.493 114.501 110.66 113.541 113.905 111.668L142.239 95.308C143 94.87 143.677 94.3898 144.282 93.8874C145.168 94.7539 145.672 95.7407 145.672 96.785C145.672 98.7421 144.105 100.771 141.372 102.351L113.037 118.708C110.025 120.444 106.176 121.302 102.527 121.304V123.068C106.494 123.067 110.668 122.104 113.916 120.228L142.249 103.871C142.952 103.466 143.575 103.026 144.144 102.564C145.104 103.46 145.662 104.484 145.662 105.574C145.662 107.53 144.094 109.56 141.36 111.14Z" fill="#DC9D62"/>
<path d="M102.529 130.092C99.5312 130.094 96.6688 129.527 94.5405 128.301L12.6706 81.0317C10.7944 79.9458 9.75839 78.4917 9.75839 76.9362C9.75839 75.7741 10.35 74.5927 11.376 73.4881C11.5185 73.5813 11.6528 73.6763 11.804 73.7636L93.6715 121.033C96.0379 122.4 99.207 123.069 102.52 123.069C102.524 123.069 102.527 123.069 102.529 123.069V121.304C99.5354 121.304 96.677 120.737 94.551 119.513L12.6812 72.2433C10.805 71.1592 9.76835 69.7051 9.76835 68.1478C9.76835 67.0368 10.3025 65.9098 11.2435 64.8486C11.4235 64.9682 11.5994 65.0908 11.7935 65.2022L93.6616 112.471C96.0274 113.837 99.1964 114.507 102.51 114.507C102.516 114.507 102.523 114.505 102.529 114.505V112.741C99.5312 112.743 96.6688 112.176 94.5405 110.949L12.6706 63.6801C10.7944 62.596 9.75839 61.1419 9.75839 59.5864C9.75839 58.1968 10.5611 56.7755 11.9964 55.5015C11.4546 55.1684 10.9768 54.8108 10.5792 54.4297C8.92699 55.9934 8 57.7828 8 59.5864C8 61.1255 8.66841 62.5549 9.89089 63.7627C8.69948 65.1341 8.01231 66.6316 8.01231 68.1478C8.01231 69.728 8.7118 71.1944 9.99819 72.4209C8.73232 73.8252 8 75.3707 8 76.9362C8 79.1472 9.34855 81.1436 11.7935 82.552L93.6616 129.821C96.0274 131.187 99.1964 131.857 102.51 131.857C102.516 131.857 102.523 131.857 102.529 131.857V130.092Z" fill="#1F1B23"/>
<path d="M94.1115 102.403L12.2417 55.1359C7.27728 52.2711 7.89996 47.2639 13.6313 43.9541L41.9646 27.5975C47.6959 24.2878 56.3671 23.9278 61.3308 26.7949L143.201 74.0623C148.165 76.9289 147.542 81.9343 141.809 85.2441L113.478 101.601C107.746 104.91 99.0753 105.27 94.1115 102.403Z" fill="#DC9D62"/>
<path d="M142.645 77.6227L60.7756 30.3552C55.8118 27.4886 47.1407 27.8481 41.4094 31.1579L13.0783 47.5151C11.0162 48.7041 9.6284 50.1148 8.91016 51.5648C9.31179 52.9069 10.3437 54.1522 12.0564 55.1407L93.9262 102.408C98.8906 105.275 107.561 104.915 113.293 101.606L141.626 85.2489C143.686 84.0593 145.076 82.6486 145.794 81.1986C145.391 79.8565 144.358 78.6112 142.645 77.6227Z" fill="#C77E3A"/>
<path d="M94.5531 101.646C99.2689 104.364 107.559 104.004 113.04 100.843L141.373 84.4843C144.108 82.9059 145.676 80.8767 145.676 78.9201C145.676 77.3623 144.641 75.9082 142.766 74.8247L60.8936 27.5572C56.1795 24.8373 47.8855 25.1949 42.4063 28.3575L14.0752 44.7171C11.3406 46.2949 9.77046 48.3241 9.77046 50.2807C9.77046 51.8385 10.8071 53.2926 12.6833 54.3761L94.5531 101.646ZM102.522 105.201C99.2091 105.201 96.04 104.533 93.6736 103.166L11.8061 55.8965C9.36119 54.4881 8.0127 52.4917 8.0127 50.2807C8.0127 47.6786 9.90296 45.0952 13.1957 43.1967L41.5268 26.8372C47.4926 23.3937 56.5747 23.0337 61.7725 26.0369L143.642 73.3043C146.087 74.7127 147.434 76.7068 147.434 78.9178C147.434 81.5222 145.545 84.1055 142.253 86.0064L113.919 102.364C110.668 104.242 106.492 105.201 102.522 105.201Z" fill="#1F1B23"/>
<path d="M126.062 82.1421C121.834 79.7012 121.834 75.7447 126.062 73.3056C126.485 73.0617 126.95 72.8588 127.419 72.6648L63.1665 35.5676C62.8294 35.8385 62.4817 36.1076 62.0578 36.3515C57.8316 38.7924 50.9769 38.7924 46.7513 36.3515C45.9985 35.9171 45.4297 35.4251 44.9454 34.9121L26.1626 45.7567C27.0479 46.0358 27.8999 46.363 28.6486 46.7969C32.8766 49.236 32.8766 53.1924 28.6486 55.6333C28.274 55.8508 27.8565 56.0244 27.4449 56.202L91.6688 93.2828C91.9772 93.0447 92.2774 92.8026 92.6538 92.5874C96.8794 90.1471 103.734 90.1471 107.96 92.5874C108.711 93.0201 109.277 93.5103 109.761 94.021L128.541 83.1804C127.657 82.9014 126.809 82.5742 126.062 82.1421Z" fill="#DC9D62"/>
<path d="M100.307 89.8937C103.241 89.8937 106.168 90.5369 108.399 91.8257C108.947 92.1399 109.435 92.4982 109.901 92.9262L126.491 83.3475C126.181 83.2067 125.895 83.0578 125.625 82.9025C123.296 81.558 122.013 79.7217 122.013 77.7235C122.013 75.7523 123.265 73.9317 125.54 72.5914L63.2394 36.6217C63.0095 36.7918 62.768 36.9571 62.4989 37.1119C58.0352 39.6917 50.7754 39.6894 46.3117 37.1119C45.7635 36.7959 45.2733 36.4359 44.8055 36.0079L28.2131 45.5866C28.5274 45.7291 28.8171 45.878 29.0897 46.0334C31.4168 47.3796 32.6991 49.2183 32.6991 51.2147C32.6991 53.1466 31.4977 54.9314 29.3113 56.2635L91.6015 92.2291C91.8044 92.0825 91.9967 91.95 92.2095 91.8257C94.4458 90.5369 97.3762 89.8937 100.307 89.8937ZM109.601 95.1314L109.123 94.6265C108.622 94.0947 108.114 93.6896 107.52 93.346C103.54 91.05 97.0684 91.0523 93.0925 93.346C92.7906 93.5196 92.5449 93.7142 92.2963 93.9089L91.829 94.2706L91.2292 94.0431L25.4932 56.09L27.0939 55.3946C27.5676 55.1923 27.9047 55.0475 28.2131 54.8716C29.9733 53.8561 30.9413 52.5568 30.9413 51.2147C30.9413 49.872 29.9733 48.5733 28.2108 47.5555C27.6004 47.206 26.8664 46.8976 25.8984 46.5939L23.9951 45.9917L45.1097 33.8027L45.5835 34.3093C46.086 34.8387 46.5972 35.2463 47.1906 35.5898C51.17 37.8876 57.64 37.8876 61.62 35.5898C62.0005 35.3706 62.313 35.1266 62.619 34.8821L63.0864 34.5057L129.4 72.7925L127.759 73.475C127.323 73.6567 126.893 73.8391 126.502 74.0642C124.742 75.0821 123.771 76.3831 123.771 77.7235C123.771 79.0638 124.742 80.3648 126.502 81.3821C127.114 81.7339 127.844 82.0382 128.804 82.3419L130.709 82.94L109.601 95.1314Z" fill="#1F1B23"/>
<path d="M90.0491 70.514C83.2361 74.45 72.1862 74.45 65.3708 70.514C58.5554 66.5798 58.5554 60.2007 65.3708 56.2664C72.1862 52.3305 83.2337 52.3305 90.0491 56.2664C96.8669 60.2007 96.8669 66.5798 90.0491 70.514Z" fill="#DC9D62"/>
<path d="M90.0491 73.7918C83.2361 77.726 72.1862 77.726 65.3708 73.7918C58.5554 69.8576 58.5554 63.4784 65.3708 59.5425C72.1862 55.6082 83.2337 55.6082 90.0491 59.5425C96.8669 63.4784 96.8669 69.8576 90.0491 73.7918Z" fill="#C77E3A"/>
<path d="M77.7087 54.1906C73.4004 54.1906 69.0921 55.138 65.8093 57.0307C62.798 58.7703 61.1369 61.0311 61.1369 63.3952C61.1369 65.7592 62.798 68.0201 65.8093 69.7597C72.3726 73.5491 83.0477 73.5468 89.6104 69.7597C92.6224 68.0201 94.2828 65.7592 94.2828 63.3952C94.2828 61.0311 92.6224 58.7703 89.6104 57.0307C86.33 55.138 82.0176 54.1906 77.7087 54.1906ZM77.7087 74.333C73.0821 74.333 68.4548 73.3152 64.9322 71.28C61.3498 69.2139 59.3809 66.413 59.3809 63.3952C59.3809 60.3774 61.3498 57.5765 64.9322 55.5103C71.9792 51.4419 83.4406 51.4419 90.4893 55.5103C94.07 57.5765 96.0395 60.3774 96.0395 63.3952C96.0395 66.413 94.07 69.2139 90.4893 71.28C86.965 73.3152 82.3383 74.333 77.7087 74.333Z" fill="#1F1B23"/>
</svg>
