<svg width="156" height="156" viewBox="0 0 156 156" fill="none" xmlns="http://www.w3.org/2000/svg">
<path d="M153.465 94.8304C153.465 94.7929 153.467 94.7546 153.465 94.7202V92.4772H152.01C151.909 92.4099 151.811 92.3403 151.699 92.2783L91.7912 57.6878C89.1658 56.1743 84.5818 56.3632 81.551 58.1146L5.03287 102.597C4.48989 102.911 4.03791 103.253 3.67006 103.611H2.52979V108.816C2.55426 109.756 3.13395 110.65 4.29793 111.323L64.2061 145.91C66.83 147.427 71.4155 147.235 74.4463 145.486L150.964 101.003C152.566 100.077 153.404 98.9043 153.46 97.7762L153.465 96.3737V94.8304Z" fill="#DC9D62"/>
<path d="M153.462 97.7577L153.468 96.3544V94.8111C153.468 94.7736 153.47 94.7353 153.468 94.7009V92.4594H152.012C151.911 92.3914 151.813 92.321 151.702 92.259L129.478 79.4277C127.787 79.466 126.558 79.5631 126.045 79.7329C122.882 80.7822 71.9555 110.392 70.9269 114.887C69.8983 119.382 67.9917 141.885 67.9917 141.885V146.887C70.1935 147.008 72.6071 146.531 74.4486 145.469L150.966 100.984C152.568 100.059 153.406 98.8857 153.462 97.7577Z" fill="#1F1B23"/>
<path d="M3.05803 104.134V108.81C3.07945 109.59 3.59949 110.301 4.5631 110.858L64.4705 145.445C66.946 146.878 71.3044 146.687 74.183 145.022L150.7 100.54C152.072 99.7474 152.885 98.731 152.933 97.7452L152.94 94.7725L152.939 92.9998H151.852L151.721 92.9111C151.578 92.8132 151.513 92.7704 151.441 92.7298L91.5295 58.1394C89.0524 56.7092 84.6993 56.8989 81.8154 58.563L5.2988 103.047C4.81011 103.33 4.38567 103.643 4.04 103.983L3.88628 104.134H3.05803ZM68.6537 147.444C66.8894 147.444 65.2031 147.088 63.9428 146.362L4.03617 111.775C2.75518 111.036 2.03401 109.986 2.00342 108.823V103.077H3.46183C3.8381 102.737 4.27631 102.419 4.77035 102.133L81.2885 57.6484C84.4584 55.8168 89.2879 55.6279 92.0564 57.2247L151.963 91.8129C152.035 91.8565 152.104 91.8993 152.173 91.9444H153.993L153.988 97.7727C153.921 99.1669 152.942 100.466 151.228 101.455L74.7115 145.936C72.9839 146.934 70.7637 147.444 68.6537 147.444Z" fill="#1F1B23"/>
<path d="M64.2075 140.883L4.2994 106.296C1.67472 104.779 2.00357 102.133 5.03435 100.385L81.5525 55.9012C84.5833 54.1498 89.1673 53.9609 91.7927 55.4775L151.701 90.0649C154.325 91.5784 153.996 94.2276 150.965 95.9766L74.4478 140.459C71.417 142.208 66.8315 142.4 64.2075 140.883Z" fill="#DC9D62"/>
<path d="M87.3458 54.9694C85.4278 54.9694 83.4004 55.4367 81.815 56.3506L5.29845 100.835C3.87215 101.658 3.05462 102.709 3.05462 103.721C3.05462 104.522 3.58919 105.273 4.56274 105.833L64.4701 140.418C66.9457 141.85 71.3041 141.66 74.1827 139.998L150.7 95.5136C152.127 94.6915 152.944 93.6384 152.944 92.6266C152.944 91.8259 152.409 91.0757 151.436 90.5151L91.5291 55.9276C90.4141 55.2829 88.9182 54.9694 87.3458 54.9694ZM68.6542 142.418C66.8898 142.418 65.2028 142.061 63.9424 141.335L4.03505 106.748C2.72118 105.99 2 104.913 2 103.721C2 102.321 3.0095 100.937 4.76999 99.9194L81.2881 55.4367C84.4604 53.6104 89.2907 53.4184 92.0561 55.013L151.963 89.6004C153.277 90.3583 154 91.4351 154 92.6251C154 94.0246 152.99 95.4088 151.228 96.4282L74.7111 140.913C72.9835 141.907 70.7634 142.418 68.6542 142.418Z" fill="#1F1B23"/>
<path d="M69.9227 137.517L69.6665 137.368L11.8989 104.016L84.6881 61.6855L84.9443 61.8309L142.713 95.1855L69.9227 137.517Z" fill="#1F1B23"/>
<path d="M70.2315 134.161L11.4399 100.215L85.6691 57.0527L144.462 90.9984L70.2315 134.161Z" fill="#C77E3A"/>
<path d="M12.4941 100.212L70.2325 133.547L143.406 90.9956L85.6694 57.6601L12.4941 100.212ZM70.2325 134.764L69.9687 134.613L10.3833 100.212L85.6694 56.4434L85.9332 56.594L145.517 90.9956L70.2325 134.764Z" fill="#1F1B23"/>
<path d="M135.102 71.2247L135.076 71.4533L129.088 67.9974C128.984 68.0739 128.89 68.1549 128.769 68.2245C127.08 69.1981 126.097 70.7582 124.408 69.7808C122.719 68.8072 120.964 68.4807 122.653 67.5064C122.774 67.4368 122.912 67.3825 123.044 67.3228L123.593 62.813L121.265 62.0031L120.904 66.0877L114.289 59.4542C113.126 58.7819 111.14 59.1085 110.761 60.0308L109.916 62.0811L109.147 62.0031V66.9221C109.147 66.9374 109.145 66.9565 109.147 66.9726V66.9894L109.15 66.9863C109.178 67.283 109.384 67.5668 109.756 67.7794L127.953 78.2881C128.461 78.5787 129.194 78.7034 129.895 78.6147L136.556 77.7589C137.629 77.622 138.241 77.0652 138.195 76.51V71.6728L135.102 71.2247Z" fill="#1F1B23"/>
<path d="M109.673 66.9286L109.674 66.9439C109.686 67.0686 109.815 67.2139 110.019 67.3332L128.218 77.8357C128.624 78.0698 129.244 78.1699 129.827 78.0973L136.487 77.243C137.287 77.139 137.686 76.7811 137.668 76.5616L137.666 72.1344L135.564 71.83L135.51 72.321L129.122 68.6333C129.093 68.6524 129.063 68.67 129.035 68.6876C128.61 68.9331 128.227 69.2184 127.86 69.4983C126.791 70.3028 125.685 71.1364 124.143 70.247C123.771 70.0306 123.395 69.8477 123.055 69.6818C122.165 69.2512 121.462 68.9086 121.438 68.2532C121.419 67.6888 121.936 67.3164 122.387 67.0579C122.428 67.0334 123.093 67.4678 123.137 67.4457V63.3503L121.734 62.6841L121.329 67.2675L113.968 59.8866C113.415 59.5952 112.556 59.5525 111.896 59.7758C111.562 59.8897 111.321 60.061 111.248 60.2369L110.254 62.652L109.674 62.5947L109.673 66.9286ZM129.441 79.1764C128.795 79.1764 128.167 79.0257 127.688 78.7504L109.491 68.2448C109.236 68.0956 109.032 67.9159 108.884 67.7156L108.622 67.8456L108.62 61.4292L109.579 61.524L110.272 59.8346C110.463 59.3689 110.919 58.9934 111.556 58.7746C112.534 58.4458 113.737 58.5353 114.552 59.001L114.661 59.0875L120.478 64.9173L120.794 61.3374L124.192 62.5442V68.1232L123.263 67.8073C123.068 67.8938 122.99 67.9282 122.918 67.9695C122.73 68.0773 122.62 68.1614 122.558 68.215C122.75 68.3603 123.183 68.5713 123.517 68.7327C123.878 68.9086 124.276 69.1029 124.671 69.3293C125.57 69.8493 126.133 69.4776 127.223 68.6547C127.601 68.371 128.027 68.0505 128.504 67.7722C128.574 67.7347 128.633 67.6888 128.692 67.6429L128.971 67.4296L129.353 67.5458L134.705 70.6377L138.399 71.1746C138.585 71.2022 138.722 71.3612 138.722 71.5463V76.5165C138.797 77.3746 137.933 78.1218 136.622 78.2893L129.962 79.1435C129.788 79.1657 129.614 79.1764 129.441 79.1764Z" fill="#1F1B23"/>
<path d="M137.583 70.8886L129.086 65.9819C128.982 66.0599 128.888 66.1379 128.767 66.2082C127.078 67.1841 124.34 67.1841 122.651 66.2082C120.962 65.2339 120.962 63.6532 122.651 62.6773C122.772 62.6062 122.91 62.5527 123.042 62.4938L114.286 57.4372C113.124 56.768 111.138 57.0915 110.759 58.0145L109.195 61.8124C109.027 62.2231 109.239 62.6528 109.754 62.9519L127.951 73.4575C128.459 73.7512 129.192 73.8736 129.893 73.7841L136.554 72.929C138.171 72.7202 138.754 71.5632 137.583 70.8886Z" fill="#C77E3A"/>
<path d="M112.805 57.6147C112.492 57.6147 112.177 57.6629 111.896 57.7578C111.562 57.871 111.321 58.0438 111.249 58.2189L109.685 62.0198C109.598 62.2354 109.919 62.4412 110.02 62.5008L128.218 73.0034C128.625 73.2382 129.244 73.3384 129.827 73.2649L136.488 72.41C137.278 72.3098 137.632 71.9725 137.671 71.7805C137.708 71.5901 137.413 71.4004 137.32 71.35L129.122 66.6145C129.094 66.6336 129.064 66.6528 129.036 66.6688C127.17 67.7456 124.251 67.7426 122.388 66.6719C121.402 66.1021 120.858 65.3122 120.858 64.4457C120.858 63.7115 121.253 63.0293 121.98 62.4916L114.024 57.9C113.7 57.7149 113.255 57.6147 112.805 57.6147ZM129.442 74.3441C128.795 74.3441 128.168 74.1964 127.689 73.9181L109.492 63.4147C108.745 62.9811 108.437 62.2767 108.71 61.6152L110.273 57.8189C110.463 57.3532 110.92 56.9746 111.556 56.7589C112.534 56.4278 113.738 56.5165 114.552 56.9853L124.192 62.5521L123.264 62.9781C123.069 63.0645 122.99 63.0974 122.918 63.1402C122.269 63.5119 121.913 63.9761 121.913 64.4457C121.913 64.9183 122.269 65.3848 122.916 65.7572C124.432 66.6306 126.992 66.6306 128.505 65.7572C128.574 65.7167 128.633 65.6708 128.692 65.6249L128.971 65.4146L129.353 65.5301L137.848 70.4353C138.504 70.8123 138.823 71.3951 138.704 71.9893C138.552 72.7495 137.753 73.3108 136.623 73.4561L129.963 74.3119C129.788 74.3334 129.615 74.3441 129.442 74.3441Z" fill="#1F1B23"/>
<path d="M138.597 87.7795L91.4896 60.5805C90.3577 59.9282 90.4985 58.7871 91.807 58.0315L94.7192 56.3475C96.0262 55.5949 98.0047 55.5116 99.1365 56.167L146.244 83.3622C147.376 84.0176 147.234 85.1594 145.927 85.9119L143.012 87.5944C141.706 88.35 139.729 88.4318 138.597 87.7795Z" fill="#C77E3A"/>
<path d="M138.86 87.3242C139.829 87.8824 141.61 87.8013 142.749 87.1436L145.663 85.4597C146.174 85.166 146.481 84.7966 146.481 84.4754C146.481 84.1764 146.208 83.9546 145.98 83.8215L98.872 56.6271C97.9045 56.0658 96.1226 56.1522 94.9839 56.8106L92.0694 58.4924C91.5577 58.7884 91.2526 59.1547 91.2534 59.4797C91.2534 59.7757 91.5256 59.9936 91.7527 60.1267L138.86 87.3242ZM140.52 88.7543C139.708 88.7543 138.929 88.5845 138.333 88.2419L91.2258 61.0437C90.562 60.6575 90.1987 60.1022 90.1987 59.4797C90.1964 58.7639 90.6874 58.0702 91.5424 57.5792L94.4562 55.896C95.9307 55.0456 98.1026 54.9653 99.3997 55.7132L146.509 82.9099C147.17 83.2938 147.536 83.8491 147.536 84.4754C147.533 85.1897 147.045 85.881 146.191 86.3743L143.276 88.0583C142.479 88.5172 141.476 88.7543 140.52 88.7543Z" fill="#1F1B23"/>
<path d="M123.839 81.5165L100.285 67.9197C99.721 67.5931 99.7913 67.0204 100.444 66.6433L101.901 65.8013C102.554 65.4258 103.543 65.383 104.109 65.7126L127.663 79.3102C128.229 79.6367 128.159 80.208 127.505 80.5827L126.047 81.4247C125.394 81.8025 124.405 81.8438 123.839 81.5165Z" fill="#DC9D62"/>
<path d="M103.158 66.0098C102.814 66.0098 102.443 66.0931 102.165 66.2522L100.709 67.0942C100.487 67.2212 100.434 67.3366 100.433 67.3588C100.436 67.3642 100.465 67.404 100.551 67.4529L124.104 81.0528C124.511 81.2914 125.294 81.2447 125.783 80.9618L127.242 80.1205C127.461 79.9928 127.517 79.8773 127.519 79.8559C127.516 79.8506 127.485 79.8078 127.4 79.7588L103.846 66.1604C103.67 66.0587 103.422 66.0098 103.158 66.0098ZM124.804 82.2596C124.352 82.2619 123.917 82.1647 123.576 81.9682L100.024 68.3676C99.613 68.1305 99.3767 67.7603 99.3774 67.3558C99.3774 66.903 99.6704 66.474 100.182 66.1795L101.637 65.3376C102.463 64.8634 103.639 64.8221 104.373 65.2458L127.927 78.8442C128.338 79.0812 128.573 79.4514 128.573 79.8582C128.573 80.311 128.28 80.7377 127.769 81.0352L126.312 81.8764C125.869 82.1303 125.326 82.2596 124.804 82.2596Z" fill="#1F1B23"/>
<path d="M81.5683 93.1275C79.5975 91.9888 76.4038 91.9888 74.4322 93.1275C72.4614 94.2632 72.4614 96.1086 74.4322 97.2466C76.4038 98.383 79.5975 98.383 81.5683 97.2466C83.5383 96.1086 83.5383 94.2632 81.5683 93.1275Z" fill="#1F1B23"/>
<path d="M87.9867 100.169C82.4819 103.348 73.5226 103.348 68.0148 100.169C65.6019 98.777 64.2727 97.0027 64.2735 95.181C64.2735 93.3571 65.6019 91.5875 68.0148 90.1918C70.7679 88.6033 74.3845 87.8072 78.0003 87.8072C81.6185 87.8072 85.2343 88.6033 87.9867 90.1918C90.4003 91.5875 91.7287 93.3571 91.7287 95.181C91.7295 97.0027 90.4003 98.777 87.9867 100.169ZM89.3357 87.8592C82.982 84.1876 73.0248 84.1876 66.6657 87.8592C63.3833 89.7528 61.5762 92.3537 61.5762 95.181C61.5746 98.0076 63.3833 100.609 66.6657 102.506C69.8433 104.341 73.9218 105.258 78.0003 105.258C82.0788 105.258 86.1589 104.341 89.3357 102.506C92.6189 100.609 94.4268 98.0076 94.426 95.181C94.426 92.3537 92.6189 89.7528 89.3357 87.8592Z" fill="#1F1B23"/>
<path d="M81.5675 90.4244C79.5975 89.2856 76.4038 89.2856 74.4322 90.4244C72.4614 91.56 72.4614 93.4054 74.4322 94.5419C76.4038 95.6798 79.5975 95.6798 81.5675 94.5419C83.5383 93.4054 83.5383 91.56 81.5675 90.4244Z" fill="#DC9D62"/>
<path d="M87.9867 97.4683C82.4819 100.647 73.5226 100.647 68.0148 97.4683C65.6019 96.0756 64.2727 94.2999 64.2735 92.479C64.2735 90.6558 65.6019 88.886 68.0148 87.4911C70.7679 85.9019 74.3837 85.1058 78.0003 85.1058C81.6177 85.1058 85.2335 85.9019 87.9867 87.4911C90.4003 88.886 91.7287 90.6558 91.7287 92.479C91.7295 94.2999 90.4003 96.0756 87.9867 97.4683ZM89.3357 85.1578C82.982 81.4846 73.024 81.4831 66.6657 85.1578C63.3833 87.0514 61.5762 89.6524 61.5762 92.479C61.5746 95.3048 63.3833 97.9073 66.6657 99.8016C69.8433 101.639 73.9218 102.556 78.0003 102.556C82.0788 102.556 86.1589 101.639 89.3357 99.8016C92.6189 97.9073 94.4268 95.3048 94.426 92.479C94.426 89.6524 92.6189 87.0514 89.3357 85.1578Z" fill="#DC9D62"/>
<path d="M74.5337 42.9978C70.3428 45.091 67.1292 42.5229 67.3915 37.3048C67.6515 32.1579 71.2047 26.4352 75.2946 24.4812C79.3448 22.5479 82.4712 25.0081 82.3121 30.0204C82.1515 35.0947 78.6841 40.926 74.5337 42.9978ZM75.8804 10.2282C65.2333 15.1335 55.689 29.9906 54.7851 43.7175C54.4226 49.2108 55.5093 53.6549 57.6621 56.6841L72.9957 85.7621L80.349 89.3512C81.0105 87.853 91.7387 36.7795 92.2312 35.2415C93.3814 31.6502 101.229 29.3949 101.286 25.8976C101.502 13.1099 86.2622 5.44537 75.8804 10.2282Z" fill="#DC9D62"/>
<path d="M75.8579 45.6137C71.667 47.7069 68.4542 45.1388 68.7173 39.9208C68.9765 34.7739 72.5304 29.0512 76.6204 27.0979C80.6706 25.1631 83.7962 27.6264 83.6371 32.6364C83.4757 37.7137 80.0083 43.542 75.8579 45.6137ZM77.2054 12.8441C66.5583 17.7516 57.014 32.6065 56.11 46.3334C55.938 48.945 56.1139 51.2952 56.5551 53.3914C68.7027 60.698 77.8004 60.2712 87.2881 66.7442C90.2417 53.0159 93.2992 38.6612 93.5562 37.8574C94.7064 34.2684 100.589 31.5756 100.646 28.0791C100.863 15.2914 87.5871 8.06356 77.2054 12.8441Z" fill="#C77E3A"/>
<path d="M77.9258 24.6384C77.2214 24.6384 76.4483 24.8288 75.643 25.2158C71.7839 27.0581 68.4442 32.5025 68.201 37.3496C68.0794 39.7433 68.7455 41.5918 70.0257 42.4307C71.0995 43.1351 72.5709 43.0754 74.1731 42.277C78.0604 40.3345 81.3489 34.8282 81.5026 29.9956C81.5753 27.7166 80.9053 25.9408 79.6626 25.1294C79.1624 24.8021 78.5728 24.6384 77.9258 24.6384ZM71.7503 44.5408C70.7966 44.5408 69.9133 44.2899 69.1409 43.7851C67.3651 42.625 66.4336 40.2504 66.5827 37.2724C66.8588 31.7982 70.532 25.8597 74.9455 23.7559C77.0234 22.7655 79.0133 22.7709 80.5474 23.7742C82.2727 24.903 83.2111 27.1874 83.1201 30.0499C82.9496 35.4079 79.2588 41.5459 74.8965 43.7263H74.895C73.8075 44.2708 72.7407 44.5408 71.7503 44.5408ZM73.588 85.1553L79.8354 88.206C80.8227 84.2269 84.4126 67.5029 87.1053 54.9538C89.6734 42.9943 91.2565 35.632 91.4599 35.001C92.0893 33.0333 94.2704 31.542 96.3781 30.1011C98.3818 28.7307 100.453 27.312 100.477 25.8926C100.565 20.6639 97.8679 15.8695 93.0751 12.7478C87.8662 9.34836 81.2533 8.65248 76.2181 10.9705C65.7186 15.8077 56.4656 30.5248 55.5915 43.7767C55.2519 48.9267 56.1964 53.2308 58.3225 56.2165L73.588 85.1553ZM80.7493 90.4536L72.4026 86.3774L72.2803 86.1426L56.9474 57.0638C54.6592 53.8595 53.6115 49.1997 53.9763 43.6712C54.8856 29.8878 64.5592 14.561 75.542 9.49981C81.0629 6.95007 88.2945 7.69729 93.9592 11.3911C99.2276 14.8257 102.193 20.1217 102.096 25.9194C102.057 28.177 99.6345 29.8335 97.2928 31.4364C95.4084 32.7235 93.4621 34.0565 93.0001 35.4943C92.8089 36.1008 90.8075 45.4248 88.6891 55.2941C84.4883 74.8653 81.485 88.7887 81.0896 89.685L80.7493 90.4536Z" fill="#1F1B23"/>
<path d="M101.458 28.1059C101.673 15.3152 93.6145 9.04481 83.2343 13.8284C72.5872 18.7329 63.0429 33.5885 62.1374 47.3184C61.7757 52.811 62.8616 57.2543 65.016 60.2812L80.3496 89.3601L97.8467 43.4028C98.509 41.9038 99.0918 40.3766 99.5843 38.841C100.735 35.2504 101.398 31.5994 101.458 28.1059Z" fill="#1F1B23"/>
<path d="M89.8703 13.042C87.9025 13.042 85.7703 13.549 83.5709 14.5631C73.0698 19.401 63.8169 34.1175 62.9435 47.3701C62.6047 52.5239 63.5492 56.8265 65.6738 59.8129L80.2281 87.402L97.0889 43.1157C97.7558 41.6076 98.3286 40.0995 98.8119 38.5937C99.9721 34.9702 100.591 31.4369 100.647 28.0903C100.752 21.8238 98.7576 16.8888 95.1716 14.5524C93.6299 13.5467 91.8304 13.042 89.8703 13.042ZM80.7489 90.4587L79.7631 89.9838L64.2987 60.6603C62.012 57.4582 60.9651 52.7954 61.3291 47.2646C62.2369 33.4842 71.9112 18.1544 82.8933 13.0932C87.8107 10.8295 92.4842 10.867 96.0565 13.1957C100.177 15.8831 102.383 21.1844 102.265 28.1178C102.206 31.622 101.563 35.3128 100.354 39.09C99.8535 40.6493 99.2593 42.2095 98.5856 43.7276L80.7489 90.4587Z" fill="#1F1B23"/>
<path d="M80.9576 56.589L73.1547 51.28C72.0595 50.5343 72.1398 48.3486 73.3313 46.3992C74.5236 44.4452 76.3774 43.4678 77.471 44.2104L81.4058 46.8894L88.668 32.1371C89.6913 30.0975 91.5367 28.8164 92.7909 29.2745C94.0436 29.7326 94.2302 31.7562 93.2069 33.7935L82.3273 55.7524C81.9786 56.4491 81.3308 56.8421 80.9576 56.589Z" fill="#DC9D62"/>
</svg>
