<svg width="156" height="156" viewBox="0 0 156 156" fill="none" xmlns="http://www.w3.org/2000/svg">
<path d="M88.2046 89.8888L88.2158 69.0898L116.099 85.1855L116.085 105.985L88.2046 89.8888Z" fill="#DC9D62"/>
<path d="M88.2163 69.0817L113.688 54.4434L141.569 70.539L116.099 85.1774L88.2163 69.0817Z" fill="#DC9D62"/>
<path d="M88.6187 75.917L113.69 61.5176L141.57 77.6164L115.864 91.5842L88.6187 75.917Z" fill="#C77E3A"/>
<path d="M90.5795 69.0832L113.686 55.8069L139.206 70.5405L116.099 83.8175L90.5795 69.0832ZM114.907 103.94L89.3837 89.2027L89.3981 71.124L114.921 85.8583L114.907 103.94ZM113.689 53.0859L87.0408 68.4006L87.0264 90.5616L116.083 107.341L142.734 92.026L142.748 69.861L113.689 53.0859Z" fill="#1F1B23"/>
<path d="M51.6255 111.359V23.002L79.5058 39.0991V127.455L51.6255 111.359Z" fill="#DC9D62"/>
<path d="M51.6255 22.9931L77.0982 8.35547L104.979 24.4534L79.5058 39.0903L51.6255 22.9931Z" fill="#DC9D62"/>
<path d="M52.0278 29.8251L77.1001 15.4297L104.98 31.5261L79.2743 45.4954L52.0278 29.8251Z" fill="#C77E3A"/>
<path d="M53.9887 23.0005L77.0945 9.72175L102.615 24.4561L79.5086 37.7348L53.9887 23.0005ZM78.3295 125.408L52.804 110.675V25.0396L78.3295 39.7763V125.408ZM77.0977 7L50.4468 22.3154V112.034L79.5054 128.812L106.157 113.495V23.7759L77.0977 7Z" fill="#1F1B23"/>
<path d="M15.1782 131.694V102.609L43.0586 118.708V147.79L15.1782 131.694Z" fill="#DC9D62"/>
<path d="M15.1782 102.618L40.6502 87.9824L68.5305 104.079L43.0586 118.717L15.1782 102.618Z" fill="#DC9D62"/>
<path d="M15.5811 109.449L40.6525 95.0508L68.5329 111.146L42.8267 125.117L15.5811 109.449Z" fill="#C77E3A"/>
<path d="M17.5419 102.622L40.6486 89.3421L66.1684 104.076L43.0618 117.355L17.5419 102.622ZM41.8803 145.758L16.3573 131.024V104.66L41.8803 119.397V145.758ZM40.651 86.6211L14 101.936V132.384L43.0594 149.162L69.7103 133.844V103.4L40.651 86.6211Z" fill="#1F1B23"/>
<path d="M92.6888 44.2656L95.2882 42.7676V78.9779L91.62 81.0962V50.598C91.214 51.3965 90.6472 52.1575 89.911 52.8937C89.1749 53.6267 88.4506 54.1998 87.7368 54.6107V51.6499C88.7464 50.8993 89.7048 49.8762 90.6129 48.5709C91.5209 47.2623 92.2148 45.8275 92.6888 44.2656Z" fill="#C77E3A"/>
</svg>
