<svg width="169" height="169" viewBox="0 0 169 169" fill="none" xmlns="http://www.w3.org/2000/svg">
<path d="M84.5 169C131.168 169 169 131.168 169 84.5C169 37.8319 131.168 0 84.5 0C37.8319 0 0 37.8319 0 84.5C0 131.168 37.8319 169 84.5 169Z" fill="#DC9D62"/>
<path d="M132.47 113.78V116.02C132.414 116.125 132.37 116.235 132.34 116.35C132.102 118.824 130.984 121.13 129.19 122.85C126.46 125.37 123.54 127.69 120.69 130.09C118.861 131.564 116.589 132.381 114.24 132.41C109.588 132.529 104.971 131.57 100.75 129.61C92.142 125.867 84.1829 120.78 77.1702 114.54C70.1989 108.352 63.5565 101.803 57.2702 94.92C50.0046 87.3078 44.1351 78.4765 39.9302 68.83C38.1771 65.0196 37.1917 60.9012 37.0302 56.71C36.8081 53.6077 37.8177 50.5429 39.8402 48.18C40.6002 47.32 41.2002 46.33 41.9602 45.46C43.6402 43.56 45.3002 41.62 47.1002 39.83C48.8018 38.3528 50.878 37.3735 53.1002 37H56.1002C57.2049 37.2595 58.2907 37.5936 59.3502 38C66.1831 41.1946 71.7366 46.6037 75.1102 53.35C75.8446 54.7192 76.2885 56.2252 76.4141 57.7738C76.5397 59.3225 76.3443 60.8804 75.8402 62.35C75.0598 64.6759 73.9448 66.8756 72.5302 68.88C71.7114 70.0072 71.2821 71.3705 71.3074 72.7634C71.3327 74.1564 71.8111 75.5032 72.6702 76.6C78.367 84.2732 85.1555 91.0718 92.8202 96.78C93.9408 97.6266 95.3001 98.0978 96.7043 98.1265C98.1085 98.1553 99.4859 97.74 100.64 96.94C102.241 95.8257 103.954 94.8806 105.75 94.12C107.319 93.3423 109.049 92.9477 110.8 92.9686C112.55 92.9894 114.271 93.4252 115.82 94.24C123.91 98.56 130.15 104.52 132.47 113.78Z" fill="white"/>
</svg>
