<svg width="168" height="127" viewBox="0 0 168 127" fill="none" xmlns="http://www.w3.org/2000/svg">
<rect width="168" height="127" rx="12" fill="#C77E3A"/>
<path d="M120 85.9351V87.6253C119.958 87.7045 119.925 87.7875 119.902 87.8743C119.722 89.7411 118.879 91.4811 117.526 92.779C115.467 94.6804 113.265 96.431 111.116 98.242C109.737 99.3542 108.023 99.9707 106.252 99.9926C102.743 100.082 99.2613 99.3587 96.0779 97.8798C89.5861 95.0555 83.5836 91.217 78.2949 86.5086C73.0374 81.8394 68.0279 76.8977 63.287 71.7041C57.8076 65.9602 53.381 59.2965 50.2098 52.0176C48.8877 49.1425 48.1446 46.0349 48.0228 42.8724C47.8553 40.5315 48.6167 38.2189 50.142 36.436C50.7151 35.7871 51.1676 35.04 51.7408 34.3836C53.0078 32.9499 54.2597 31.4861 55.6172 30.1354C56.9005 29.0208 58.4663 28.2818 60.1422 28H62.4047C63.2378 28.1958 64.0567 28.4479 64.8557 28.7546C70.0088 31.1651 74.1971 35.2466 76.7413 40.3371C77.2952 41.3702 77.63 42.5066 77.7247 43.6751C77.8194 44.8437 77.672 46.0192 77.2919 47.1281C76.7033 48.8831 75.8624 50.5429 74.7956 52.0554C74.1781 52.9059 73.8543 53.9346 73.8734 54.9856C73.8925 56.0367 74.2533 57.053 74.9012 57.8806C79.1975 63.6705 84.3171 68.8004 90.0976 73.1076C90.9427 73.7464 91.9678 74.1019 93.0268 74.1236C94.0858 74.1453 95.1246 73.832 95.995 73.2283C97.2024 72.3875 98.4943 71.6744 99.8487 71.1005C101.032 70.5136 102.337 70.2159 103.657 70.2317C104.977 70.2473 106.275 70.5762 107.443 71.191C113.544 74.4507 118.25 78.9479 120 85.9351Z" fill="white"/>
</svg>
