<svg width="170" height="170" viewBox="0 0 170 170" fill="none" xmlns="http://www.w3.org/2000/svg">
<path d="M85 170C131.944 170 170 131.944 170 85C170 38.0557 131.944 0 85 0C38.0557 0 0 38.0557 0 85C0 131.944 38.0557 170 85 170Z" fill="#DC9D62"/>
<path d="M70.114 98.5206L68.5517 122.253C70.7869 122.253 71.7551 121.216 72.9158 119.97L83.3954 109.154L105.11 126.328C109.093 128.725 111.899 127.463 112.973 122.372L127.227 50.2409L127.23 50.2368C128.494 43.8788 125.102 41.3924 121.221 42.9523L37.4394 77.5939C31.7212 79.9909 31.808 83.4334 36.4672 84.993L57.8869 92.1884L107.641 58.5668C109.982 56.8923 112.111 57.8188 110.36 59.4933L70.114 98.5206Z" fill="white"/>
<path d="M70.114 98.5206L68.5517 122.253C70.7869 122.253 71.7551 121.216 72.9158 119.97L83.3954 109.154L105.11 126.328C109.093 128.725 111.899 127.463 112.973 122.372L127.227 50.2409L127.23 50.2368C128.494 43.8788 125.102 41.3924 121.221 42.9523L37.4394 77.5939C31.7212 79.9909 31.808 83.4334 36.4672 84.993L57.8869 92.1884L107.641 58.5668C109.982 56.8923 112.111 57.8188 110.36 59.4933L70.114 98.5206Z" fill="white"/>
</svg>
