<svg width="168" height="127" viewBox="0 0 168 127" fill="none" xmlns="http://www.w3.org/2000/svg">
<rect width="168" height="127" rx="12" fill="#C77E3A"/>
<path fill-rule="evenodd" clip-rule="evenodd" d="M109.51 38.4635C102.741 31.7196 93.74 28.0041 84.1506 28C64.3905 28 48.3088 44.0046 48.3008 63.6753C48.2982 69.9633 49.9487 76.1016 53.0861 81.5121L48 100L67.0047 95.0386C72.2411 97.8813 78.1364 99.3794 84.136 99.3812H84.151C103.909 99.3812 119.992 83.3755 120 63.7039C120.004 54.1704 116.278 45.2069 109.51 38.4635ZM84.1506 93.3559H84.1382C78.7917 93.3536 73.5482 91.9238 68.9726 89.2225L67.885 88.5796L56.6076 91.5238L59.6177 80.581L58.9089 79.459C55.9261 74.7376 54.3512 69.2806 54.3538 63.6775C54.3599 47.3276 67.727 34.0258 84.1626 34.0258C92.1212 34.0284 99.6027 37.1169 105.228 42.7222C110.854 48.3275 113.95 55.7778 113.947 63.7017C113.94 80.0528 100.574 93.3559 84.1506 93.3559ZM100.495 71.1464C99.5992 70.6999 95.195 68.544 94.3738 68.246C93.5533 67.9484 92.9555 67.8003 92.3589 68.6925C91.7615 69.5847 90.045 71.5929 89.5223 72.1874C88.9994 72.7824 88.4776 72.8572 87.5816 72.4107C86.6855 71.9646 83.7996 71.0229 80.3778 67.9858C77.7153 65.6221 75.9176 62.7027 75.3947 61.8107C74.8729 60.9177 75.3904 60.4818 75.7878 59.9914C76.7575 58.7929 77.7285 57.5366 78.0269 56.942C78.3259 56.347 78.1762 55.8262 77.952 55.3801C77.7285 54.9342 75.9371 50.5461 75.1908 48.7607C74.4631 47.0231 73.7252 47.2578 73.1751 47.2305C72.6532 47.2045 72.0556 47.1993 71.4582 47.1993C70.8612 47.1993 69.8908 47.4221 69.0693 48.3151C68.2484 49.2076 65.9347 51.3639 65.9347 55.752C65.9347 60.1399 69.1445 64.3787 69.5922 64.9739C70.0399 65.5689 75.9088 74.5733 84.8943 78.4342C87.0315 79.3536 88.6996 79.9017 90.0009 80.3124C92.1468 80.9911 94.0991 80.8952 95.6427 80.6659C97.3639 80.4097 100.942 78.509 101.689 76.4268C102.435 74.3443 102.435 72.5598 102.211 72.1874C101.988 71.8157 101.39 71.5929 100.495 71.1464Z" fill="white"/>
</svg>
