<svg width="170" height="170" viewBox="0 0 170 170" fill="none" xmlns="http://www.w3.org/2000/svg">
<path d="M85 170C131.944 170 170 131.944 170 85C170 38.0557 131.944 0 85 0C38.0557 0 0 38.0557 0 85C0 131.944 38.0557 170 85 170Z" fill="#DC9D62"/>
<path fill-rule="evenodd" clip-rule="evenodd" d="M121.806 48.1524C112.04 38.4217 99.0521 33.0605 85.2156 33.0547C56.7036 33.0547 33.4992 56.1477 33.4878 84.5307C33.484 93.6037 35.8655 102.461 40.3924 110.268L33.0537 136.944L60.4756 129.785C68.0312 133.887 76.5377 136.048 85.1945 136.051H85.2162C113.725 136.051 136.932 112.956 136.943 84.572C136.948 70.8161 131.573 57.8826 121.806 48.1524ZM85.2156 127.357H85.1977C77.4832 127.354 69.9173 125.291 63.3152 121.393L61.7459 120.465L45.4737 124.713L49.8169 108.924L48.7942 107.305C44.4903 100.493 42.2179 92.6186 42.2217 84.5339C42.2305 60.9426 61.5179 41.7493 85.2329 41.7493C96.7164 41.7531 107.511 46.2095 115.629 54.2974C123.746 62.3853 128.213 73.1354 128.209 84.5688C128.199 108.162 108.913 127.357 85.2156 127.357ZM108.798 95.3107C107.506 94.6665 101.152 91.5558 99.9666 91.1258C98.7827 90.6964 97.9201 90.4827 97.0593 91.7701C96.1973 93.0574 93.7206 95.955 92.9664 96.8129C92.2119 97.6714 91.459 97.7793 90.1661 97.135C88.8732 96.4914 84.7091 95.1325 79.7718 90.7503C75.9301 87.3398 73.3361 83.1273 72.5816 81.8403C71.8287 80.5518 72.5755 79.9228 73.1488 79.2153C74.5481 77.4859 75.9491 75.6731 76.3797 74.8152C76.8111 73.9567 76.5951 73.2052 76.2715 72.5615C75.9491 71.9182 73.3642 65.5865 72.2874 63.0104C71.2375 60.5032 70.1726 60.8418 69.3789 60.8025C68.6259 60.765 67.7636 60.7574 66.9016 60.7574C66.0402 60.7574 64.64 61.0789 63.4547 62.3674C62.2703 63.6553 58.9318 66.7666 58.9318 73.0982C58.9318 79.4295 63.5631 85.5457 64.2091 86.4045C64.8551 87.263 73.3235 100.255 86.2886 105.826C89.3724 107.153 91.7793 107.944 93.6569 108.536C96.7533 109.516 99.5703 109.377 101.798 109.046C104.281 108.677 109.444 105.934 110.522 102.93C111.599 99.9251 111.599 97.3502 111.275 96.8129C110.953 96.2765 110.091 95.955 108.798 95.3107Z" fill="black"/>
<path fill-rule="evenodd" clip-rule="evenodd" d="M121.806 48.1524C112.04 38.4217 99.0521 33.0605 85.2156 33.0547C56.7036 33.0547 33.4992 56.1477 33.4878 84.5307C33.484 93.6037 35.8655 102.461 40.3924 110.268L33.0537 136.944L60.4756 129.785C68.0312 133.887 76.5377 136.048 85.1945 136.051H85.2162C113.725 136.051 136.932 112.956 136.943 84.572C136.948 70.8161 131.573 57.8826 121.806 48.1524ZM85.2156 127.357H85.1977C77.4832 127.354 69.9173 125.291 63.3152 121.393L61.7459 120.465L45.4737 124.713L49.8169 108.924L48.7942 107.305C44.4903 100.493 42.2179 92.6186 42.2217 84.5339C42.2305 60.9426 61.5179 41.7493 85.2329 41.7493C96.7164 41.7531 107.511 46.2095 115.629 54.2974C123.746 62.3853 128.213 73.1354 128.209 84.5688C128.199 108.162 108.913 127.357 85.2156 127.357ZM108.798 95.3107C107.506 94.6665 101.152 91.5558 99.9666 91.1258C98.7827 90.6964 97.9201 90.4827 97.0593 91.7701C96.1973 93.0574 93.7206 95.955 92.9664 96.8129C92.2119 97.6714 91.459 97.7793 90.1661 97.135C88.8732 96.4914 84.7091 95.1325 79.7718 90.7503C75.9301 87.3398 73.3361 83.1273 72.5816 81.8403C71.8287 80.5518 72.5755 79.9228 73.1488 79.2153C74.5481 77.4859 75.9491 75.6731 76.3797 74.8152C76.8111 73.9567 76.5951 73.2052 76.2715 72.5615C75.9491 71.9182 73.3642 65.5865 72.2874 63.0104C71.2375 60.5032 70.1726 60.8418 69.3789 60.8025C68.6259 60.765 67.7636 60.7574 66.9016 60.7574C66.0402 60.7574 64.64 61.0789 63.4547 62.3674C62.2703 63.6553 58.9318 66.7666 58.9318 73.0982C58.9318 79.4295 63.5631 85.5457 64.2091 86.4045C64.8551 87.263 73.3235 100.255 86.2886 105.826C89.3724 107.153 91.7793 107.944 93.6569 108.536C96.7533 109.516 99.5703 109.377 101.798 109.046C104.281 108.677 109.444 105.934 110.522 102.93C111.599 99.9251 111.599 97.3502 111.275 96.8129C110.953 96.2765 110.091 95.955 108.798 95.3107Z" fill="white"/>
</svg>
