<svg width="168" height="127" viewBox="0 0 168 127" fill="none" xmlns="http://www.w3.org/2000/svg">
<rect width="168" height="127" rx="12" fill="#C77E3A"/>
<path d="M113.023 35.1182C113.023 31.8018 111.066 29.52 108.403 27.6632C106.551 26.4627 104.352 25.8856 102.136 26.0188C83.5809 26.0188 65.016 26.0188 46.4607 26.0188C44.9924 25.9645 43.5294 26.2197 42.1699 26.7671C38.9332 28.2821 35.9974 30.296 35.1129 34.0466C35.1129 34.0928 35.0376 34.1297 35 34.1759V71.7007C36.6654 76.0055 40.307 77.5485 44.6353 78.1675C43.6191 82.2039 42.631 86.103 41.643 90.0012L41.803 90.1212C42.4241 89.6962 43.0168 89.1972 43.6849 88.8462C45.0681 88.0241 46.5077 87.2391 47.8721 86.417C51.04 84.532 54.2078 82.6412 57.3757 80.7447C57.7238 80.5318 58.0343 80.2548 58.3165 80.0147C60.1308 78.7093 62.358 78.0771 64.6021 78.2317C77.333 78.3246 90.0643 78.2785 102.795 78.2785C105.183 78.4216 107.556 77.8058 109.56 76.5226C111.583 75.0914 113.061 73.2804 113.061 70.6106C113.032 58.7675 113.089 46.9521 113.023 35.1182ZM54.6846 56.1162C51.4853 56.1162 49.547 53.7975 49.4717 50.8321C49.4717 49.4846 50.017 48.1922 50.9875 47.2393C51.958 46.2865 53.2743 45.7511 54.6469 45.7511C56.0194 45.7511 57.3358 46.2865 58.3063 47.2393C59.2768 48.1922 59.822 49.4846 59.822 50.8321C59.7279 53.7605 57.8649 56.0885 54.6846 56.1162ZM73.9551 56.1162C73.2635 56.0996 72.5821 55.9481 71.9507 55.6709C71.3191 55.3935 70.7501 54.9958 70.2764 54.5007C69.8028 54.0057 69.4341 53.4232 69.1918 52.787C68.9494 52.1509 68.8381 51.4738 68.8645 50.7951C68.9145 49.801 69.2613 48.8433 69.8617 48.0413C70.4621 47.2393 71.2896 46.6285 72.2411 46.285C73.1926 45.9414 74.226 45.8804 75.2126 46.1094C76.1992 46.3384 77.0953 46.8474 77.7894 47.5728C78.4834 48.2983 78.9447 49.2083 79.1158 50.1894C79.2868 51.1705 79.16 52.1792 78.7512 53.09C78.3425 54.0008 77.6698 54.7734 76.8169 55.3115C75.964 55.8497 74.9687 56.1295 73.9551 56.1162ZM93.3478 56.1162C92.6536 56.107 91.9685 55.9608 91.3324 55.6862C90.6971 55.4115 90.1241 55.0141 89.6484 54.5176C89.1725 54.0211 88.8033 53.4357 88.5627 52.7962C88.3221 52.1566 88.2151 51.4761 88.248 50.7951C88.225 50.1142 88.3429 49.4357 88.5943 48.8008C88.8458 48.1657 89.2256 47.5873 89.711 47.1004C90.1963 46.6135 90.7776 46.2282 91.4187 45.9678C92.0598 45.7072 92.7482 45.577 93.4417 45.5849C94.8642 45.5972 96.2236 46.1637 97.2209 47.1598C98.2175 48.156 98.7705 49.5002 98.7581 50.8967C98.7456 52.2932 98.1685 53.6277 97.1545 54.6066C96.1397 55.5854 94.7703 56.1284 93.3478 56.1162Z" fill="white"/>
<path d="M61.1052 83.1387H109.844C111.254 83.2169 112.662 82.9281 113.928 82.3015C114.989 81.6757 115.888 80.8093 116.554 79.7707C117.219 78.733 117.632 77.5529 117.759 76.3254C117.882 75.5007 117.935 74.666 117.918 73.8321C117.918 64.848 117.918 55.8609 117.918 46.8707V45.7885C120.838 44.9886 124.491 45.9955 125.768 48.1787C126.343 49.2949 126.724 50.501 126.894 51.7454C127.009 52.682 127.03 53.6276 126.96 54.5686C126.96 64.3367 126.96 74.1051 126.96 83.8727C127.051 86.0131 126.523 88.1344 125.439 89.9802C124.944 90.7383 124.275 91.3658 123.487 91.8094C122.699 92.253 121.817 92.501 120.913 92.5309L119.975 92.5967C120.594 95.4761 121.261 98.2997 121.918 101.123L121.74 101.273C120.426 100.426 119.111 99.5605 117.787 98.7325C116.849 98.13 115.825 97.5749 114.857 96.9724C112.67 95.6359 110.51 94.2627 108.285 92.9545C107.799 92.6757 107.25 92.5267 106.689 92.5218C94.6151 92.5218 82.5404 92.5218 70.4661 92.5218C68.2258 92.6291 66.025 91.9018 64.2881 90.4795C62.1098 88.6062 60.6451 86.3668 61.1052 83.1387Z" fill="white"/>
</svg>
