<svg width="180" height="180" viewBox="0 0 180 180" fill="none" xmlns="http://www.w3.org/2000/svg">
<path d="M90 180C139.706 180 180 139.706 180 90C180 40.2944 139.706 0 90 0C40.2944 0 0 40.2944 0 90C0 139.706 40.2944 180 90 180Z" fill="#DC9D62"/>
<path d="M127.955 55.0918C127.955 51.0576 125.598 48.2819 122.391 46.0232C120.161 44.5628 117.513 43.8608 114.845 44.0229C92.5007 44.0229 70.1451 44.0229 47.8009 44.0229C46.0328 43.9568 44.271 44.2672 42.634 44.9331C38.7363 46.7761 35.2011 49.2259 34.136 53.7883C34.136 53.8445 34.0453 53.8894 34 53.9456V99.5924C36.0055 104.829 40.3906 106.706 45.6027 107.459C44.379 112.369 43.1892 117.112 41.9995 121.854L42.1921 122C42.94 121.483 43.6538 120.876 44.4583 120.449C46.1239 119.449 47.8575 118.494 49.5005 117.494C53.3152 115.201 57.1299 112.901 60.9446 110.594C61.3638 110.335 61.7377 109.998 62.0776 109.706C64.2623 108.118 66.9443 107.349 69.6466 107.537C84.9771 107.65 100.308 107.594 115.638 107.594C118.514 107.768 121.371 107.019 123.785 105.458C126.221 103.717 128 101.514 128 98.2664C127.966 83.8599 128.034 69.4871 127.955 55.0918ZM57.704 80.6347C53.8515 80.6347 51.5174 77.8141 51.4267 74.2069C51.4267 72.5677 52.0833 70.9956 53.252 69.8365C54.4207 68.6774 56.0058 68.0262 57.6586 68.0262C59.3114 68.0262 60.8966 68.6774 62.0653 69.8365C63.234 70.9956 63.8905 72.5677 63.8905 74.2069C63.7772 77.7691 61.5338 80.601 57.704 80.6347ZM80.9094 80.6347C80.0766 80.6145 79.2561 80.4303 78.4957 80.093C77.7352 79.7556 77.05 79.2718 76.4796 78.6696C75.9093 78.0674 75.4653 77.3588 75.1735 76.5849C74.8816 75.8111 74.7476 74.9875 74.7794 74.1619C74.8396 72.9526 75.2572 71.7876 75.9802 70.8121C76.7032 69.8365 77.6997 69.0935 78.8454 68.6756C79.9912 68.2577 81.2357 68.1834 82.4237 68.462C83.6118 68.7406 84.6909 69.3597 85.5267 70.2422C86.3624 71.1247 86.9179 72.2317 87.1239 73.4251C87.3298 74.6185 87.1772 75.8456 86.6849 76.9535C86.1927 78.0615 85.3826 79.0013 84.3556 79.6559C83.3286 80.3105 82.13 80.6509 80.9094 80.6347ZM104.262 80.6347C103.426 80.6236 102.601 80.4457 101.835 80.1116C101.07 79.7775 100.38 79.2941 99.8072 78.6901C99.2341 78.0862 98.7895 77.374 98.4998 76.5961C98.2101 75.8181 98.0812 74.9903 98.1208 74.1619C98.0932 73.3336 98.2351 72.5083 98.5379 71.7359C98.8407 70.9634 99.2981 70.2598 99.8826 69.6675C100.467 69.0752 101.167 68.6065 101.939 68.2897C102.711 67.9728 103.54 67.8144 104.375 67.824C106.088 67.8389 107.725 68.528 108.926 69.7398C110.126 70.9516 110.792 72.5867 110.777 74.2855C110.762 75.9843 110.067 77.6076 108.846 78.7984C107.624 79.9891 105.975 80.6496 104.262 80.6347Z" fill="white"/>
<path d="M66.1014 113.209H124.458C126.147 113.303 127.832 112.956 129.348 112.203C130.619 111.451 131.695 110.41 132.492 109.162C133.289 107.915 133.783 106.497 133.935 105.022C134.082 104.031 134.146 103.028 134.126 102.026C134.126 91.2304 134.126 80.4312 134.126 69.6283V68.3279C137.622 67.3667 141.995 68.5767 143.524 71.2001C144.213 72.5413 144.669 73.9906 144.873 75.4859C145.01 76.6114 145.036 77.7476 144.952 78.8783C144.952 90.616 144.952 102.354 144.952 114.091C145.061 116.663 144.429 119.212 143.131 121.43C142.538 122.341 141.737 123.095 140.793 123.628C139.85 124.161 138.794 124.459 137.712 124.495L136.588 124.574C137.33 128.034 138.128 131.427 138.915 134.819L138.702 135C137.128 133.982 135.554 132.942 133.969 131.947C132.845 131.223 131.619 130.556 130.461 129.832C127.842 128.226 125.256 126.576 122.592 125.004C122.01 124.669 121.352 124.49 120.681 124.484C106.224 124.484 91.7666 124.484 77.3096 124.484C74.6272 124.613 71.9921 123.739 69.9124 122.03C67.3043 119.779 65.5505 117.088 66.1014 113.209Z" fill="white"/>
</svg>
